<svg width="40" height="40" viewBox="0 0 40 40" fill="none" xmlns="http://www.w3.org/2000/svg">
<path opacity="0.12" d="M31.7853 8.2149C25.2765 1.70616 14.7238 1.70616 8.21505 8.2149C3.85289 12.5771 2.41426 18.7557 3.89913 24.3159L15.6842 36.101C21.2445 37.5859 27.4231 36.1473 31.7853 31.7851C38.294 25.2764 38.294 14.7236 31.7853 8.2149Z" fill="#6941C6"/>
<path d="M3.89913 24.3159C2.41426 18.7557 3.85289 12.5771 8.21505 8.2149C14.7238 1.70616 25.2765 1.70616 31.7853 8.2149C38.294 14.7236 38.294 25.2764 31.7853 31.7851C27.4231 36.1473 21.2445 37.5859 15.6842 36.101M25.0004 25.0002V15.0002M25.0004 15.0002H15.0004M25.0004 15.0002L8.33341 31.6668" stroke="#6941C6" stroke-width="3.33333" stroke-linecap="round" stroke-linejoin="round"/>
</svg>
