<svg width="40" height="40" viewBox="0 0 40 40" fill="none" xmlns="http://www.w3.org/2000/svg">
<path opacity="0.12" d="M28.3334 25.1506C26.1219 27.1299 23.2016 28.3334 20.0001 28.3334C16.7986 28.3334 13.8782 27.1299 11.6667 25.1506V36.6668L19.5049 33.5315C19.6878 33.4583 19.7793 33.4218 19.8737 33.4073C19.9575 33.3944 20.0427 33.3944 20.1264 33.4073C20.2209 33.4218 20.3123 33.4583 20.4953 33.5315L28.3334 36.6668V25.1506Z" fill="#6941C6"/>
<path d="M11.6667 25.1504V36.6667L19.5048 33.5314C19.6877 33.4582 19.7792 33.4216 19.8737 33.4072C19.9574 33.3943 20.0426 33.3943 20.1263 33.4072C20.2208 33.4216 20.3123 33.4582 20.4952 33.5314L28.3333 36.6667V25.1504M32.5 15.8333C32.5 22.7369 26.9036 28.3333 20 28.3333C13.0964 28.3333 7.5 22.7369 7.5 15.8333C7.5 8.92977 13.0964 3.33333 20 3.33333C26.9036 3.33333 32.5 8.92977 32.5 15.8333Z" stroke="#6941C6" stroke-width="3.33333" stroke-linecap="round" stroke-linejoin="round"/>
</svg>
