<svg width="40" height="40" viewBox="0 0 40 40" fill="none" xmlns="http://www.w3.org/2000/svg">
<path opacity="0.12" d="M29.151 15.7424C28.5561 13.5222 26.9679 11.6656 24.7358 10.5811C22.5037 9.4965 19.8105 9.27283 17.2487 9.95926C14.6869 10.6457 12.4663 12.186 11.0755 14.2413C9.68473 16.2966 9.2376 18.6986 9.83251 20.9188C10.8168 24.5922 10.6257 27.5229 10.0041 29.7498C9.29564 32.2879 8.94141 33.5569 9.03711 33.8117C9.1466 34.1033 9.22579 34.1833 9.51618 34.2958C9.77 34.3942 10.8363 34.1084 12.9689 33.537L32.744 28.2383C34.8765 27.6669 35.9428 27.3812 36.1135 27.1691C36.3087 26.9265 36.3373 26.8176 36.2863 26.5103C36.2418 26.2418 35.3005 25.3199 33.4179 23.4761C31.7661 21.8583 30.1353 19.4159 29.151 15.7424Z" fill="#6941C6"/>
<path d="M26.0766 30.0248C26.7913 32.6922 25.2084 35.4338 22.5411 36.1486C19.8737 36.8633 17.1321 35.2804 16.4173 32.613M3.42814 19.3557C2.77898 17.0254 3.45405 14.506 5.18139 12.8125M20.2439 9.56828C20.7509 8.65611 20.918 7.55361 20.6265 6.46595C20.0309 4.24318 17.7462 2.92408 15.5234 3.51967C13.3006 4.11526 11.9816 6.4 12.5771 8.62278C12.8686 9.71044 13.5645 10.5817 14.4596 11.1182M33.8651 11.2002C33.2622 8.85752 31.4178 7.01319 29.0751 6.41022M29.1511 15.7423C28.5562 13.5221 26.968 11.6655 24.7359 10.581C22.5038 9.4964 19.8106 9.27274 17.2488 9.95917C14.687 10.6456 12.4664 12.1859 11.0756 14.2412C9.68484 16.2965 9.23771 18.6985 9.83262 20.9187C10.8169 24.5921 10.6258 27.5228 10.0042 29.7497C9.29575 32.2878 8.94153 33.5568 9.03722 33.8116C9.14671 34.1032 9.22591 34.1832 9.51629 34.2957C9.77011 34.3941 10.8364 34.1083 12.969 33.5369L32.7441 28.2382C34.8767 27.6668 35.9429 27.3811 36.1136 27.169C36.3088 26.9264 36.3374 26.8175 36.2864 26.5102C36.2419 26.2417 35.3006 25.3198 33.418 23.476C31.7663 21.8582 30.1354 19.4158 29.1511 15.7423Z" stroke="#6941C6" stroke-width="3.33333" stroke-linecap="round" stroke-linejoin="round"/>
</svg>
