<svg width="40" height="40" viewBox="0 0 40 40" fill="none" xmlns="http://www.w3.org/2000/svg">
<path opacity="0.12" d="M29.9996 13.3333C29.9996 10.6811 28.9461 8.13761 27.0707 6.26225C25.1953 4.38688 22.6518 3.33331 19.9996 3.33331C17.3475 3.33331 14.8039 4.38688 12.9286 6.26225C11.0532 8.13761 9.99962 10.6811 9.99962 13.3333C9.99962 18.4836 8.70041 22.0099 7.24907 24.3423C6.02484 26.3098 5.41272 27.2935 5.43517 27.5679C5.46002 27.8718 5.52439 27.9876 5.76925 28.1693C5.99039 28.3333 6.98728 28.3333 8.98105 28.3333H31.0182C33.012 28.3333 34.0089 28.3333 34.23 28.1693C34.4749 27.9876 34.5392 27.8718 34.5641 27.5679C34.5865 27.2935 33.9744 26.3098 32.7502 24.3423C31.2988 22.0099 29.9996 18.4836 29.9996 13.3333Z" fill="#6941C6"/>
<path d="M15.5899 35C16.7651 36.0373 18.3089 36.6666 19.9996 36.6666C21.6904 36.6666 23.2341 36.0373 24.4093 35M29.9996 13.3333C29.9996 10.6811 28.9461 8.13761 27.0707 6.26225C25.1953 4.38688 22.6518 3.33331 19.9996 3.33331C17.3475 3.33331 14.8039 4.38688 12.9286 6.26225C11.0532 8.13761 9.99962 10.6811 9.99962 13.3333C9.99962 18.4836 8.70041 22.0099 7.24907 24.3423C6.02484 26.3098 5.41272 27.2935 5.43517 27.5679C5.46002 27.8718 5.52439 27.9876 5.76925 28.1693C5.99039 28.3333 6.98728 28.3333 8.98105 28.3333H31.0182C33.012 28.3333 34.0089 28.3333 34.23 28.1693C34.4749 27.9876 34.5392 27.8718 34.5641 27.5679C34.5865 27.2935 33.9744 26.3098 32.7502 24.3423C31.2988 22.0099 29.9996 18.4836 29.9996 13.3333Z" stroke="#6941C6" stroke-width="3.33333" stroke-linecap="round" stroke-linejoin="round"/>
</svg>
