<svg width="40" height="40" viewBox="0 0 40 40" fill="none" xmlns="http://www.w3.org/2000/svg">
<path opacity="0.12" d="M5 14.6667C5 11.8664 5 10.4663 5.54497 9.3967C6.02433 8.45589 6.78924 7.69099 7.73005 7.21162C8.79961 6.66666 10.1997 6.66666 13 6.66666H27C29.8003 6.66666 31.2004 6.66666 32.27 7.21162C33.2108 7.69099 33.9757 8.45589 34.455 9.3967C35 10.4663 35 11.8664 35 14.6667V16.6667H5V14.6667Z" fill="#6941C6"/>
<path d="M35 16.6667H5M26.6667 3.33334V10M13.3333 3.33334V10M17.5 23.3333L20 21.6667V30M17.9167 30H22.0833M13 36.6667H27C29.8003 36.6667 31.2004 36.6667 32.27 36.1217C33.2108 35.6423 33.9757 34.8774 34.455 33.9366C35 32.8671 35 31.4669 35 28.6667V14.6667C35 11.8664 35 10.4663 34.455 9.39672C33.9757 8.45591 33.2108 7.69101 32.27 7.21164C31.2004 6.66668 29.8003 6.66668 27 6.66668H13C10.1997 6.66668 8.79961 6.66668 7.73005 7.21164C6.78924 7.69101 6.02433 8.45591 5.54497 9.39672C5 10.4663 5 11.8664 5 14.6667V28.6667C5 31.4669 5 32.8671 5.54497 33.9366C6.02433 34.8774 6.78924 35.6423 7.73005 36.1217C8.79961 36.6667 10.1997 36.6667 13 36.6667Z" stroke="#6941C6" stroke-width="3.33333" stroke-linecap="round" stroke-linejoin="round"/>
</svg>
