<svg width="40" height="40" viewBox="0 0 40 40" fill="none" xmlns="http://www.w3.org/2000/svg">
<path opacity="0.12" d="M3.33325 13C3.33325 10.1997 3.33325 8.79961 3.87822 7.73005C4.35759 6.78924 5.12249 6.02433 6.0633 5.54497C7.13286 5 8.53299 5 11.3333 5H28.6666C31.4668 5 32.867 5 33.9365 5.54497C34.8773 6.02433 35.6423 6.78924 36.1216 7.73005C36.6666 8.79961 36.6666 10.1997 36.6666 13V13.3333H3.33325V13Z" fill="#6941C6"/>
<path d="M14.9999 5L13.3333 13.3333M26.6666 5L24.9999 13.3333M36.6666 13.3333H3.33325M11.3333 35H28.6666C31.4668 35 32.867 35 33.9365 34.455C34.8773 33.9757 35.6423 33.2108 36.1216 32.27C36.6666 31.2004 36.6666 29.8003 36.6666 27V13C36.6666 10.1997 36.6666 8.79961 36.1216 7.73005C35.6423 6.78924 34.8773 6.02433 33.9365 5.54497C32.867 5 31.4668 5 28.6666 5H11.3333C8.53299 5 7.13286 5 6.0633 5.54497C5.12249 6.02433 4.35759 6.78924 3.87822 7.73005C3.33325 8.79961 3.33325 10.1997 3.33325 13V27C3.33325 29.8003 3.33325 31.2004 3.87822 32.27C4.35759 33.2108 5.12249 33.9757 6.0633 34.455C7.13286 35 8.53299 35 11.3333 35Z" stroke="#6941C6" stroke-width="3.33333" stroke-linecap="round" stroke-linejoin="round"/>
</svg>
