<svg width="40" height="40" viewBox="0 0 40 40" fill="none" xmlns="http://www.w3.org/2000/svg">
<path opacity="0.12" d="M20.0002 36.6667C29.2049 36.6667 36.6668 29.2047 36.6668 20C36.6668 10.7953 29.2049 3.33333 20.0002 3.33333C10.7954 3.33333 3.3335 10.7953 3.3335 20C3.3335 29.2047 10.7954 36.6667 20.0002 36.6667Z" fill="#6941C6"/>
<path d="M23.3335 28.3333L28.3335 23.3333L23.3335 18.3333M16.6668 11.6667L11.6668 16.6667L16.6668 21.6667M36.6668 20C36.6668 29.2047 29.2049 36.6667 20.0002 36.6667C10.7954 36.6667 3.3335 29.2047 3.3335 20C3.3335 10.7953 10.7954 3.33333 20.0002 3.33333C29.2049 3.33333 36.6668 10.7953 36.6668 20Z" stroke="#6941C6" stroke-width="3.33333" stroke-linecap="round" stroke-linejoin="round"/>
</svg>
