<svg width="40" height="40" viewBox="0 0 40 40" fill="none" xmlns="http://www.w3.org/2000/svg">
<path opacity="0.12" d="M28.3333 36.6667C32.9357 36.6667 36.6667 32.9357 36.6667 28.3333C36.6667 23.731 32.9357 20 28.3333 20C23.731 20 20 23.731 20 28.3333C20 32.9357 23.731 36.6667 28.3333 36.6667Z" fill="#6941C6"/>
<path d="M19.9999 28.3333C19.9999 32.9357 23.7309 36.6667 28.3333 36.6667C32.9356 36.6667 36.6666 32.9357 36.6666 28.3333C36.6666 23.731 32.9356 20 28.3333 20C23.7309 20 19.9999 23.731 19.9999 28.3333ZM19.9999 28.3333C19.9999 26.457 20.6201 24.7254 21.6666 23.3325V8.33333M19.9999 28.3333C19.9999 29.7089 20.3332 31.0067 20.9235 32.1502C19.5194 33.3363 16.2763 34.1667 12.4999 34.1667C7.43731 34.1667 3.33325 32.6743 3.33325 30.8333V8.33333M21.6666 8.33333C21.6666 10.1743 17.5625 11.6667 12.4999 11.6667C7.43731 11.6667 3.33325 10.1743 3.33325 8.33333M21.6666 8.33333C21.6666 6.49238 17.5625 5 12.4999 5C7.43731 5 3.33325 6.49238 3.33325 8.33333M3.33325 23.3333C3.33325 25.1743 7.43731 26.6667 12.4999 26.6667C16.1483 26.6667 19.2988 25.8916 20.7743 24.7696M21.6666 15.8333C21.6666 17.6743 17.5625 19.1667 12.4999 19.1667C7.43731 19.1667 3.33325 17.6743 3.33325 15.8333" stroke="#6941C6" stroke-width="3.33333" stroke-linecap="round" stroke-linejoin="round"/>
</svg>
