<svg width="40" height="40" viewBox="0 0 40 40" fill="none" xmlns="http://www.w3.org/2000/svg">
<path opacity="0.12" d="M20 23.3333C25.5228 23.3333 30 18.8562 30 13.3333C30 7.8105 25.5228 3.33334 20 3.33334C14.4772 3.33334 10 7.8105 10 13.3333C10 18.8562 14.4772 23.3333 20 23.3333Z" fill="#6941C6"/>
<path d="M19.9999 34.1204C21.7691 35.7039 24.1054 36.6667 26.6666 36.6667C32.1894 36.6667 36.6666 32.1895 36.6666 26.6667C36.6666 22.0551 33.545 18.1727 29.2996 17.017M10.7002 17.0169C6.45481 18.1726 3.33325 22.0551 3.33325 26.6667C3.33325 32.1895 7.8104 36.6667 13.3333 36.6667C18.8561 36.6667 23.3333 32.1895 23.3333 26.6667C23.3333 25.3659 23.0849 24.123 22.633 22.9831M29.9999 13.3333C29.9999 18.8562 25.5228 23.3333 19.9999 23.3333C14.4771 23.3333 9.99992 18.8562 9.99992 13.3333C9.99992 7.8105 14.4771 3.33334 19.9999 3.33334C25.5228 3.33334 29.9999 7.8105 29.9999 13.3333Z" stroke="#6941C6" stroke-width="3.33333" stroke-linecap="round" stroke-linejoin="round"/>
</svg>
