<svg width="40" height="40" viewBox="0 0 40 40" fill="none" xmlns="http://www.w3.org/2000/svg">
<path opacity="0.12" d="M26.6668 20L20.0002 13.3333L13.3335 20L20.0002 26.6667L26.6668 20Z" fill="#6941C6"/>
<path d="M36.6668 20H33.3335M36.6668 20C36.6668 29.2047 29.2049 36.6667 20.0002 36.6667M36.6668 20C36.6668 10.7952 29.2049 3.33333 20.0002 3.33333M31.7853 31.7851L29.4283 29.4281M6.66683 20H3.3335M3.3335 20C3.3335 29.2047 10.7954 36.6667 20.0002 36.6667M3.3335 20C3.3335 10.7952 10.7954 3.33333 20.0002 3.33333M10.5721 10.5719L8.21505 8.21488M20.0002 6.66666V3.33333M29.4283 10.5719L31.7853 8.21488M20.0002 36.6667V33.3333M8.21505 31.7851L10.5721 29.4281M20.0002 13.3333L26.6668 20L20.0002 26.6667L13.3335 20L20.0002 13.3333Z" stroke="#6941C6" stroke-width="3.33333" stroke-linecap="round" stroke-linejoin="round"/>
</svg>
