<svg width="40" height="40" viewBox="0 0 40 40" fill="none" xmlns="http://www.w3.org/2000/svg">
<path opacity="0.12" d="M19.9999 29.1667C25.0625 29.1667 29.1666 25.0626 29.1666 20C29.1666 14.9374 25.0625 10.8333 19.9999 10.8333C14.9373 10.8333 10.8333 14.9374 10.8333 20C10.8333 25.0626 14.9373 29.1667 19.9999 29.1667Z" fill="#6941C6"/>
<path d="M29.7962 33.4836C26.9487 35.5524 23.5194 36.6667 19.9998 36.6667C16.4801 36.6667 13.0508 35.5524 10.2034 33.4836M27.306 5.0201C30.4694 6.56302 33.0632 9.06781 34.7156 12.1755C36.3679 15.2831 36.9941 18.8342 36.5042 22.3196M3.49547 22.3194C3.00563 18.834 3.63177 15.283 5.28414 12.1753C6.93652 9.06765 9.53031 6.56286 12.6938 5.01994M29.1664 20C29.1664 25.0626 25.0624 29.1667 19.9998 29.1667C14.9372 29.1667 10.8331 25.0626 10.8331 20C10.8331 14.9374 14.9372 10.8333 19.9998 10.8333C25.0624 10.8333 29.1664 14.9374 29.1664 20Z" stroke="#6941C6" stroke-width="3.33333" stroke-linecap="round" stroke-linejoin="round"/>
</svg>
