<svg width="40" height="40" viewBox="0 0 40 40" fill="none" xmlns="http://www.w3.org/2000/svg">
<path d="M16.25 34.5833L18.705 35.9471C19.1776 36.2097 19.414 36.341 19.6643 36.3925C19.8858 36.438 20.1142 36.438 20.3358 36.3925C20.586 36.341 20.8224 36.2097 21.2951 35.9471L23.75 34.5833M8.75 30.4166L6.37162 29.0953C5.87243 28.8179 5.62281 28.6793 5.44106 28.482C5.28026 28.3075 5.15858 28.1007 5.08414 27.8754C5 27.6208 5 27.3352 5 26.7642V24.1666M5 15.8333V13.2357C5 12.6646 5 12.3791 5.08414 12.1244C5.15858 11.8991 5.28026 11.6923 5.44106 11.5178C5.62281 11.3206 5.87242 11.1819 6.37162 10.9046L8.75 9.58325M16.25 5.41658L18.705 4.05272C19.1776 3.79012 19.414 3.65883 19.6643 3.60735C19.8858 3.56179 20.1142 3.56179 20.3358 3.60735C20.586 3.65883 20.8224 3.79012 21.2951 4.05272L23.75 5.41658M31.25 9.58325L33.6284 10.9046C34.1276 11.1819 34.3772 11.3206 34.5589 11.5178C34.7197 11.6923 34.8414 11.8991 34.9159 12.1244C35 12.3791 35 12.6646 35 13.2357V15.8332M35 24.1666V26.7642C35 27.3352 35 27.6208 34.9159 27.8754C34.8414 28.1007 34.7197 28.3075 34.5589 28.482C34.3772 28.6793 34.1276 28.8179 33.6284 29.0953L31.25 30.4166M16.25 17.9166L20 19.9999M20 19.9999L23.75 17.9166M20 19.9999V24.1666M5 11.6666L8.75 13.7499M31.25 13.7499L35 11.6666M20 32.4999V36.6666" stroke="#6941C6" stroke-width="3.33333" stroke-linecap="round" stroke-linejoin="round"/>
</svg>
