<svg width="40" height="40" viewBox="0 0 40 40" fill="none" xmlns="http://www.w3.org/2000/svg">
<path opacity="0.12" d="M19.9999 36.6666C29.2047 36.6666 36.6666 29.2047 36.6666 20C36.6666 10.7952 29.2047 3.33331 19.9999 3.33331C10.7952 3.33331 3.33325 10.7952 3.33325 20C3.33325 29.2047 10.7952 36.6666 19.9999 36.6666Z" fill="#6941C6"/>
<path d="M25.5555 13.7886C24.0812 12.469 22.1342 11.6666 19.9999 11.6666C15.3975 11.6666 11.6666 15.3976 11.6666 20C11.6666 24.6024 15.3975 28.3333 19.9999 28.3333C22.1342 28.3333 24.0812 27.5309 25.5555 26.2114M9.99992 22.5H18.3333M9.99992 17.5H18.3333M36.6666 20C36.6666 29.2047 29.2047 36.6666 19.9999 36.6666C10.7952 36.6666 3.33325 29.2047 3.33325 20C3.33325 10.7952 10.7952 3.33331 19.9999 3.33331C29.2047 3.33331 36.6666 10.7952 36.6666 20Z" stroke="#6941C6" stroke-width="3.33333" stroke-linecap="round" stroke-linejoin="round"/>
</svg>
