<svg width="40" height="40" viewBox="0 0 40 40" fill="none" xmlns="http://www.w3.org/2000/svg">
<path opacity="0.12" d="M19.9999 36.6667C29.2047 36.6667 36.6666 29.2047 36.6666 20C36.6666 10.7952 29.2047 3.33333 19.9999 3.33333C10.7952 3.33333 3.33325 10.7952 3.33325 20C3.33325 29.2047 10.7952 36.6667 19.9999 36.6667Z" fill="#6941C6"/>
<path d="M15.8333 12.5H22.9166C24.9877 12.5 26.6666 14.1789 26.6666 16.25C26.6666 18.3211 24.9877 20 22.9166 20H15.8333H23.7499C25.821 20 27.4999 21.6789 27.4999 23.75C27.4999 25.8211 25.821 27.5 23.7499 27.5H15.8333M15.8333 12.5H13.3333M15.8333 12.5V27.5M15.8333 27.5H13.3333M16.6666 10V12.5M16.6666 27.5V30M21.6666 10V12.5M21.6666 27.5V30M36.6666 20C36.6666 29.2047 29.2047 36.6667 19.9999 36.6667C10.7952 36.6667 3.33325 29.2047 3.33325 20C3.33325 10.7952 10.7952 3.33333 19.9999 3.33333C29.2047 3.33333 36.6666 10.7952 36.6666 20Z" stroke="#6941C6" stroke-width="3.33333" stroke-linecap="round" stroke-linejoin="round"/>
</svg>
