<svg width="40" height="40" viewBox="0 0 40 40" fill="none" xmlns="http://www.w3.org/2000/svg">
<g opacity="0.12">
<path d="M15.8335 17.1667C15.8335 16.7 15.8335 16.4666 15.9243 16.2884C16.0042 16.1315 16.1317 16.0041 16.2885 15.9242C16.4668 15.8333 16.7001 15.8333 17.1668 15.8333H22.8335C23.3002 15.8333 23.5336 15.8333 23.7118 15.9242C23.8686 16.0041 23.9961 16.1315 24.076 16.2884C24.1668 16.4666 24.1668 16.7 24.1668 17.1667V22.8333C24.1668 23.3001 24.1668 23.5334 24.076 23.7117C23.9961 23.8685 23.8686 23.996 23.7118 24.0758C23.5336 24.1667 23.3002 24.1667 22.8335 24.1667H17.1668C16.7001 24.1667 16.4668 24.1667 16.2885 24.0758C16.1317 23.996 16.0042 23.8685 15.9243 23.7117C15.8335 23.5334 15.8335 23.3001 15.8335 22.8333V17.1667Z" fill="#6941C6"/>
<path d="M28.3335 29.6667C28.3335 29.2 28.3335 28.9666 28.4243 28.7884C28.5042 28.6315 28.6317 28.5041 28.7885 28.4242C28.9668 28.3333 29.2001 28.3333 29.6668 28.3333H35.3335C35.8002 28.3333 36.0336 28.3333 36.2118 28.4242C36.3686 28.5041 36.4961 28.6315 36.576 28.7884C36.6668 28.9666 36.6668 29.2 36.6668 29.6667V35.3333C36.6668 35.8001 36.6668 36.0334 36.576 36.2117C36.4961 36.3685 36.3686 36.496 36.2118 36.5759C36.0336 36.6667 35.8002 36.6667 35.3335 36.6667H29.6668C29.2001 36.6667 28.9668 36.6667 28.7885 36.5759C28.6317 36.496 28.5042 36.3685 28.4243 36.2117C28.3335 36.0334 28.3335 35.8001 28.3335 35.3333V29.6667Z" fill="#6941C6"/>
<path d="M3.3335 4.66668C3.3335 4.19997 3.3335 3.96661 3.42432 3.78835C3.50422 3.63155 3.6317 3.50407 3.7885 3.42417C3.96676 3.33334 4.20012 3.33334 4.66683 3.33334H10.3335C10.8002 3.33334 11.0336 3.33334 11.2118 3.42417C11.3686 3.50407 11.4961 3.63155 11.576 3.78835C11.6668 3.96661 11.6668 4.19997 11.6668 4.66668V10.3333C11.6668 10.8001 11.6668 11.0334 11.576 11.2117C11.4961 11.3685 11.3686 11.496 11.2118 11.5758C11.0336 11.6667 10.8002 11.6667 10.3335 11.6667H4.66683C4.20012 11.6667 3.96676 11.6667 3.7885 11.5758C3.6317 11.496 3.50422 11.3685 3.42432 11.2117C3.3335 11.0334 3.3335 10.8001 3.3335 10.3333V4.66668Z" fill="#6941C6"/>
</g>
<path d="M18.3335 7.50001H30.5002C32.367 7.50001 33.3004 7.50001 34.0135 7.86332C34.6407 8.1829 35.1506 8.69284 35.4702 9.32004C35.8335 10.0331 35.8335 10.9665 35.8335 12.8333V15C35.8335 16.5531 35.8335 17.3297 35.5798 17.9423C35.2415 18.7591 34.5925 19.408 33.7758 19.7463C33.1632 20 32.3866 20 30.8335 20M21.6668 32.5H9.50016C7.63332 32.5 6.6999 32.5 5.98686 32.1367C5.35965 31.8171 4.84972 31.3072 4.53014 30.68C4.16683 29.9669 4.16683 29.0335 4.16683 27.1667V25C4.16683 23.4469 4.16683 22.6703 4.42056 22.0577C4.75888 21.241 5.40779 20.5921 6.22455 20.2537C6.83712 20 7.61369 20 9.16683 20M17.1668 24.1667H22.8335C23.3002 24.1667 23.5336 24.1667 23.7118 24.0758C23.8686 23.996 23.9961 23.8685 24.076 23.7117C24.1668 23.5334 24.1668 23.3001 24.1668 22.8333V17.1667C24.1668 16.7 24.1668 16.4666 24.076 16.2884C23.9961 16.1315 23.8686 16.0041 23.7118 15.9242C23.5336 15.8333 23.3002 15.8333 22.8335 15.8333H17.1668C16.7001 15.8333 16.4668 15.8333 16.2885 15.9242C16.1317 16.0041 16.0042 16.1315 15.9243 16.2884C15.8335 16.4666 15.8335 16.7 15.8335 17.1667V22.8333C15.8335 23.3001 15.8335 23.5334 15.9243 23.7117C16.0042 23.8685 16.1317 23.996 16.2885 24.0758C16.4668 24.1667 16.7001 24.1667 17.1668 24.1667ZM29.6668 36.6667H35.3335C35.8002 36.6667 36.0336 36.6667 36.2118 36.5759C36.3686 36.496 36.4961 36.3685 36.576 36.2117C36.6668 36.0334 36.6668 35.8001 36.6668 35.3333V29.6667C36.6668 29.2 36.6668 28.9666 36.576 28.7884C36.4961 28.6316 36.3686 28.5041 36.2118 28.4242C36.0336 28.3333 35.8002 28.3333 35.3335 28.3333H29.6668C29.2001 28.3333 28.9668 28.3333 28.7885 28.4242C28.6317 28.5041 28.5042 28.6316 28.4243 28.7884C28.3335 28.9666 28.3335 29.2 28.3335 29.6667V35.3333C28.3335 35.8001 28.3335 36.0334 28.4243 36.2117C28.5042 36.3685 28.6317 36.496 28.7885 36.5759C28.9668 36.6667 29.2001 36.6667 29.6668 36.6667ZM4.66683 11.6667H10.3335C10.8002 11.6667 11.0336 11.6667 11.2118 11.5758C11.3686 11.496 11.4961 11.3685 11.576 11.2117C11.6668 11.0334 11.6668 10.8001 11.6668 10.3333V4.66668C11.6668 4.19997 11.6668 3.96661 11.576 3.78835C11.4961 3.63155 11.3686 3.50407 11.2118 3.42417C11.0336 3.33334 10.8002 3.33334 10.3335 3.33334H4.66683C4.20012 3.33334 3.96676 3.33334 3.7885 3.42417C3.6317 3.50407 3.50422 3.63155 3.42432 3.78835C3.3335 3.96661 3.3335 4.19997 3.3335 4.66668V10.3333C3.3335 10.8001 3.3335 11.0334 3.42432 11.2117C3.50422 11.3685 3.6317 11.496 3.7885 11.5758C3.96676 11.6667 4.20012 11.6667 4.66683 11.6667Z" stroke="#6941C6" stroke-width="3.33333" stroke-linecap="round" stroke-linejoin="round"/>
</svg>
