<svg width="40" height="40" viewBox="0 0 40 40" fill="none" xmlns="http://www.w3.org/2000/svg">
<g opacity="0.12">
<path d="M19.9999 34.1667L13.3333 15H26.6666L19.9999 34.1667Z" fill="#6941C6"/>
<path d="M16.6666 5H11.6666L3.33325 15L13.3333 15L16.6666 5Z" fill="#6941C6"/>
<path d="M23.3333 5H28.3333L36.6666 15L26.6666 15L23.3333 5Z" fill="#6941C6"/>
</g>
<path d="M4.16663 15H35.8333M16.6666 5L13.3333 15L20 34.1667L26.6666 15L23.3333 5M21.0243 33.7708L35.9553 15.8536C36.2084 15.5499 36.3349 15.3981 36.3832 15.2286C36.4259 15.0792 36.4259 14.9208 36.3832 14.7714C36.3349 14.6019 36.2084 14.4501 35.9553 14.1464L28.7331 5.47975C28.5861 5.30341 28.5127 5.21523 28.4226 5.15184C28.3428 5.09568 28.2537 5.05397 28.1595 5.02862C28.0531 5 27.9383 5 27.7088 5H12.2911C12.0616 5 11.9468 5 11.8404 5.02862C11.7462 5.05397 11.6571 5.09568 11.5773 5.15184C11.4873 5.21523 11.4138 5.30341 11.2668 5.47975L4.04461 14.1464C3.79156 14.4501 3.66504 14.6019 3.61669 14.7714C3.57406 14.9208 3.57406 15.0792 3.61669 15.2286C3.66504 15.3981 3.79156 15.5499 4.04461 15.8536L18.9757 33.7708C19.3274 34.193 19.5033 34.404 19.7139 34.481C19.8986 34.5485 20.1013 34.5485 20.286 34.481C20.4966 34.404 20.6725 34.193 21.0243 33.7708Z" stroke="#6941C6" stroke-width="3.33333" stroke-linecap="round" stroke-linejoin="round"/>
</svg>
