<svg width="40" height="40" viewBox="0 0 40 40" fill="none" xmlns="http://www.w3.org/2000/svg">
<path opacity="0.12" d="M15.8333 5C8.92969 5 3.33325 10.5964 3.33325 17.5C3.33325 20.9435 4.72566 24.0618 6.97817 26.3226L13.3333 26.6667V28.3333L19.9999 35L26.6666 28.3707V27.5045L33.3333 27.9047C35.3691 26.2234 36.6666 23.6799 36.6666 20.8333C36.6666 15.7707 32.5625 11.6667 27.4999 11.6667C27.2989 11.6667 27.0994 11.6731 26.9016 11.6859C24.8091 7.71056 20.6377 5 15.8333 5Z" fill="#6941C6"/>
<path d="M13.3333 28.3333L19.9999 35M19.9999 35L26.6666 28.3333M19.9999 35V20M33.3333 27.9047C35.3691 26.2234 36.6666 23.6799 36.6666 20.8333C36.6666 15.7707 32.5625 11.6667 27.4999 11.6667C27.1357 11.6667 26.795 11.4767 26.6101 11.1629C24.4367 7.47473 20.424 5 15.8333 5C8.92969 5 3.33325 10.5964 3.33325 17.5C3.33325 20.9435 4.72566 24.0618 6.97817 26.3226" stroke="#6941C6" stroke-width="3.33333" stroke-linecap="round" stroke-linejoin="round"/>
</svg>
