<svg width="40" height="40" viewBox="0 0 40 40" fill="none" xmlns="http://www.w3.org/2000/svg">
<path opacity="0.12" d="M19.9999 36.6666C29.2047 36.6666 36.6666 29.2047 36.6666 20C36.6666 10.7952 29.2047 3.33331 19.9999 3.33331C10.7952 3.33331 3.33325 10.7952 3.33325 20C3.33325 29.2047 10.7952 36.6666 19.9999 36.6666Z" fill="#6941C6"/>
<path d="M13.3333 19.9999L19.9999 26.6665M19.9999 26.6665L26.6666 19.9999M19.9999 26.6665V11.3332C19.9999 9.01537 19.9999 7.85644 19.0824 6.55887C18.4728 5.69674 16.7176 4.63268 15.6712 4.49091C14.0964 4.27755 13.4984 4.58951 12.3023 5.21345C6.97214 7.99393 3.33325 13.572 3.33325 19.9999C3.33325 29.2046 10.7952 36.6665 19.9999 36.6665C29.2047 36.6665 36.6666 29.2046 36.6666 19.9999C36.6666 13.8309 33.3149 8.44466 28.3333 5.56292" stroke="#6941C6" stroke-width="3.33333" stroke-linecap="round" stroke-linejoin="round"/>
</svg>
