<svg width="40" height="40" viewBox="0 0 40 40" fill="none" xmlns="http://www.w3.org/2000/svg">
<path opacity="0.12" d="M11.6667 26.2996C15.3333 26.2996 18.3333 23.2496 18.3333 19.5496C18.3333 17.6163 17.3833 15.783 15.4833 14.233C13.5833 12.683 12.15 10.383 11.6667 7.96631C11.1833 10.383 9.76667 12.6996 7.85 14.233C5.93333 15.7663 5 17.633 5 19.5496C5 23.2496 8 26.2996 11.6667 26.2996Z" fill="#6941C6"/>
<path d="M20.9333 10.1333C22.0796 8.30186 22.8922 6.28173 23.3333 4.16666C24.1667 8.33332 26.6667 12.3333 30 15C33.3333 17.6667 35 20.8333 35 24.1667C35.0095 26.4705 34.3348 28.7252 33.0613 30.6451C31.7879 32.565 29.973 34.0636 27.8469 34.9508C25.7207 35.838 23.379 36.074 21.1186 35.6288C18.8582 35.1836 16.7809 34.0772 15.15 32.45M11.6667 26.3C15.3333 26.3 18.3333 23.25 18.3333 19.55C18.3333 17.6167 17.3833 15.7833 15.4833 14.2333C13.5833 12.6833 12.15 10.3833 11.6667 7.96666C11.1833 10.3833 9.76667 12.7 7.85 14.2333C5.93333 15.7667 5 17.6333 5 19.55C5 23.25 8 26.3 11.6667 26.3Z" stroke="#6941C6" stroke-width="3.33333" stroke-linecap="round" stroke-linejoin="round"/>
</svg>
