<svg width="40" height="40" viewBox="0 0 40 40" fill="none" xmlns="http://www.w3.org/2000/svg">
<path opacity="0.12" d="M5 30.5424C5 29.7271 5 29.3195 5.0921 28.9359C5.17376 28.5957 5.30844 28.2706 5.4912 27.9724C5.69734 27.636 5.98559 27.3477 6.5621 26.7712L27.5 5.8333C28.8808 4.45259 31.1193 4.45259 32.5 5.8333C33.8808 7.21402 33.8808 9.45259 32.5 10.8333L11.5621 31.7712C10.9856 32.3477 10.6974 32.636 10.361 32.8421C10.0628 33.0249 9.73761 33.1596 9.39748 33.2412C9.01386 33.3333 8.60621 33.3333 7.79091 33.3333H5V30.5424Z" fill="#6941C6"/>
<path d="M35 30L33.3331 31.8234C32.4491 32.7902 31.2502 33.3333 30.0002 33.3333C28.7502 33.3333 27.5513 32.7902 26.6673 31.8234C25.782 30.8585 24.5833 30.3168 23.3336 30.3168C22.084 30.3168 20.8852 30.8585 20 31.8234M5 33.3333H7.79091C8.60621 33.3333 9.01386 33.3333 9.39748 33.2412C9.73761 33.1596 10.0628 33.0249 10.361 32.8421C10.6974 32.636 10.9856 32.3477 11.5621 31.7712L32.5 10.8333C33.8808 9.45259 33.8808 7.21402 32.5 5.8333C31.1193 4.45259 28.8808 4.45259 27.5 5.8333L6.5621 26.7712C5.98559 27.3477 5.69734 27.636 5.4912 27.9724C5.30844 28.2706 5.17376 28.5957 5.0921 28.9359C5 29.3195 5 29.7271 5 30.5424V33.3333Z" stroke="#6941C6" stroke-width="3.33333" stroke-linecap="round" stroke-linejoin="round"/>
</svg>
