<svg width="40" height="40" viewBox="0 0 40 40" fill="none" xmlns="http://www.w3.org/2000/svg">
<path opacity="0.12" d="M20.0002 36.6666C29.2049 36.6666 36.6668 29.2047 36.6668 20C36.6668 10.7952 29.2049 3.33331 20.0002 3.33331C10.7954 3.33331 3.3335 10.7952 3.3335 20C3.3335 29.2047 10.7954 36.6666 20.0002 36.6666Z" fill="#6941C6"/>
<path d="M13.3335 23.3333C13.3335 23.3333 15.8335 26.6666 20.0002 26.6666C24.1668 26.6666 26.6668 23.3333 26.6668 23.3333M25.0002 15H25.0168M13.3335 15H16.6668M36.6668 20C36.6668 29.2047 29.2049 36.6666 20.0002 36.6666C10.7954 36.6666 3.3335 29.2047 3.3335 20C3.3335 10.7952 10.7954 3.33331 20.0002 3.33331C29.2049 3.33331 36.6668 10.7952 36.6668 20ZM25.8335 15C25.8335 15.4602 25.4604 15.8333 25.0002 15.8333C24.5399 15.8333 24.1668 15.4602 24.1668 15C24.1668 14.5397 24.5399 14.1666 25.0002 14.1666C25.4604 14.1666 25.8335 14.5397 25.8335 15Z" stroke="#6941C6" stroke-width="3.33333" stroke-linecap="round" stroke-linejoin="round"/>
</svg>
