<svg width="40" height="40" viewBox="0 0 40 40" fill="none" xmlns="http://www.w3.org/2000/svg">
<path opacity="0.12" d="M20.0002 36.6667C29.2049 36.6667 36.6668 29.2047 36.6668 20C36.6668 10.7952 29.2049 3.33333 20.0002 3.33333C10.7954 3.33333 3.3335 10.7952 3.3335 20C3.3335 29.2047 10.7954 36.6667 20.0002 36.6667Z" fill="#6941C6"/>
<path d="M13.3335 23.3333C13.3335 23.3333 15.8335 26.6667 20.0002 26.6667C24.1668 26.6667 26.6668 23.3333 26.6668 23.3333M25.0002 15H25.0168M15.0002 15H15.0168M36.6668 20C36.6668 29.2047 29.2049 36.6667 20.0002 36.6667C10.7954 36.6667 3.3335 29.2047 3.3335 20C3.3335 10.7952 10.7954 3.33333 20.0002 3.33333C29.2049 3.33333 36.6668 10.7952 36.6668 20ZM25.8335 15C25.8335 15.4602 25.4604 15.8333 25.0002 15.8333C24.5399 15.8333 24.1668 15.4602 24.1668 15C24.1668 14.5398 24.5399 14.1667 25.0002 14.1667C25.4604 14.1667 25.8335 14.5398 25.8335 15ZM15.8335 15C15.8335 15.4602 15.4604 15.8333 15.0002 15.8333C14.5399 15.8333 14.1668 15.4602 14.1668 15C14.1668 14.5398 14.5399 14.1667 15.0002 14.1667C15.4604 14.1667 15.8335 14.5398 15.8335 15Z" stroke="#6941C6" stroke-width="3.33333" stroke-linecap="round" stroke-linejoin="round"/>
</svg>
