<svg width="40" height="40" viewBox="0 0 40 40" fill="none" xmlns="http://www.w3.org/2000/svg">
<g opacity="0.12">
<path d="M8.33325 8.33333C8.33325 5.11167 10.9449 2.5 14.1666 2.5H19.9999V14.1667H14.1666C10.9449 14.1667 8.33325 11.555 8.33325 8.33333Z" fill="#6941C6"/>
<path d="M8.33325 31.6667C8.33325 28.445 10.9449 25.8333 14.1666 25.8333H19.9999V31.6667C19.9999 34.8883 17.3882 37.5 14.1666 37.5C10.9449 37.5 8.33325 34.8883 8.33325 31.6667Z" fill="#6941C6"/>
<path d="M19.9999 20C19.9999 16.7783 22.6116 14.1667 25.8333 14.1667C29.0549 14.1667 31.6666 16.7783 31.6666 20C31.6666 23.2217 29.0549 25.8333 25.8333 25.8333C22.6116 25.8333 19.9999 23.2217 19.9999 20Z" fill="#6941C6"/>
</g>
<path d="M19.9999 2.5H14.1666C10.9449 2.5 8.33325 5.11167 8.33325 8.33333C8.33325 11.555 10.9449 14.1667 14.1666 14.1667M19.9999 2.5V14.1667M19.9999 2.5H25.8333C29.0549 2.5 31.6666 5.11167 31.6666 8.33333C31.6666 11.555 29.0549 14.1667 25.8333 14.1667M19.9999 14.1667H14.1666M19.9999 14.1667V25.8333M19.9999 14.1667H25.8333M14.1666 14.1667C10.9449 14.1667 8.33325 16.7783 8.33325 20C8.33325 23.2217 10.9449 25.8333 14.1666 25.8333M19.9999 25.8333H14.1666M19.9999 25.8333V31.6667C19.9999 34.8883 17.3882 37.5 14.1666 37.5C10.9449 37.5 8.33325 34.8883 8.33325 31.6667C8.33325 28.445 10.9449 25.8333 14.1666 25.8333M25.8333 14.1667C29.0549 14.1667 31.6666 16.7783 31.6666 20C31.6666 23.2217 29.0549 25.8333 25.8333 25.8333C22.6116 25.8333 19.9999 23.2217 19.9999 20C19.9999 16.7783 22.6116 14.1667 25.8333 14.1667Z" stroke="#6941C6" stroke-width="3.33333" stroke-linecap="round" stroke-linejoin="round"/>
</svg>
