<svg width="40" height="40" viewBox="0 0 40 40" fill="none" xmlns="http://www.w3.org/2000/svg">
<g opacity="0.12">
<path d="M28.6666 3.33331C31.4669 3.33331 32.867 3.33331 33.9365 3.87828C34.8774 4.35765 35.6423 5.12255 36.1216 6.06336C36.6666 7.13292 36.6666 8.53305 36.6666 11.3333V11.6666L3.33325 11.6666L3.33325 11.3333C3.33325 8.53305 3.33325 7.13292 3.87822 6.06336C4.35759 5.12255 5.12249 4.35765 6.0633 3.87828C7.13286 3.33331 8.53299 3.33331 11.3333 3.33331L28.6666 3.33331Z" fill="#6941C6"/>
<path d="M28.6666 36.6666C31.4668 36.6666 32.867 36.6666 33.9365 36.1217C34.8773 35.6423 35.6423 34.8774 36.1216 33.9366C36.6666 32.867 36.6666 31.4669 36.6666 28.6666V28.3333H3.33325L3.33325 28.6666C3.33325 31.4669 3.33325 32.867 3.87822 33.9366C4.35759 34.8774 5.12249 35.6423 6.0633 36.1217C7.13286 36.6666 8.53299 36.6666 11.3333 36.6666H28.6666Z" fill="#6941C6"/>
</g>
<path d="M19.9999 36.6666V3.33331M11.6666 36.6666V28.3333M11.6666 11.6666V3.33331M28.3333 36.6666V28.3333M28.3333 11.6666V3.33331M3.33325 11.6666H36.6666M3.33325 28.3333H36.6666M36.6666 28.6666V11.3333C36.6666 8.53305 36.6666 7.13292 36.1216 6.06336C35.6423 5.12255 34.8773 4.35765 33.9365 3.87828C32.867 3.33331 31.4668 3.33331 28.6666 3.33331L11.3333 3.33331C8.53299 3.33331 7.13286 3.33331 6.0633 3.87828C5.12249 4.35765 4.35759 5.12255 3.87822 6.06336C3.33325 7.13292 3.33325 8.53305 3.33325 11.3333L3.33325 28.6666C3.33325 31.4669 3.33325 32.867 3.87822 33.9366C4.35759 34.8774 5.12249 35.6423 6.0633 36.1217C7.13286 36.6666 8.53299 36.6666 11.3333 36.6666H28.6666C31.4668 36.6666 32.867 36.6666 33.9365 36.1217C34.8773 35.6423 35.6423 34.8774 36.1216 33.9366C36.6666 32.867 36.6666 31.4669 36.6666 28.6666Z" stroke="#6941C6" stroke-width="3.33333" stroke-linecap="round" stroke-linejoin="round"/>
</svg>
