<svg width="40" height="40" viewBox="0 0 40 40" fill="none" xmlns="http://www.w3.org/2000/svg">
<path d="M3.33325 7.66667C3.33325 6.73325 3.33325 6.26654 3.51491 5.91002C3.6747 5.59641 3.92966 5.34144 4.24327 5.18166C4.59979 5 5.0665 5 5.99992 5H33.9999C34.9333 5 35.4001 5 35.7566 5.18166C36.0702 5.34144 36.3251 5.59641 36.4849 5.91002C36.6666 6.26654 36.6666 6.73325 36.6666 7.66667V8.78232C36.6666 9.23032 36.6666 9.45432 36.6118 9.6626C36.5633 9.84718 36.4835 10.0221 36.3758 10.1796C36.2542 10.3574 36.0849 10.5041 35.7464 10.7975L25.0868 20.0358C24.7482 20.3292 24.579 20.4759 24.4574 20.6537C24.3497 20.8113 24.2698 20.9862 24.2213 21.1707C24.1666 21.379 24.1666 21.603 24.1666 22.051V30.764C24.1666 31.0899 24.1666 31.2529 24.114 31.3938C24.0676 31.5183 23.992 31.6299 23.8937 31.7192C23.7824 31.8204 23.6311 31.8809 23.3284 32.0019L17.6618 34.2686C17.0492 34.5136 16.7429 34.6361 16.497 34.585C16.282 34.5404 16.0933 34.4126 15.972 34.2296C15.8333 34.0203 15.8333 33.6904 15.8333 33.0306V22.051C15.8333 21.603 15.8333 21.379 15.7785 21.1707C15.73 20.9862 15.6501 20.8113 15.5424 20.6537C15.4209 20.4759 15.2516 20.3292 14.9131 20.0358L4.25344 10.7975C3.91489 10.5041 3.74562 10.3574 3.62407 10.1796C3.51636 10.0221 3.43651 9.84718 3.388 9.6626C3.33325 9.45432 3.33325 9.23032 3.33325 8.78232V7.66667Z" stroke="#6941C6" stroke-width="3.33333" stroke-linecap="round" stroke-linejoin="round"/>
</svg>
