<svg width="40" height="40" viewBox="0 0 40 40" fill="none" xmlns="http://www.w3.org/2000/svg">
<path opacity="0.12" d="M20 30C25.5228 30 30 25.5228 30 20C30 14.4772 25.5228 10 20 10C14.4772 10 10 14.4772 10 20C10 25.5228 14.4772 30 20 30Z" fill="#6941C6"/>
<path d="M11.5303 5.64276C14.0123 4.17542 16.9078 3.33334 19.9999 3.33334C29.2047 3.33334 36.6666 10.7953 36.6666 20C36.6666 20.0552 36.6663 20.1104 36.6658 20.1655M5.63515 11.5431C4.17245 14.0223 3.33325 16.9131 3.33325 20C3.33325 27.766 8.64481 34.2914 15.8333 36.1416M34.5127 28.201C32.312 32.087 28.5955 35.0017 24.1666 36.1416M23.4821 10.623C22.3977 10.2201 21.2245 10 19.9999 10C14.4771 10 9.99992 14.4772 9.99992 20C9.99992 21.2313 10.2224 22.4105 10.6295 23.4998M29.3751 16.5128C29.7791 17.5986 29.9999 18.7735 29.9999 20C29.9999 25.5229 25.5228 30 19.9999 30C18.7835 30 17.6178 29.7828 16.5395 29.3851M19.9999 16.6667V23.3333" stroke="#6941C6" stroke-width="3.33333" stroke-linecap="round" stroke-linejoin="round"/>
</svg>
