<svg width="40" height="40" viewBox="0 0 40 40" fill="none" xmlns="http://www.w3.org/2000/svg">
<path opacity="0.12" d="M17.5 30C24.4036 30 30 24.4036 30 17.5C30 10.5964 24.4036 5 17.5 5C10.5964 5 5 10.5964 5 17.5C5 24.4036 10.5964 30 17.5 30Z" fill="#6941C6"/>
<path d="M31.0528 3.94714C38.5379 11.4322 38.5379 23.5679 31.0528 31.0529C23.8848 38.221 12.4516 38.5245 4.92233 31.9636C4.59398 31.6775 4.4298 31.5344 4.35569 31.3388C4.29333 31.1742 4.28635 30.9708 4.33727 30.8024C4.3978 30.6022 4.56183 30.4381 4.88988 30.1101L8.58196 26.418M30 17.5C30 24.4036 24.4035 30 17.5 30C10.5964 30 4.99995 24.4036 4.99995 17.5C4.99995 10.5965 10.5964 5.00002 17.5 5.00002C24.4035 5.00002 30 10.5965 30 17.5Z" stroke="#6941C6" stroke-width="3.33333" stroke-linecap="round" stroke-linejoin="round"/>
</svg>
