<svg width="40" height="40" viewBox="0 0 40 40" fill="none" xmlns="http://www.w3.org/2000/svg">
<g opacity="0.12">
<path d="M28.3335 20C31.6668 16.6667 35.0002 13.6819 35.0002 10C35.0002 6.3181 32.0154 3.33333 28.3335 3.33333C24.6516 3.33333 21.6668 6.3181 21.6668 10C21.6668 13.6819 25.0002 16.6667 28.3335 20Z" fill="#6941C6"/>
<path d="M17.5003 36.4805L17.5004 32.8082C17.5004 32.6093 17.5716 32.417 17.701 32.266L21.844 27.4324C22.1845 27.0351 22.079 26.4261 21.6248 26.1665L16.8644 23.4463C16.735 23.3724 16.6279 23.2651 16.5541 23.1357L13.4509 17.6977C13.2894 17.4147 12.9778 17.2518 12.6532 17.2807L3.44047 18.1013C3.3698 18.7244 3.3335 19.358 3.3335 20C3.3335 28.3551 9.48144 35.2743 17.5003 36.4805Z" fill="#6941C6"/>
</g>
<path d="M25.0002 4.09633C23.4218 3.60058 21.7422 3.33333 20.0002 3.33333C10.7954 3.33333 3.3335 10.7952 3.3335 20C3.3335 29.2047 10.7954 36.6667 20.0002 36.6667C29.2049 36.6667 36.6668 29.2047 36.6668 20C36.6668 17.1411 35.947 14.4504 34.6787 12.0991M28.3335 9.58333H28.3418M17.5003 36.4804L17.5004 32.8082C17.5004 32.6093 17.5716 32.417 17.701 32.2659L21.844 27.4323C22.1845 27.0351 22.079 26.4261 21.6248 26.1665L16.8644 23.4462C16.735 23.3723 16.6279 23.2651 16.5541 23.1357L13.4509 17.6977C13.2894 17.4147 12.9778 17.2518 12.6532 17.2807L3.44047 18.1012M35.0002 10C35.0002 13.6819 31.6668 16.6667 28.3335 20C25.0002 16.6667 21.6668 13.6819 21.6668 10C21.6668 6.3181 24.6516 3.33333 28.3335 3.33333C32.0154 3.33333 35.0002 6.3181 35.0002 10ZM28.7502 9.58333C28.7502 9.81345 28.5636 10 28.3335 10C28.1034 10 27.9168 9.81345 27.9168 9.58333C27.9168 9.35321 28.1034 9.16666 28.3335 9.16666C28.5636 9.16666 28.7502 9.35321 28.7502 9.58333Z" stroke="#6941C6" stroke-width="3.33333" stroke-linecap="round" stroke-linejoin="round"/>
</svg>
