<svg width="40" height="40" viewBox="0 0 40 40" fill="none" xmlns="http://www.w3.org/2000/svg">
<path opacity="0.12" d="M25.0562 6.66669H14.9447C13.1499 6.66669 12.2525 6.66669 11.4603 6.93996C10.7596 7.18162 10.1215 7.57601 9.59202 8.0946C8.99328 8.68102 8.59195 9.48367 7.7893 11.089L4.17836 18.3109L4.17835 18.3109C3.86337 18.9408 3.70588 19.2558 3.59481 19.5859C3.54895 19.7222 3.50901 19.8604 3.4751 20H36.5258C36.4919 19.8604 36.4519 19.7222 36.4061 19.5859C36.295 19.2558 36.1375 18.9408 35.8225 18.3109L32.2116 11.089L32.2115 11.0889C31.4089 9.48365 31.0076 8.681 30.4089 8.0946C29.8794 7.57601 29.2413 7.18162 28.5406 6.93996C27.7484 6.66669 26.851 6.66669 25.0562 6.66669Z" fill="#6941C6"/>
<path d="M4.16683 20H35.8335M10.0002 26.6667H16.6668M14.9444 6.66669H25.0559C26.8507 6.66669 27.7481 6.66669 28.5403 6.93996C29.241 7.18162 29.8791 7.57601 30.4086 8.0946C31.0073 8.68101 31.4087 9.48369 32.2113 11.089L35.8222 18.3109C36.1372 18.9408 36.2947 19.2558 36.4058 19.5859C36.5044 19.8791 36.5757 20.1808 36.6185 20.4871C36.6668 20.8321 36.6668 21.1842 36.6668 21.8886V25.3334C36.6668 28.1336 36.6668 29.5337 36.1219 30.6033C35.6425 31.5441 34.8776 32.309 33.9368 32.7884C32.8672 33.3334 31.4671 33.3334 28.6668 33.3334H11.3335C8.53323 33.3334 7.1331 33.3334 6.06354 32.7884C5.12273 32.309 4.35783 31.5441 3.87846 30.6033C3.3335 29.5337 3.3335 28.1336 3.3335 25.3334V21.8886C3.3335 21.1842 3.3335 20.8321 3.38179 20.4871C3.42467 20.1808 3.49589 19.8791 3.59453 19.5859C3.7056 19.2558 3.86309 18.9408 4.17808 18.3109L7.78902 11.089C8.59167 9.48367 8.993 8.68102 9.59174 8.0946C10.1212 7.57601 10.7594 7.18162 11.46 6.93996C12.2523 6.66669 13.1496 6.66669 14.9444 6.66669Z" stroke="#6941C6" stroke-width="3.33333" stroke-linecap="round" stroke-linejoin="round"/>
</svg>
