<svg width="40" height="40" viewBox="0 0 40 40" fill="none" xmlns="http://www.w3.org/2000/svg">
<path opacity="0.12" fill-rule="evenodd" clip-rule="evenodd" d="M28.6525 5.98709C27.6578 3.90566 25.3645 2.80298 23.1343 3.86729C20.9041 4.9316 19.9539 7.45563 20.8877 9.67138C21.8214 11.8871 25.5731 17.4798 25.5731 17.4798C25.5731 17.4798 31.6184 14.5122 33.5349 13.0602C35.4515 11.6082 35.9262 8.93929 34.4914 6.9104C33.0565 4.88151 30.5547 4.68187 28.6525 5.98709Z" fill="#6941C6"/>
<path d="M10.0002 33.4786H14.3506C14.9179 33.4786 15.4816 33.5461 16.0315 33.6811L20.6283 34.7982C21.6257 35.0412 22.6648 35.0648 23.6726 34.8691L28.7551 33.8802C30.0977 33.6187 31.3328 32.9758 32.3007 32.0342L35.8966 28.5362C36.9236 27.539 36.9236 25.9208 35.8966 24.9218C34.9721 24.0224 33.508 23.9212 32.4621 24.6839L28.2712 27.7415C27.671 28.1802 26.9407 28.4164 26.1896 28.4164H22.1427L24.7186 28.4163C26.1705 28.4163 27.3466 27.2723 27.3466 25.8599V25.3486C27.3466 24.1759 26.5261 23.1533 25.357 22.8698L21.3812 21.903C20.7341 21.746 20.0715 21.6667 19.4054 21.6667C17.7974 21.6667 14.8867 22.9981 14.8867 22.9981L10.0002 25.0415M3.3335 24.3334L3.3335 34C3.3335 34.9335 3.3335 35.4002 3.51515 35.7567C3.67494 36.0703 3.92991 36.3253 4.24351 36.4851C4.60003 36.6667 5.06674 36.6667 6.00016 36.6667H7.3335C8.26692 36.6667 8.73363 36.6667 9.09015 36.4851C9.40375 36.3253 9.65872 36.0703 9.81851 35.7567C10.0002 35.4002 10.0002 34.9335 10.0002 34V24.3334C10.0002 23.4 10.0002 22.9333 9.81851 22.5767C9.65872 22.2631 9.40375 22.0082 9.09015 21.8484C8.73363 21.6667 8.26692 21.6667 7.3335 21.6667H6.00016C5.06674 21.6667 4.60003 21.6667 4.24351 21.8484C3.92991 22.0082 3.67494 22.2631 3.51515 22.5767C3.3335 22.9333 3.3335 23.4 3.3335 24.3334ZM28.6524 5.98714C27.6578 3.90571 25.3645 2.80302 23.1342 3.86734C20.904 4.93165 19.9538 7.45568 20.8876 9.67143C21.4647 11.0408 23.1181 13.7001 24.297 15.5318C24.7326 16.2086 24.9504 16.547 25.2685 16.7449C25.5414 16.9147 25.8829 17.0063 26.2041 16.9956C26.5786 16.9833 26.9364 16.7991 27.6521 16.4308C29.5889 15.4339 32.3504 13.9576 33.5349 13.0603C35.4514 11.6082 35.9261 8.93934 34.4913 6.91045C33.0564 4.88156 30.5546 4.68192 28.6524 5.98714Z" stroke="#6941C6" stroke-width="3.33333" stroke-linecap="round" stroke-linejoin="round"/>
</svg>
