<svg width="40" height="40" viewBox="0 0 40 40" fill="none" xmlns="http://www.w3.org/2000/svg">
<g opacity="0.12">
<path d="M10.885 32.6801L24.9832 19.8636C25.5808 19.3202 25.8797 19.0485 26.2207 18.9378C26.5212 18.8402 26.8433 18.83 27.1494 18.9085C27.4967 18.9975 27.8121 19.2498 28.4428 19.7544L33.1049 23.4841C33.7351 23.9882 34.0502 24.2403 34.2885 24.544C34.5881 24.9256 34.8007 25.368 34.9116 25.8402C34.9998 26.216 34.9998 26.6196 34.9998 27.4266C34.9998 29.8252 34.9998 31.0245 34.5968 31.9665C34.091 33.149 33.1488 34.0912 31.9663 34.597C31.0243 35 29.825 35 27.4264 35H11.7819C10.7102 35 10.1744 35 9.93842 34.7925C9.73387 34.6127 9.63009 34.3443 9.66049 34.0736C9.69556 33.7614 10.092 33.4009 10.885 32.6801Z" fill="#6941C6"/>
<path d="M14.1664 17.5C16.0074 17.5 17.4998 16.0076 17.4998 14.1666C17.4998 12.3257 16.0074 10.8333 14.1664 10.8333C12.3255 10.8333 10.8331 12.3257 10.8331 14.1666C10.8331 16.0076 12.3255 17.5 14.1664 17.5Z" fill="#6941C6"/>
</g>
<path d="M20.8333 4.99998H13C10.1997 4.99998 8.79961 4.99998 7.73005 5.54495C6.78924 6.02431 6.02433 6.78922 5.54497 7.73003C5 8.79959 5 10.1997 5 13V27C5 29.8002 5 31.2004 5.54497 32.2699C6.02433 33.2107 6.78924 33.9756 7.73005 34.455C8.79961 35 10.1997 35 13 35H28.3333C29.8833 35 30.6583 35 31.2941 34.8296C33.0196 34.3673 34.3673 33.0195 34.8296 31.2941C35 30.6582 35 29.8833 35 28.3333M31.6667 13.3333V3.33331M26.6667 8.33331H36.6667M17.5 14.1666C17.5 16.0076 16.0076 17.5 14.1667 17.5C12.3257 17.5 10.8333 16.0076 10.8333 14.1666C10.8333 12.3257 12.3257 10.8333 14.1667 10.8333C16.0076 10.8333 17.5 12.3257 17.5 14.1666ZM24.9834 19.8636L10.8852 32.6801C10.0923 33.4009 9.69578 33.7614 9.66071 34.0736C9.63031 34.3443 9.73409 34.6127 9.93864 34.7925C10.1746 35 10.7105 35 11.7821 35H27.4266C29.8252 35 31.0246 35 31.9665 34.597C33.1491 34.0912 34.0912 33.149 34.597 31.9665C35 31.0245 35 29.8252 35 27.4266C35 26.6196 35 26.216 34.9118 25.8402C34.8009 25.368 34.5883 24.9256 34.2888 24.544C34.0504 24.2403 33.7353 23.9882 33.1051 23.4841L28.443 19.7544C27.8123 19.2498 27.4969 18.9975 27.1497 18.9085C26.8436 18.83 26.5214 18.8402 26.2209 18.9378C25.8799 19.0485 25.5811 19.3202 24.9834 19.8636Z" stroke="#6941C6" stroke-width="3.33333" stroke-linecap="round" stroke-linejoin="round"/>
</svg>
