<svg width="40" height="40" viewBox="0 0 40 40" fill="none" xmlns="http://www.w3.org/2000/svg">
<path opacity="0.12" d="M20.5962 3.63157C20.3776 3.52226 20.2682 3.4676 20.1536 3.44608C20.052 3.42703 19.9478 3.42703 19.8463 3.44608C19.7316 3.4676 19.6223 3.52226 19.4036 3.63157L3.33325 11.6668L19.4036 19.702C19.6223 19.8113 19.7316 19.8659 19.8463 19.8874C19.9478 19.9065 20.052 19.9065 20.1536 19.8874C20.2682 19.8659 20.3776 19.8113 20.5962 19.702L36.6666 11.6668L20.5962 3.63157Z" fill="#6941C6"/>
<path d="M3.33325 19.9999L19.4036 28.0351C19.6223 28.1444 19.7316 28.1991 19.8463 28.2206C19.9478 28.2397 20.052 28.2397 20.1536 28.2206C20.2682 28.1991 20.3776 28.1444 20.5962 28.0351L36.6666 19.9999M3.33325 28.3332L19.4036 36.3684C19.6223 36.4778 19.7316 36.5324 19.8463 36.5539C19.9478 36.573 20.052 36.573 20.1536 36.5539C20.2682 36.5324 20.3776 36.4778 20.5962 36.3684L36.6666 28.3332M3.33325 11.6666L19.4036 3.63139C19.6223 3.52207 19.7316 3.46741 19.8463 3.4459C19.9478 3.42685 20.052 3.42685 20.1536 3.4459C20.2682 3.46741 20.3776 3.52207 20.5962 3.63139L36.6666 11.6666L20.5962 19.7018C20.3776 19.8111 20.2682 19.8658 20.1536 19.8873C20.052 19.9063 19.9478 19.9063 19.8463 19.8873C19.7316 19.8658 19.6223 19.8111 19.4036 19.7018L3.33325 11.6666Z" stroke="#6941C6" stroke-width="3.33333" stroke-linecap="round" stroke-linejoin="round"/>
</svg>
