<svg width="40" height="40" viewBox="0 0 40 40" fill="none" xmlns="http://www.w3.org/2000/svg">
<path opacity="0.12" d="M20.5964 23.8684C20.3778 23.9777 20.2685 24.0324 20.1538 24.0539C20.0523 24.073 19.9481 24.073 19.8465 24.0539C19.7318 24.0324 19.6225 23.9777 19.4039 23.8684L12.2631 20.298C12.0445 20.1887 11.9352 20.1341 11.8205 20.1126C11.7189 20.0935 11.6147 20.0935 11.5132 20.1126C11.3985 20.1341 11.2892 20.1887 11.0705 20.298L3.3335 24.1666L19.4039 32.2018C19.6225 32.3111 19.7318 32.3657 19.8465 32.3873C19.9481 32.4063 20.0523 32.4063 20.1538 32.3873C20.2685 32.3657 20.3778 32.3111 20.5964 32.2018L36.6668 24.1666L28.9298 20.298C28.7111 20.1887 28.6018 20.1341 28.4872 20.1126C28.3856 20.0935 28.2814 20.0935 28.1798 20.1126C28.0652 20.1341 27.9558 20.1887 27.7372 20.298L20.5964 23.8684Z" fill="#6941C6"/>
<path d="M11.6668 19.9999L3.3335 24.1666L19.4039 32.2018C19.6225 32.3111 19.7318 32.3657 19.8465 32.3873C19.9481 32.4063 20.0523 32.4063 20.1538 32.3873C20.2685 32.3657 20.3778 32.3111 20.5964 32.2018L36.6668 24.1666L28.3335 19.9999M3.3335 15.8332L19.4039 7.79805C19.6225 7.68873 19.7318 7.63407 19.8465 7.61256C19.9481 7.5935 20.0523 7.5935 20.1538 7.61256C20.2685 7.63407 20.3778 7.68873 20.5964 7.79805L36.6668 15.8332L20.5964 23.8684C20.3778 23.9777 20.2685 24.0324 20.1538 24.0539C20.0523 24.073 19.9481 24.073 19.8465 24.0539C19.7318 24.0324 19.6225 23.9777 19.4039 23.8684L3.3335 15.8332Z" stroke="#6941C6" stroke-width="3.33333" stroke-linecap="round" stroke-linejoin="round"/>
</svg>
