<svg width="40" height="40" viewBox="0 0 40 40" fill="none" xmlns="http://www.w3.org/2000/svg">
<g opacity="0.12">
<path d="M25.892 25.8925C24.384 27.4006 22.3006 28.3333 19.9994 28.3333C17.6983 28.3333 15.6149 27.4006 14.1069 25.8926L8.21436 31.7851C14.7231 38.2938 25.2758 38.2938 31.7846 31.7851L25.892 25.8925Z" fill="#6941C6"/>
<path d="M14.1069 14.1075C15.615 12.5994 17.6983 11.6667 19.9995 11.6667C22.3007 11.6667 24.384 12.5994 25.892 14.1074L31.7846 8.21488C25.2758 1.70615 14.7231 1.70615 8.21436 8.21489L14.1069 14.1075Z" fill="#6941C6"/>
</g>
<path d="M14.1076 14.1075L8.21505 8.21492M8.21505 31.7852L14.1076 25.8926M25.8927 25.8925L31.7853 31.7851M31.7853 8.21485L25.8927 14.1074M36.6668 20C36.6668 29.2047 29.2049 36.6667 20.0002 36.6667C10.7954 36.6667 3.3335 29.2047 3.3335 20C3.3335 10.7953 10.7954 3.33333 20.0002 3.33333C29.2049 3.33333 36.6668 10.7953 36.6668 20ZM28.3335 20C28.3335 24.6024 24.6025 28.3333 20.0002 28.3333C15.3978 28.3333 11.6668 24.6024 11.6668 20C11.6668 15.3976 15.3978 11.6667 20.0002 11.6667C24.6025 11.6667 28.3335 15.3976 28.3335 20Z" stroke="#6941C6" stroke-width="3.33333" stroke-linecap="round" stroke-linejoin="round"/>
</svg>
