<svg width="40" height="40" viewBox="0 0 40 40" fill="none" xmlns="http://www.w3.org/2000/svg">
<path opacity="0.12" d="M23.7499 3.33334H14.1573C13.8582 3.33334 13.7086 3.33334 13.5766 3.37889C13.4598 3.41917 13.3535 3.4849 13.2652 3.57133C13.1654 3.66907 13.0985 3.80284 12.9648 4.07039L5.96475 18.0704C5.64528 18.7093 5.48555 19.0288 5.52392 19.2885C5.55742 19.5152 5.68285 19.7182 5.87069 19.8496C6.0858 20 6.44297 20 7.15732 20H17.4999L12.4999 36.6667L32.8218 15.5922C33.5074 14.8812 33.8502 14.5257 33.8702 14.2215C33.8876 13.9574 33.7786 13.7008 33.5765 13.5301C33.3436 13.3333 32.8497 13.3333 31.862 13.3333H19.9999L23.7499 3.33334Z" fill="#6941C6"/>
<path d="M23.7499 3.33334H14.1573C13.8582 3.33334 13.7086 3.33334 13.5766 3.37889C13.4598 3.41917 13.3535 3.4849 13.2652 3.57133C13.1654 3.66907 13.0985 3.80284 12.9648 4.07039L5.96475 18.0704C5.64528 18.7093 5.48555 19.0288 5.52392 19.2885C5.55742 19.5152 5.68285 19.7182 5.87069 19.8496C6.0858 20 6.44297 20 7.15732 20H17.4999L12.4999 36.6667L32.8218 15.5922C33.5074 14.8812 33.8502 14.5257 33.8702 14.2215C33.8876 13.9574 33.7786 13.7008 33.5765 13.5301C33.3436 13.3333 32.8497 13.3333 31.862 13.3333H19.9999L23.7499 3.33334Z" stroke="#6941C6" stroke-width="3.33333" stroke-linecap="round" stroke-linejoin="round"/>
</svg>
