<svg width="40" height="40" viewBox="0 0 40 40" fill="none" xmlns="http://www.w3.org/2000/svg">
<path opacity="0.12" d="M15 27.5H25V36.6667H15L15 27.5Z" fill="#6941C6"/>
<path d="M25 27.5V31.6666C25 33.2198 25 33.9964 24.7463 34.6089C24.408 35.4257 23.759 36.0746 22.9423 36.4129C22.3297 36.6666 21.5531 36.6666 20 36.6666C18.4469 36.6666 17.6703 36.6666 17.0577 36.4129C16.241 36.0746 15.592 35.4257 15.2537 34.6089C15 33.9964 15 33.2198 15 31.6666V27.5M25 27.5C29.4148 25.5711 32.5 20.9591 32.5 15.8333C32.5 8.92975 26.9036 3.33331 20 3.33331C13.0964 3.33331 7.5 8.92975 7.5 15.8333C7.5 20.9591 10.5852 25.5711 15 27.5M25 27.5H15" stroke="#6941C6" stroke-width="3.33333" stroke-linecap="round" stroke-linejoin="round"/>
</svg>
