<svg width="40" height="40" viewBox="0 0 40 40" fill="none" xmlns="http://www.w3.org/2000/svg">
<path opacity="0.12" d="M6.6665 24.6667C6.6665 21.8664 6.6665 20.4663 7.21147 19.3967C7.69084 18.4559 8.45574 17.691 9.39655 17.2116C10.4661 16.6667 11.8662 16.6667 14.6665 16.6667H25.3332C28.1334 16.6667 29.5336 16.6667 30.6031 17.2116C31.5439 17.691 32.3088 18.4559 32.7882 19.3967C33.3332 20.4663 33.3332 21.8664 33.3332 24.6667V27C33.3332 29.8003 33.3332 31.2004 32.7882 32.2699C32.3088 33.2108 31.5439 33.9757 30.6031 34.455C29.5336 35 28.1334 35 25.3332 35H14.6665C11.8662 35 10.4661 35 9.39655 34.455C8.45574 33.9757 7.69084 33.2108 7.21147 32.2699C6.6665 31.2004 6.6665 29.8003 6.6665 27V24.6667Z" fill="#6941C6"/>
<path d="M28.3332 16.6667V13.3333C28.3332 8.73096 24.6022 5 19.9998 5C15.3975 5 11.6665 8.73096 11.6665 13.3333V16.6667M19.9998 24.1667V27.5M14.6665 35H25.3332C28.1334 35 29.5336 35 30.6031 34.455C31.5439 33.9757 32.3088 33.2108 32.7882 32.27C33.3332 31.2004 33.3332 29.8003 33.3332 27V24.6667C33.3332 21.8664 33.3332 20.4663 32.7882 19.3967C32.3088 18.4559 31.5439 17.691 30.6031 17.2116C29.5336 16.6667 28.1334 16.6667 25.3332 16.6667H14.6665C11.8662 16.6667 10.4661 16.6667 9.39655 17.2116C8.45574 17.691 7.69084 18.4559 7.21147 19.3967C6.6665 20.4663 6.6665 21.8664 6.6665 24.6667V27C6.6665 29.8003 6.6665 31.2004 7.21147 32.27C7.69084 33.2108 8.45574 33.9757 9.39655 34.455C10.4661 35 11.8662 35 14.6665 35Z" stroke="#6941C6" stroke-width="3.33333" stroke-linecap="round" stroke-linejoin="round"/>
</svg>
