<svg width="40" height="40" viewBox="0 0 40 40" fill="none" xmlns="http://www.w3.org/2000/svg">
<path opacity="0.12" d="M17.0933 22.2772L3.33325 13.3331L17.0933 4.3891C18.1454 3.70525 18.6714 3.36332 19.2382 3.23029C19.7392 3.11269 20.2606 3.11269 20.7616 3.23029C21.3284 3.36332 21.8545 3.70525 22.9065 4.3891L36.6666 13.3331L22.9065 22.2772C21.8545 22.961 21.3284 23.3029 20.7616 23.436C20.2606 23.5536 19.7392 23.5536 19.2382 23.436C18.6714 23.3029 18.1454 22.961 17.0933 22.2772Z" fill="#6941C6"/>
<path d="M22.9065 4.38931L35.4532 12.5447C35.8966 12.8328 36.1182 12.9769 36.2788 13.1691C36.421 13.3392 36.5278 13.536 36.593 13.748C36.6666 13.9874 36.6666 14.2517 36.6666 14.7805V27C36.6666 29.8003 36.6666 31.2004 36.1216 32.27C35.6423 33.2108 34.8773 33.9757 33.9365 34.4551C32.867 35 31.4668 35 28.6666 35H11.3333C8.53299 35 7.13286 35 6.0633 34.4551C5.12249 33.9757 4.35759 33.2108 3.87822 32.27C3.33325 31.2004 3.33325 29.8003 3.33325 27V14.7805C3.33325 14.2517 3.33325 13.9874 3.40687 13.748C3.47204 13.536 3.57883 13.3392 3.721 13.1691C3.8816 12.9769 4.10327 12.8328 4.54662 12.5447L17.0933 4.38931M22.9065 4.38931C21.8545 3.70546 21.3284 3.36354 20.7616 3.2305C20.2606 3.1129 19.7392 3.1129 19.2382 3.2305C18.6714 3.36354 18.1454 3.70546 17.0933 4.38931M22.9065 4.38931L33.2268 11.0975C34.3732 11.8427 34.9464 12.2153 35.145 12.6877C35.3185 13.1007 35.3185 13.566 35.145 13.979C34.9464 14.4514 34.3732 14.824 33.2268 15.5692L22.9065 22.2774C21.8545 22.9612 21.3284 23.3032 20.7616 23.4362C20.2606 23.5538 19.7392 23.5538 19.2382 23.4362C18.6714 23.3032 18.1454 22.9612 17.0933 22.2774L6.77302 15.5692C5.62661 14.824 5.0534 14.4514 4.85488 13.979C4.68138 13.566 4.68138 13.1007 4.85488 12.6877C5.0534 12.2153 5.62661 11.8427 6.77302 11.0975L17.0933 4.38931M35.8333 31.6667L24.7619 21.6667M15.238 21.6667L4.16659 31.6667" stroke="#6941C6" stroke-width="3.33333" stroke-linecap="round" stroke-linejoin="round"/>
</svg>
