<svg width="40" height="40" viewBox="0 0 40 40" fill="none" xmlns="http://www.w3.org/2000/svg">
<path opacity="0.12" d="M17.0936 22.2772L3.3335 13.3331L17.0936 4.3891C18.1456 3.70525 18.6717 3.36332 19.2385 3.23029C19.7395 3.11269 20.2609 3.11269 20.7619 3.23029C21.3287 3.36332 21.8547 3.70525 22.9068 4.3891L36.6668 13.3331L22.9068 22.2772C21.8547 22.961 21.3287 23.3029 20.7619 23.436C20.2609 23.5536 19.7395 23.5536 19.2385 23.436C18.6717 23.3029 18.1456 22.961 17.0936 22.2772Z" fill="#6941C6"/>
<path d="M22.9068 4.38928L35.4535 12.5446C35.8968 12.8328 36.1185 12.9769 36.2791 13.1691C36.4213 13.3392 36.528 13.536 36.5932 13.7479C36.6668 13.9873 36.6668 14.2517 36.6668 14.7805V27C36.6668 29.8003 36.6668 31.2004 36.1219 32.2699C35.6425 33.2107 34.8776 33.9757 33.9368 34.455C32.8672 35 31.4671 35 28.6668 35H11.3335C8.53323 35 7.1331 35 6.06354 34.455C5.12273 33.9757 4.35783 33.2107 3.87846 32.2699C3.3335 31.2004 3.3335 29.8002 3.3335 27V14.7805C3.3335 14.2517 3.3335 13.9873 3.40711 13.7479C3.47228 13.536 3.57907 13.3392 3.72124 13.1691C3.88185 12.9769 4.10352 12.8328 4.54686 12.5446L17.0936 4.38928M22.9068 4.38928C21.8547 3.70543 21.3287 3.36351 20.7619 3.23047C20.2609 3.11287 19.7395 3.11287 19.2385 3.23047C18.6717 3.36351 18.1456 3.70543 17.0936 4.38928M22.9068 4.38928L33.2271 11.0975C34.3735 11.8426 34.9467 12.2152 35.1452 12.6877C35.3187 13.1006 35.3187 13.566 35.1452 13.9789C34.9467 14.4514 34.3735 14.824 33.2271 15.5692L22.9068 22.2774C21.8547 22.9612 21.3287 23.3031 20.7619 23.4362C20.2609 23.5538 19.7395 23.5538 19.2385 23.4362C18.6717 23.3031 18.1456 22.9612 17.0936 22.2774L6.77327 15.5692C5.62685 14.824 5.05364 14.4514 4.85512 13.9789C4.68163 13.566 4.68163 13.1006 4.85512 12.6877C5.05364 12.2152 5.62685 11.8426 6.77327 11.0975L17.0936 4.38928M35.8335 31.6667L24.7621 21.6667M15.2382 21.6667L4.16683 31.6667" stroke="#6941C6" stroke-width="3.33333" stroke-linecap="round" stroke-linejoin="round"/>
</svg>
