<svg width="40" height="40" viewBox="0 0 40 40" fill="none" xmlns="http://www.w3.org/2000/svg">
<path opacity="0.12" d="M20 25C22.7614 25 25 22.7614 25 20C25 17.2386 22.7614 15 20 15C17.2386 15 15 17.2386 15 20C15 22.7614 17.2386 25 20 25Z" fill="#6941C6"/>
<path d="M33.3333 20C33.3333 27.3638 27.3637 33.3333 19.9999 33.3333M33.3333 20C33.3333 12.6362 27.3637 6.66665 19.9999 6.66665M33.3333 20H36.6666M19.9999 33.3333C12.6361 33.3333 6.66659 27.3638 6.66659 20M19.9999 33.3333V36.6666M6.66659 20C6.66659 12.6362 12.6361 6.66665 19.9999 6.66665M6.66659 20H3.33325M19.9999 6.66665V3.33331M24.9999 20C24.9999 22.7614 22.7613 25 19.9999 25C17.2385 25 14.9999 22.7614 14.9999 20C14.9999 17.2386 17.2385 15 19.9999 15C22.7613 15 24.9999 17.2386 24.9999 20Z" stroke="#6941C6" stroke-width="3.33333" stroke-linecap="round" stroke-linejoin="round"/>
</svg>
