<svg width="40" height="40" viewBox="0 0 40 40" fill="none" xmlns="http://www.w3.org/2000/svg">
<path opacity="0.12" d="M25 35V28.3333H15V35H25Z" fill="#6941C6"/>
<path d="M25.0002 28.3333V35H15.0002V28.3333M8.66683 28.3333H31.3335C33.2003 28.3333 34.1338 28.3333 34.8468 27.97C35.474 27.6504 35.9839 27.1405 36.3035 26.5133C36.6668 25.8003 36.6668 24.8668 36.6668 23V10.3333C36.6668 8.46649 36.6668 7.53307 36.3035 6.82003C35.9839 6.19282 35.474 5.68289 34.8468 5.36331C34.1338 5 33.2003 5 31.3335 5H8.66683C6.79999 5 5.86657 5 5.15353 5.36331C4.52632 5.68289 4.01639 6.19282 3.69681 6.82003C3.3335 7.53307 3.3335 8.46649 3.3335 10.3333V23C3.3335 24.8668 3.3335 25.8003 3.69681 26.5133C4.01639 27.1405 4.52632 27.6504 5.15353 27.97C5.86657 28.3333 6.79999 28.3333 8.66683 28.3333Z" stroke="#6941C6" stroke-width="3.33333" stroke-linecap="round" stroke-linejoin="round"/>
</svg>
