<svg width="40" height="40" viewBox="0 0 40 40" fill="none" xmlns="http://www.w3.org/2000/svg">
<path opacity="0.12" d="M5.6899 17.9073C4.69766 17.5214 4.20154 17.3285 4.05669 17.0505C3.93113 16.8095 3.93096 16.5224 4.05624 16.2812C4.20076 16.0031 4.69665 15.8095 5.68844 15.4225L33.8347 4.43861C34.73 4.08922 35.1776 3.91453 35.4637 4.01009C35.7121 4.09308 35.907 4.28802 35.99 4.53644C36.0856 4.82248 35.9109 5.27013 35.5615 6.16543L24.5776 34.3117C24.1906 35.3035 23.9971 35.7994 23.7189 35.9439C23.4777 36.0692 23.1906 36.069 22.9496 35.9434C22.6716 35.7986 22.4787 35.3025 22.0928 34.3102L17.7127 23.0469C17.6343 22.8455 17.5952 22.7448 17.5347 22.66C17.4811 22.5848 17.4153 22.5191 17.3402 22.4654C17.2554 22.405 17.1547 22.3658 16.9532 22.2875L5.6899 17.9073Z" fill="#6941C6"/>
<path d="M5.6899 17.9073C4.69766 17.5214 4.20154 17.3285 4.05669 17.0505C3.93113 16.8095 3.93096 16.5224 4.05624 16.2812C4.20076 16.0031 4.69665 15.8095 5.68844 15.4225L33.8347 4.43861C34.73 4.08922 35.1776 3.91453 35.4637 4.01009C35.7121 4.09308 35.907 4.28802 35.99 4.53644C36.0856 4.82248 35.9109 5.27013 35.5615 6.16543L24.5776 34.3117C24.1906 35.3035 23.9971 35.7994 23.7189 35.9439C23.4777 36.0692 23.1906 36.069 22.9497 35.9434C22.6716 35.7986 22.4787 35.3025 22.0928 34.3102L17.7127 23.0469C17.6343 22.8455 17.5952 22.7448 17.5347 22.66C17.4811 22.5848 17.4153 22.5191 17.3402 22.4654C17.2554 22.405 17.1547 22.3658 16.9532 22.2875L5.6899 17.9073Z" stroke="#6941C6" stroke-width="3.33333" stroke-linecap="round" stroke-linejoin="round"/>
</svg>
