<svg width="40" height="40" viewBox="0 0 40 40" fill="none" xmlns="http://www.w3.org/2000/svg">
<path opacity="0.12" d="M24.8237 32.6765L33.9479 23.5523C34.608 22.8923 34.938 22.5622 35.0616 22.1817C35.116 22.0143 35.1432 21.8405 35.1432 21.6667H4.57129C4.57129 22.1881 4.65286 22.7096 4.81601 23.2117C5.18695 24.3534 6.17699 25.3434 8.15707 27.3235L13.51 32.6765C15.4901 34.6566 16.4802 35.6466 17.6218 36.0175C18.626 36.3438 19.7078 36.3438 20.712 36.0175C21.8536 35.6466 22.8437 34.6566 24.8237 32.6765Z" fill="#6941C6"/>
<path d="M5.00022 21.6667H33.3336M20.0002 5.83334L17.5002 3.33334M19.1669 5.00001L33.9479 19.7811C34.608 20.4411 34.938 20.7711 35.0616 21.1516C35.1704 21.4864 35.1704 21.847 35.0616 22.1817C34.938 22.5623 34.608 22.8923 33.9479 23.5523L24.8237 32.6765C22.8437 34.6566 21.8536 35.6466 20.712 36.0176C19.7078 36.3438 18.626 36.3438 17.6218 36.0176C16.4802 35.6466 15.4901 34.6566 13.51 32.6765L8.15707 27.3235C6.17699 25.3434 5.18695 24.3534 4.81601 23.2118C4.48972 22.2075 4.48972 21.1258 4.81601 20.1216C5.18695 18.98 6.17699 17.9899 8.15708 16.0098L19.1669 5.00001Z" stroke="#6941C6" stroke-width="3.33333" stroke-linecap="round" stroke-linejoin="round"/>
</svg>
