<svg width="40" height="40" viewBox="0 0 40 40" fill="none" xmlns="http://www.w3.org/2000/svg">
<path opacity="0.12" d="M12.3014 16.4221C13.4614 18.8381 15.0427 21.1025 17.0453 23.1051C19.0479 25.1078 21.3123 26.6891 23.7284 27.8491C23.9362 27.9488 24.0401 27.9987 24.1716 28.0371C24.6388 28.1733 25.2126 28.0754 25.6083 27.7921C25.7197 27.7123 25.8149 27.6171 26.0054 27.4266C26.5881 26.8439 26.8795 26.5526 27.1724 26.3621C28.2772 25.6437 29.7015 25.6438 30.8064 26.3621C31.0993 26.5526 31.3907 26.8439 31.9733 27.4266L32.2981 27.7513C33.1839 28.6371 33.6267 29.08 33.8673 29.5556C34.3458 30.5015 34.3458 31.6186 33.8673 32.5646C33.6267 33.0402 33.1839 33.4831 32.2981 34.3688L32.0354 34.6315C31.1527 35.5142 30.7113 35.9556 30.1113 36.2927C29.4454 36.6667 28.4113 36.9356 27.6476 36.9334C26.9593 36.9313 26.489 36.7978 25.5482 36.5308C20.4926 35.0959 15.722 32.3884 11.742 28.4084C7.76203 24.4285 5.05457 19.6579 3.61962 14.6022C3.35261 13.6615 3.2191 13.1911 3.21706 12.5028C3.21478 11.7391 3.48372 10.705 3.85775 10.0391C4.19483 9.43909 4.63619 8.99773 5.51889 8.11503L5.78162 7.8523C6.66735 6.96657 7.11022 6.5237 7.58586 6.28312C8.53179 5.80467 9.6489 5.80467 10.5948 6.28312C11.0705 6.5237 11.5133 6.96657 12.3991 7.8523L12.7239 8.17709C13.3065 8.75976 13.5979 9.0511 13.7884 9.34406C14.5067 10.4489 14.5067 11.8732 13.7884 12.978C13.5979 13.271 13.3065 13.5623 12.7239 14.145C12.5333 14.3355 12.4381 14.4308 12.3583 14.5421C12.075 14.9378 11.9772 15.5116 12.1134 15.9789C12.1517 16.1103 12.2016 16.2142 12.3014 16.4221Z" fill="#6941C6"/>
<path d="M23.417 10C25.0449 10.3176 26.541 11.1138 27.7138 12.2866C28.8866 13.4594 29.6827 14.9555 30.0003 16.5833M23.417 3.33334C26.7991 3.70907 29.953 5.22363 32.3607 7.62836C34.7685 10.0331 36.287 13.185 36.667 16.5667M17.0453 23.1051C15.0427 21.1025 13.4614 18.8381 12.3014 16.4221C12.2016 16.2142 12.1517 16.1103 12.1134 15.9788C11.9772 15.5116 12.075 14.9378 12.3583 14.5421C12.4381 14.4308 12.5333 14.3355 12.7239 14.145C13.3065 13.5623 13.5979 13.271 13.7883 12.978C14.5067 11.8732 14.5067 10.4489 13.7884 9.34406C13.5979 9.0511 13.3065 8.75976 12.7239 8.17708L12.3991 7.8523C11.5133 6.96656 11.0705 6.5237 10.5948 6.28312C9.6489 5.80467 8.53179 5.80467 7.58586 6.28312C7.11022 6.5237 6.66735 6.96656 5.78161 7.8523L5.51889 8.11503C4.63619 8.99773 4.19483 9.43908 3.85775 10.0391C3.48372 10.705 3.21478 11.7391 3.21706 12.5028C3.2191 13.1911 3.35261 13.6615 3.61962 14.6022C5.05457 19.6579 7.76203 24.4285 11.742 28.4084C15.722 32.3884 20.4926 35.0959 25.5482 36.5308C26.489 36.7978 26.9593 36.9313 27.6476 36.9334C28.4113 36.9356 29.4454 36.6667 30.1113 36.2927C30.7113 35.9556 31.1527 35.5142 32.0354 34.6315L32.2981 34.3688C33.1839 33.4831 33.6267 33.0402 33.8673 32.5646C34.3457 31.6186 34.3457 30.5015 33.8673 29.5556C33.6267 29.08 33.1839 28.6371 32.2981 27.7513L31.9733 27.4266C31.3907 26.8439 31.0993 26.5525 30.8064 26.3621C29.7015 25.6437 28.2772 25.6437 27.1724 26.3621C26.8795 26.5525 26.5881 26.8439 26.0054 27.4266C25.8149 27.6171 25.7197 27.7123 25.6083 27.7921C25.2126 28.0754 24.6388 28.1733 24.1716 28.0371C24.0401 27.9987 23.9362 27.9488 23.7284 27.8491C21.3123 26.6891 19.0479 25.1078 17.0453 23.1051Z" stroke="#6941C6" stroke-width="3.33333" stroke-linecap="round" stroke-linejoin="round"/>
</svg>
