<svg width="40" height="40" viewBox="0 0 40 40" fill="none" xmlns="http://www.w3.org/2000/svg">
<path opacity="0.12" d="M15.8333 14.9423C15.8333 14.1468 15.8333 13.7491 15.9995 13.527C16.1444 13.3335 16.3661 13.2124 16.6072 13.1952C16.8839 13.1755 17.2185 13.3905 17.8876 13.8207L25.7553 18.8785C26.3359 19.2517 26.6262 19.4384 26.7265 19.6757C26.8141 19.8831 26.8141 20.117 26.7265 20.3244C26.6262 20.5617 26.3359 20.7483 25.7553 21.1216L17.8876 26.1794C17.2185 26.6096 16.8839 26.8246 16.6072 26.8049C16.3661 26.7877 16.1444 26.6666 15.9995 26.4731C15.8333 26.251 15.8333 25.8533 15.8333 25.0578V14.9423Z" fill="#6941C6"/>
<path d="M19.9999 36.6667C29.2047 36.6667 36.6666 29.2048 36.6666 20C36.6666 10.7953 29.2047 3.33334 19.9999 3.33334C10.7952 3.33334 3.33325 10.7953 3.33325 20C3.33325 29.2048 10.7952 36.6667 19.9999 36.6667Z" stroke="#6941C6" stroke-width="3.33333" stroke-linecap="round" stroke-linejoin="round"/>
<path d="M15.8333 14.9422C15.8333 14.1468 15.8333 13.749 15.9995 13.527C16.1444 13.3335 16.3661 13.2124 16.6072 13.1952C16.8839 13.1754 17.2185 13.3905 17.8876 13.8207L25.7553 18.8784C26.3359 19.2517 26.6262 19.4383 26.7265 19.6757C26.8141 19.883 26.8141 20.117 26.7265 20.3244C26.6262 20.5617 26.3359 20.7483 25.7553 21.1216L17.8876 26.1794C17.2185 26.6095 16.8839 26.8246 16.6072 26.8048C16.3661 26.7876 16.1444 26.6666 15.9995 26.473C15.8333 26.251 15.8333 25.8533 15.8333 25.0578V14.9422Z" stroke="#6941C6" stroke-width="3.33333" stroke-linecap="round" stroke-linejoin="round"/>
</svg>
