<svg width="40" height="40" viewBox="0 0 40 40" fill="none" xmlns="http://www.w3.org/2000/svg">
<path opacity="0.12" d="M20.0002 36.6666C29.2049 36.6666 36.6668 29.2047 36.6668 20C36.6668 10.7952 29.2049 3.33331 20.0002 3.33331C10.7954 3.33331 3.3335 10.7952 3.3335 20C3.3335 29.2047 10.7954 36.6666 20.0002 36.6666Z" fill="#6941C6"/>
<path d="M20.0002 11.6666V20M13.3335 14.9992C12.287 16.3921 11.6668 18.1236 11.6668 20C11.6668 24.6024 15.3978 28.3333 20.0002 28.3333C24.6025 28.3333 28.3335 24.6024 28.3335 20C28.3335 18.1236 27.7133 16.3921 26.6668 14.9992M36.6668 20C36.6668 29.2047 29.2049 36.6666 20.0002 36.6666C10.7954 36.6666 3.3335 29.2047 3.3335 20C3.3335 10.7952 10.7954 3.33331 20.0002 3.33331C29.2049 3.33331 36.6668 10.7952 36.6668 20Z" stroke="#6941C6" stroke-width="3.33333" stroke-linecap="round" stroke-linejoin="round"/>
</svg>
