<svg width="40" height="40" viewBox="0 0 40 40" fill="none" xmlns="http://www.w3.org/2000/svg">
<path opacity="0.12" d="M20 25L15 20C15.8869 17.6991 17.0037 15.4935 18.3333 13.4167C20.2753 10.3117 22.9794 7.75509 26.1883 5.99016C29.3973 4.22523 33.0044 3.31063 36.6667 3.33334C36.6667 7.86668 35.3667 15.8333 26.6667 21.6667C24.5615 22.9979 22.3281 24.1146 20 25Z" fill="#6941C6"/>
<path d="M19.9998 25L14.9998 20M19.9998 25C22.3279 24.1146 24.5613 22.9979 26.6665 21.6667M19.9998 25V33.3333C19.9998 33.3333 25.0498 32.4167 26.6665 30C28.4665 27.3 26.6665 21.6667 26.6665 21.6667M14.9998 20C15.8867 17.6991 17.0035 15.4935 18.3332 13.4167C20.2751 10.3117 22.9792 7.75509 26.1882 5.99016C29.3971 4.22523 33.0043 3.31063 36.6665 3.33334C36.6665 7.86668 35.3665 15.8333 26.6665 21.6667M14.9998 20H6.6665C6.6665 20 7.58317 14.95 9.99984 13.3333C12.6998 11.5333 18.3332 13.3333 18.3332 13.3333M7.49984 27.5C4.99984 29.6 4.1665 35.8333 4.1665 35.8333C4.1665 35.8333 10.3998 35 12.4998 32.5C13.6832 31.1 13.6665 28.95 12.3498 27.65C11.702 27.0317 10.8487 26.6744 9.95355 26.6467C9.05844 26.619 8.18463 26.9229 7.49984 27.5Z" stroke="#6941C6" stroke-width="3.33333" stroke-linecap="round" stroke-linejoin="round"/>
</svg>
