<svg width="40" height="40" viewBox="0 0 40 40" fill="none" xmlns="http://www.w3.org/2000/svg">
<path opacity="0.12" d="M15.8574 4.85903C14.8344 5.73076 13.5626 6.25758 12.2229 6.36449C9.09649 6.61397 6.6139 9.09657 6.36441 12.2229C6.2575 13.5627 5.73068 14.8345 4.85895 15.8574C2.82469 18.2445 2.82469 21.7555 4.85895 24.1425C5.73068 25.1655 6.2575 26.4373 6.36441 27.7771C6.6139 30.9034 9.09649 33.386 12.2229 33.6355C13.5626 33.7424 14.8344 34.2692 15.8574 35.141C18.2445 37.1752 21.7554 37.1752 24.1425 35.141C25.1654 34.2692 26.4373 33.7424 27.777 33.6355C30.9033 33.386 33.3859 30.9034 33.6354 27.7771C33.7423 26.4373 34.2692 25.1655 35.1409 24.1425C37.1752 21.7555 37.1752 18.2445 35.1409 15.8574C34.2692 14.8345 33.7423 13.5627 33.6354 12.2229C33.3859 9.09657 30.9033 6.61397 27.777 6.36449C26.4373 6.25758 25.1654 5.73076 24.1425 4.85903C21.7554 2.82476 18.2445 2.82476 15.8574 4.85903Z" fill="#6941C6"/>
<path d="M14.9999 15H15.0166M24.9999 25H25.0166M26.6666 13.3333L13.3333 26.6667M12.2229 6.36449C13.5626 6.25758 14.8344 5.73076 15.8574 4.85903C18.2445 2.82476 21.7554 2.82476 24.1425 4.85903C25.1654 5.73076 26.4372 6.25758 27.777 6.36449C30.9033 6.61397 33.3859 9.09657 33.6354 12.2229C33.7423 13.5627 34.2692 14.8345 35.1409 15.8574C37.1752 18.2445 37.1752 21.7555 35.1409 24.1425C34.2692 25.1655 33.7423 26.4373 33.6354 27.777C33.3859 30.9034 30.9033 33.386 27.777 33.6355C26.4372 33.7424 25.1654 34.2692 24.1425 35.141C21.7554 37.1752 18.2445 37.1752 15.8574 35.141C14.8344 34.2692 13.5626 33.7424 12.2229 33.6355C9.09649 33.386 6.6139 30.9034 6.36441 27.777C6.2575 26.4373 5.73068 25.1655 4.85895 24.1425C2.82469 21.7555 2.82469 18.2445 4.85895 15.8574C5.73068 14.8345 6.2575 13.5627 6.36441 12.2229C6.6139 9.09657 9.09649 6.61397 12.2229 6.36449ZM15.8333 15C15.8333 15.4602 15.4602 15.8333 14.9999 15.8333C14.5397 15.8333 14.1666 15.4602 14.1666 15C14.1666 14.5398 14.5397 14.1667 14.9999 14.1667C15.4602 14.1667 15.8333 14.5398 15.8333 15ZM25.8333 25C25.8333 25.4602 25.4602 25.8333 24.9999 25.8333C24.5397 25.8333 24.1666 25.4602 24.1666 25C24.1666 24.5398 24.5397 24.1667 24.9999 24.1667C25.4602 24.1667 25.8333 24.5398 25.8333 25Z" stroke="#6941C6" stroke-width="3.33333" stroke-linecap="round" stroke-linejoin="round"/>
</svg>
