<svg width="40" height="40" viewBox="0 0 40 40" fill="none" xmlns="http://www.w3.org/2000/svg">
<g opacity="0.12">
<path d="M11.6667 5H25.4882C26.2428 5 26.9665 5.29976 27.5001 5.83333C28.0337 6.36691 28.3334 7.09059 28.3334 7.84518V10.6667C28.3334 11.6001 28.3334 12.0668 28.1518 12.4233C27.992 12.7369 27.737 12.9919 27.4234 13.1517C27.0669 13.3333 26.6002 13.3333 25.6667 13.3333H14.3334C13.4 13.3333 12.9333 13.3333 12.5768 13.1517C12.2632 12.9919 12.0082 12.7369 11.8484 12.4233C11.6667 12.0668 11.6667 11.6001 11.6667 10.6667V5Z" fill="#6941C6"/>
<path d="M11.6667 24.3333C11.6667 23.3999 11.6667 22.9332 11.8484 22.5767C12.0082 22.2631 12.2632 22.0081 12.5768 21.8483C12.9333 21.6667 13.4 21.6667 14.3334 21.6667H25.6667C26.6002 21.6667 27.0669 21.6667 27.4234 21.8483C27.737 22.0081 27.992 22.2631 28.1518 22.5767C28.3334 22.9332 28.3334 23.3999 28.3334 24.3333V35H11.6667V24.3333Z" fill="#6941C6"/>
</g>
<path d="M11.6667 5V10.6667C11.6667 11.6001 11.6667 12.0668 11.8483 12.4233C12.0081 12.7369 12.2631 12.9919 12.5767 13.1517C12.9332 13.3333 13.3999 13.3333 14.3333 13.3333H25.6667C26.6001 13.3333 27.0668 13.3333 27.4233 13.1517C27.7369 12.9919 27.9919 12.7369 28.1517 12.4233C28.3333 12.0668 28.3333 11.6001 28.3333 10.6667V6.66667M28.3333 35V24.3333C28.3333 23.3999 28.3333 22.9332 28.1517 22.5767C27.9919 22.2631 27.7369 22.0081 27.4233 21.8483C27.0668 21.6667 26.6001 21.6667 25.6667 21.6667H14.3333C13.3999 21.6667 12.9332 21.6667 12.5767 21.8483C12.2631 22.0081 12.0081 22.2631 11.8483 22.5767C11.6667 22.9332 11.6667 23.3999 11.6667 24.3333V35M35 15.5425V27C35 29.8003 35 31.2004 34.455 32.27C33.9757 33.2108 33.2108 33.9757 32.27 34.455C31.2004 35 29.8003 35 27 35H13C10.1997 35 8.79961 35 7.73005 34.455C6.78924 33.9757 6.02433 33.2108 5.54497 32.27C5 31.2004 5 29.8003 5 27V13C5 10.1997 5 8.79961 5.54497 7.73005C6.02433 6.78924 6.78924 6.02433 7.73005 5.54497C8.79961 5 10.1997 5 13 5H24.4575C25.2728 5 25.6805 5 26.0641 5.0921C26.4042 5.17376 26.7294 5.30844 27.0276 5.4912C27.364 5.69734 27.6523 5.98559 28.2288 6.5621L33.4379 11.7712C34.0144 12.3477 34.3027 12.636 34.5088 12.9724C34.6916 13.2706 34.8262 13.5958 34.9079 13.9359C35 14.3195 35 14.7272 35 15.5425Z" stroke="#6941C6" stroke-width="3.33333" stroke-linecap="round" stroke-linejoin="round"/>
</svg>
