<svg width="40" height="40" viewBox="0 0 40 40" fill="none" xmlns="http://www.w3.org/2000/svg">
<path opacity="0.12" d="M3.33325 28C3.33325 25.1997 3.33325 23.7996 3.87822 22.73C4.35759 21.7892 5.12249 21.0243 6.0633 20.545C7.13286 20 8.53299 20 11.3333 20H11.9999C14.8002 20 16.2003 20 17.2699 20.545C18.2107 21.0243 18.9756 21.7892 19.455 22.73C19.9999 23.7996 19.9999 25.1997 19.9999 28V28.6667C19.9999 31.4669 19.9999 32.8671 19.455 33.9366C18.9756 34.8774 18.2107 35.6423 17.2699 36.1217C16.2003 36.6667 14.8002 36.6667 11.9999 36.6667H11.3333C8.53299 36.6667 7.13286 36.6667 6.0633 36.1217C5.12249 35.6423 4.35759 34.8774 3.87822 33.9366C3.33325 32.8671 3.33325 31.4669 3.33325 28.6667V28Z" fill="#6941C6"/>
<path d="M23.3333 36.6667H11.3333M11.3333 36.6667C8.53299 36.6667 7.13286 36.6667 6.0633 36.1217C5.12249 35.6423 4.35759 34.8774 3.87822 33.9366C3.33325 32.8671 3.33325 31.4669 3.33325 28.6667M11.3333 36.6667H11.9999C14.8002 36.6667 16.2003 36.6667 17.2699 36.1217C18.2107 35.6423 18.9756 34.8774 19.455 33.9366C19.9999 32.8671 19.9999 31.4669 19.9999 28.6667V28C19.9999 25.1997 19.9999 23.7996 19.455 22.7301C18.9756 21.7892 18.2107 21.0243 17.2699 20.545C16.2003 20 14.8002 20 11.9999 20H11.3333C8.53299 20 7.13286 20 6.0633 20.545C5.12249 21.0243 4.35759 21.7892 3.87822 22.7301C3.33325 23.7996 3.33325 25.1997 3.33325 28V28.6667M3.33325 28.6667V16.6667M16.6666 3.33334H23.3333M36.6666 16.6667V23.3333M29.9999 36.6667C31.5499 36.6667 32.3248 36.6667 32.9607 36.4963C34.6861 36.034 36.0339 34.6862 36.4962 32.9608C36.6666 32.3249 36.6666 31.55 36.6666 30M36.6666 10C36.6666 8.45006 36.6666 7.67508 36.4962 7.03925C36.0339 5.31379 34.6861 3.96605 32.9607 3.50371C32.3248 3.33334 31.5499 3.33334 29.9999 3.33334M9.99992 3.33334C8.44997 3.33334 7.67499 3.33334 7.03916 3.50371C5.3137 3.96605 3.96596 5.31379 3.50362 7.03925C3.33325 7.67508 3.33325 8.45006 3.33325 10" stroke="#6941C6" stroke-width="3.33333" stroke-linecap="round" stroke-linejoin="round"/>
</svg>
