<svg width="40" height="40" viewBox="0 0 40 40" fill="none" xmlns="http://www.w3.org/2000/svg">
<path d="M13.3333 5H13C10.1997 5 8.79961 5 7.73005 5.54497C6.78924 6.02433 6.02433 6.78924 5.54497 7.73005C5 8.79961 5 10.1997 5 13V13.3333M13.3333 35H13C10.1997 35 8.79961 35 7.73005 34.455C6.78924 33.9757 6.02433 33.2108 5.54497 32.27C5 31.2004 5 29.8003 5 27V26.6667M35 13.3333V13C35 10.1997 35 8.79961 34.455 7.73005C33.9757 6.78924 33.2108 6.02433 32.27 5.54497C31.2004 5 29.8003 5 27 5H26.6667M35 26.6667V27C35 29.8003 35 31.2004 34.455 32.27C33.9757 33.2108 33.2108 33.9757 32.27 34.455C31.2004 35 29.8003 35 27 35H26.6667M5 20H5.01667M12.5 20H12.5167M27.5 20H27.5167M20 20H20.0167M35 20H35.0167" stroke="#6941C6" stroke-width="3.33333" stroke-linecap="round" stroke-linejoin="round"/>
</svg>
