<svg width="40" height="40" viewBox="0 0 40 40" fill="none" xmlns="http://www.w3.org/2000/svg">
<g opacity="0.12">
<path d="M15 10C15 7.23858 12.7614 5 10 5C7.23858 5 5 7.23858 5 10C5 12.7614 7.23858 15 10 15C12.7614 15 15 12.7614 15 10Z" fill="#6941C6"/>
<path d="M15 30C15 27.2386 12.7614 25 10 25C7.23858 25 5 27.2386 5 30C5 32.7614 7.23858 35 10 35C12.7614 35 15 32.7614 15 30Z" fill="#6941C6"/>
</g>
<path d="M33.3333 6.66667L14.1667 25.8333M14.1667 14.1667L33.3333 33.3333M29.1667 20H29.1833M36.6667 20H36.6833M10 5C12.7614 5 15 7.23858 15 10C15 12.7614 12.7614 15 10 15C7.23858 15 5 12.7614 5 10C5 7.23858 7.23858 5 10 5ZM10 25C12.7614 25 15 27.2386 15 30C15 32.7614 12.7614 35 10 35C7.23858 35 5 32.7614 5 30C5 27.2386 7.23858 25 10 25Z" stroke="#6941C6" stroke-width="3.33333" stroke-linecap="round" stroke-linejoin="round"/>
</svg>
