<svg width="40" height="40" viewBox="0 0 40 40" fill="none" xmlns="http://www.w3.org/2000/svg">
<path opacity="0.12" d="M12.4672 5H27.5326C30.1634 5 31.4787 5 32.5103 5.49903C33.4185 5.93839 34.1725 6.64222 34.6733 7.51804C35.2421 8.5128 35.3326 9.82506 35.5136 12.4496L36.6106 28.3556C36.2159 25.5178 33.7796 23.3333 30.8332 23.3333H9.16656C6.22013 23.3333 3.78392 25.5178 3.38916 28.3556L4.48612 12.4496C4.66713 9.82506 4.75763 8.5128 5.32645 7.51804C5.82725 6.64222 6.58129 5.93839 7.48949 5.49903C8.52103 5 9.83641 5 12.4672 5Z" fill="#6941C6"/>
<path d="M36.6666 29.1667L35.5137 12.4496C35.3327 9.82506 35.2422 8.5128 34.6734 7.51804C34.1726 6.64222 33.4185 5.93839 32.5103 5.49903C31.4788 5 30.1634 5 27.5326 5H12.4672C9.83644 5 8.52106 5 7.48952 5.49903C6.58132 5.93839 5.82728 6.64222 5.32648 7.51804C4.75766 8.5128 4.66716 9.82506 4.48615 12.4496L3.33325 29.1667M36.6666 29.1667C36.6666 32.3883 34.0549 35 30.8333 35H9.16659C5.94492 35 3.33325 32.3883 3.33325 29.1667M36.6666 29.1667C36.6666 25.945 34.0549 23.3333 30.8333 23.3333H9.16659C5.94492 23.3333 3.33325 25.945 3.33325 29.1667M9.99992 29.1667H10.0166M19.9999 29.1667H29.9999" stroke="#6941C6" stroke-width="3.33333" stroke-linecap="round" stroke-linejoin="round"/>
</svg>
