<svg width="40" height="40" viewBox="0 0 40 40" fill="none" xmlns="http://www.w3.org/2000/svg">
<path opacity="0.12" fill-rule="evenodd" clip-rule="evenodd" d="M31.0396 26.0009C30.9504 25.5094 31.0106 25.0024 31.2123 24.5454C31.4044 24.0973 31.7233 23.7151 32.1298 23.4459C32.5363 23.1767 33.0126 23.0322 33.5002 23.0303H33.6365C34.4402 23.0303 35.211 22.711 35.7793 22.1427C36.3476 21.5744 36.6668 20.8037 36.6668 20C36.6668 19.1963 36.3476 18.4255 35.7793 17.8572C35.211 17.2889 34.4402 16.9697 33.6365 16.9697H33.379C32.8914 16.9677 32.4151 16.8233 32.0086 16.5541C31.6021 16.2849 31.2831 15.9027 31.0911 15.4545V15.3333C30.8894 14.8763 30.8292 14.3694 30.9183 13.8779C31.0075 13.3864 31.2418 12.9328 31.5911 12.5757L31.682 12.4848C31.9637 12.2034 32.1872 11.8692 32.3397 11.5013C32.4922 11.1334 32.5707 10.7391 32.5707 10.3409C32.5707 9.94266 32.4922 9.54834 32.3397 9.18046C32.1872 8.81259 31.9637 8.47838 31.682 8.19695C31.4005 7.9152 31.0663 7.69169 30.6985 7.53919C30.3306 7.3867 29.9363 7.3082 29.538 7.3082C29.1398 7.3082 28.7455 7.3867 28.3776 7.53919C28.0097 7.69169 27.6755 7.9152 27.3941 8.19695L27.3032 8.28786C26.9461 8.63716 26.4926 8.87147 26.0011 8.96059C25.5095 9.04971 25.0026 8.98955 24.5456 8.78786C24.0975 8.59579 23.7153 8.27688 23.4461 7.87038C23.1769 7.46388 23.0324 6.98754 23.0305 6.49998V6.36362C23.0305 5.55993 22.7112 4.78916 22.1429 4.22087C21.5746 3.65258 20.8039 3.33331 20.0002 3.33331C19.1965 3.33331 18.4257 3.65258 17.8574 4.22087C17.2891 4.78916 16.9699 5.55993 16.9699 6.36362V6.62119C16.9679 7.10875 16.8234 7.58509 16.5542 7.99159C16.285 8.39809 15.9028 8.71701 15.4547 8.90907H15.3335C14.8765 9.11076 14.3696 9.17092 13.8781 9.0818C13.3866 8.99269 12.933 8.75837 12.5759 8.40907L12.485 8.31816C12.2036 8.03642 11.8694 7.8129 11.5015 7.66041C11.1336 7.50791 10.7393 7.42941 10.3411 7.42941C9.94284 7.42941 9.54852 7.50791 9.18065 7.66041C8.81277 7.8129 8.47857 8.03642 8.19713 8.31816C7.91539 8.5996 7.69187 8.9338 7.53938 9.30168C7.38688 9.66955 7.30839 10.0639 7.30839 10.4621C7.30839 10.8603 7.38688 11.2547 7.53938 11.6225C7.69187 11.9904 7.91539 12.3246 8.19713 12.606L8.28804 12.6969C8.63734 13.054 8.87166 13.5076 8.96078 13.9991C9.0499 14.4906 8.98973 14.9975 8.78804 15.4545C8.61488 15.9253 8.30409 16.3332 7.89607 16.625C7.48805 16.9168 7.00167 17.0792 6.50016 17.0909H6.3638C5.56011 17.0909 4.78934 17.4102 4.22105 17.9784C3.65276 18.5467 3.3335 19.3175 3.3335 20.1212C3.3335 20.9249 3.65276 21.6956 4.22105 22.2639C4.78934 22.8322 5.56011 23.1515 6.3638 23.1515H6.62138C7.10893 23.1534 7.58528 23.2979 7.99178 23.5671C8.39828 23.8363 8.71719 24.2185 8.90925 24.6666C9.11094 25.1236 9.17111 25.6306 9.08199 26.1221C8.99287 26.6136 8.75855 27.0671 8.40925 27.4242L8.31834 27.5151C8.0366 27.7966 7.81309 28.1308 7.66059 28.4986C7.50809 28.8665 7.4296 29.2608 7.4296 29.6591C7.4296 30.0573 7.50809 30.4516 7.66059 30.8195C7.81309 31.1874 8.0366 31.5216 8.31834 31.803C8.59978 32.0848 8.93399 32.3083 9.30186 32.4608C9.66973 32.6133 10.0641 32.6918 10.4623 32.6918C10.8605 32.6918 11.2548 32.6133 11.6227 32.4608C11.9906 32.3083 12.3248 32.0848 12.6062 31.803L12.6971 31.7121C13.0542 31.3628 13.5078 31.1285 13.9993 31.0394C14.4908 30.9503 14.9977 31.0104 15.4547 31.2121C15.9255 31.3853 16.3333 31.6961 16.6252 32.1041C16.917 32.5121 17.0793 32.9985 17.0911 33.5V33.6363C17.0911 34.44 17.4103 35.2108 17.9786 35.7791C18.5469 36.3474 19.3177 36.6666 20.1214 36.6666C20.9251 36.6666 21.6958 36.3474 22.2641 35.7791C22.8324 35.2108 23.1517 34.44 23.1517 33.6363V33.3788C23.1536 32.8912 23.2981 32.4149 23.5673 32.0084C23.8365 31.6019 24.2187 31.283 24.6668 31.0909C25.1238 30.8892 25.6308 30.829 26.1223 30.9182C26.6138 31.0073 27.0673 31.2416 27.4244 31.5909L27.5153 31.6818C27.7967 31.9635 28.131 32.1871 28.4988 32.3396C28.8667 32.4921 29.261 32.5705 29.6593 32.5705C30.0575 32.5705 30.4518 32.4921 30.8197 32.3396C31.1876 32.1871 31.5218 31.9635 31.8032 31.6818C32.0849 31.4004 32.3085 31.0662 32.461 30.6983C32.6134 30.3304 32.6919 29.9361 32.6919 29.5379C32.6919 29.1396 32.6134 28.7453 32.461 28.3774C32.3085 28.0096 32.0849 27.6754 31.8032 27.3939L31.7123 27.303C31.363 26.9459 31.1287 26.4924 31.0396 26.0009ZM25.0002 20C25.0002 22.7614 22.7616 25 20.0002 25C17.2387 25 15.0002 22.7614 15.0002 20C15.0002 17.2386 17.2387 15 20.0002 15C22.7616 15 25.0002 17.2386 25.0002 20Z" fill="#6941C6"/>
<path d="M20.0002 25C22.7616 25 25.0002 22.7614 25.0002 20C25.0002 17.2386 22.7616 15 20.0002 15C17.2387 15 15.0002 17.2386 15.0002 20C15.0002 22.7614 17.2387 25 20.0002 25Z" stroke="#6941C6" stroke-width="3.33333" stroke-linecap="round" stroke-linejoin="round"/>
<path d="M31.2123 24.5454C31.0106 25.0024 30.9504 25.5094 31.0396 26.0009C31.1287 26.4924 31.363 26.9459 31.7123 27.303L31.8032 27.3939C32.0849 27.6754 32.3085 28.0096 32.461 28.3774C32.6135 28.7453 32.6919 29.1396 32.6919 29.5379C32.6919 29.9361 32.6135 30.3304 32.461 30.6983C32.3085 31.0662 32.0849 31.4004 31.8032 31.6818C31.5218 31.9635 31.1876 32.1871 30.8197 32.3396C30.4518 32.4921 30.0575 32.5705 29.6593 32.5705C29.261 32.5705 28.8667 32.4921 28.4988 32.3396C28.131 32.1871 27.7967 31.9635 27.5153 31.6818L27.4244 31.5909C27.0673 31.2416 26.6138 31.0073 26.1223 30.9182C25.6308 30.829 25.1238 30.8892 24.6668 31.0909C24.2187 31.283 23.8365 31.6019 23.5673 32.0084C23.2981 32.4149 23.1536 32.8912 23.1517 33.3788V33.6363C23.1517 34.44 22.8324 35.2108 22.2641 35.7791C21.6958 36.3474 20.9251 36.6666 20.1214 36.6666C19.3177 36.6666 18.5469 36.3474 17.9786 35.7791C17.4103 35.2108 17.0911 34.44 17.0911 33.6363V33.5C17.0793 32.9985 16.917 32.5121 16.6252 32.1041C16.3333 31.6961 15.9255 31.3853 15.4547 31.2121C14.9977 31.0104 14.4908 30.9502 13.9993 31.0394C13.5078 31.1285 13.0542 31.3628 12.6971 31.7121L12.6062 31.803C12.3248 32.0848 11.9906 32.3083 11.6227 32.4608C11.2548 32.6133 10.8605 32.6918 10.4623 32.6918C10.0641 32.6918 9.66973 32.6133 9.30186 32.4608C8.93399 32.3083 8.59978 32.0848 8.31834 31.803C8.0366 31.5216 7.81309 31.1874 7.66059 30.8195C7.50809 30.4516 7.4296 30.0573 7.4296 29.6591C7.4296 29.2608 7.50809 28.8665 7.66059 28.4986C7.81309 28.1308 8.0366 27.7966 8.31834 27.5151L8.40925 27.4242C8.75855 27.0671 8.99287 26.6136 9.08199 26.1221C9.17111 25.6306 9.11094 25.1236 8.90925 24.6666C8.71719 24.2185 8.39828 23.8363 7.99178 23.5671C7.58528 23.2979 7.10893 23.1534 6.62138 23.1515H6.3638C5.56011 23.1515 4.78934 22.8322 4.22105 22.2639C3.65276 21.6956 3.3335 20.9249 3.3335 20.1212C3.3335 19.3175 3.65276 18.5467 4.22105 17.9784C4.78934 17.4102 5.56011 17.0909 6.3638 17.0909H6.50016C7.00167 17.0792 7.48805 16.9168 7.89607 16.625C8.30409 16.3332 8.61488 15.9253 8.78804 15.4545C8.98973 14.9975 9.0499 14.4906 8.96078 13.9991C8.87166 13.5076 8.63734 13.054 8.28804 12.6969L8.19713 12.606C7.91539 12.3246 7.69187 11.9904 7.53938 11.6225C7.38688 11.2547 7.30839 10.8603 7.30839 10.4621C7.30839 10.0639 7.38688 9.66955 7.53938 9.30168C7.69187 8.9338 7.91539 8.5996 8.19713 8.31816C8.47857 8.03641 8.81277 7.8129 9.18065 7.6604C9.54852 7.50791 9.94284 7.42941 10.3411 7.42941C10.7393 7.42941 11.1336 7.50791 11.5015 7.6604C11.8694 7.8129 12.2036 8.03641 12.485 8.31816L12.5759 8.40907C12.933 8.75837 13.3866 8.99269 13.8781 9.0818C14.3696 9.17092 14.8765 9.11076 15.3335 8.90907H15.4547C15.9028 8.71701 16.285 8.39809 16.5542 7.99159C16.8234 7.58509 16.9679 7.10875 16.9699 6.62119V6.36362C16.9699 5.55993 17.2891 4.78916 17.8574 4.22087C18.4257 3.65258 19.1965 3.33331 20.0002 3.33331C20.8038 3.33331 21.5746 3.65258 22.1429 4.22087C22.7112 4.78916 23.0305 5.55993 23.0305 6.36362V6.49998C23.0324 6.98754 23.1769 7.46388 23.4461 7.87038C23.7153 8.27688 24.0975 8.59579 24.5456 8.78786C25.0026 8.98955 25.5095 9.04971 26.0011 8.96059C26.4926 8.87147 26.9461 8.63716 27.3032 8.28786L27.3941 8.19695C27.6755 7.9152 28.0097 7.69169 28.3776 7.53919C28.7455 7.3867 29.1398 7.3082 29.538 7.3082C29.9363 7.3082 30.3306 7.3867 30.6985 7.53919C31.0663 7.69169 31.4005 7.9152 31.682 8.19695C31.9637 8.47838 32.1872 8.81259 32.3397 9.18046C32.4922 9.54834 32.5707 9.94266 32.5707 10.3409C32.5707 10.7391 32.4922 11.1334 32.3397 11.5013C32.1872 11.8692 31.9637 12.2034 31.682 12.4848L31.5911 12.5757C31.2418 12.9328 31.0075 13.3864 30.9183 13.8779C30.8292 14.3694 30.8894 14.8763 31.0911 15.3333V15.4545C31.2831 15.9027 31.6021 16.2849 32.0086 16.5541C32.4151 16.8233 32.8914 16.9677 33.379 16.9697H33.6365C34.4402 16.9697 35.211 17.2889 35.7793 17.8572C36.3476 18.4255 36.6668 19.1963 36.6668 20C36.6668 20.8037 36.3476 21.5744 35.7793 22.1427C35.211 22.711 34.4402 23.0303 33.6365 23.0303H33.5002C33.0126 23.0322 32.5363 23.1767 32.1298 23.4459C31.7233 23.7151 31.4043 24.0973 31.2123 24.5454Z" stroke="#6941C6" stroke-width="3.33333" stroke-linecap="round" stroke-linejoin="round"/>
</svg>
