<svg width="40" height="40" viewBox="0 0 40 40" fill="none" xmlns="http://www.w3.org/2000/svg">
<path opacity="0.12" fill-rule="evenodd" clip-rule="evenodd" d="M31.0393 26.0009C30.9502 25.5094 31.0104 25.0024 31.212 24.5454C31.4041 24.0973 31.723 23.7151 32.1295 23.4459C32.536 23.1767 33.0124 23.0322 33.4999 23.0303H33.6363C34.44 23.0303 35.2107 22.711 35.779 22.1427C36.3473 21.5744 36.6666 20.8037 36.6666 20C36.6666 19.1963 36.3473 18.4255 35.779 17.8572C35.2107 17.2889 34.44 16.9697 33.6363 16.9697H33.3787C32.8912 16.9677 32.4148 16.8233 32.0083 16.5541C31.6018 16.2849 31.2829 15.9027 31.0908 15.4545V15.3333C30.8891 14.8763 30.829 14.3694 30.9181 13.8779C31.0072 13.3864 31.2415 12.9328 31.5908 12.5757L31.6817 12.4848C31.9635 12.2034 32.187 11.8692 32.3395 11.5013C32.492 11.1334 32.5705 10.7391 32.5705 10.3409C32.5705 9.94266 32.492 9.54834 32.3395 9.18046C32.187 8.81259 31.9635 8.47838 31.6817 8.19695C31.4003 7.9152 31.0661 7.69169 30.6982 7.53919C30.3304 7.3867 29.936 7.3082 29.5378 7.3082C29.1396 7.3082 28.7452 7.3867 28.3774 7.53919C28.0095 7.69169 27.6753 7.9152 27.3939 8.19695L27.303 8.28786C26.9459 8.63716 26.4923 8.87147 26.0008 8.96059C25.5093 9.04971 25.0024 8.98955 24.5454 8.78786C24.0972 8.59579 23.715 8.27688 23.4458 7.87038C23.1766 7.46388 23.0322 6.98754 23.0302 6.49998V6.36362C23.0302 5.55993 22.711 4.78916 22.1427 4.22087C21.5744 3.65258 20.8036 3.33331 19.9999 3.33331C19.1962 3.33331 18.4255 3.65258 17.8572 4.22087C17.2889 4.78916 16.9696 5.55993 16.9696 6.36362V6.62119C16.9677 7.10875 16.8232 7.58509 16.554 7.99159C16.2848 8.39809 15.9026 8.71701 15.4545 8.90907H15.3333C14.8763 9.11076 14.3693 9.17092 13.8778 9.0818C13.3863 8.99269 12.9328 8.75837 12.5757 8.40907L12.4848 8.31816C12.2033 8.03642 11.8691 7.8129 11.5013 7.66041C11.1334 7.50791 10.7391 7.42941 10.3408 7.42941C9.9426 7.42941 9.54828 7.50791 9.1804 7.66041C8.81253 7.8129 8.47832 8.03642 8.19689 8.31816C7.91514 8.5996 7.69163 8.9338 7.53913 9.30168C7.38663 9.66955 7.30814 10.0639 7.30814 10.4621C7.30814 10.8603 7.38663 11.2547 7.53913 11.6225C7.69163 11.9904 7.91514 12.3246 8.19689 12.606L8.2878 12.6969C8.6371 13.054 8.87141 13.5076 8.96053 13.9991C9.04965 14.4906 8.98949 14.9975 8.7878 15.4545C8.61464 15.9253 8.30385 16.3332 7.89583 16.625C7.4878 16.9168 7.00143 17.0792 6.49992 17.0909H6.36356C5.55987 17.0909 4.7891 17.4102 4.22081 17.9784C3.65252 18.5467 3.33325 19.3175 3.33325 20.1212C3.33325 20.9249 3.65252 21.6956 4.22081 22.2639C4.7891 22.8322 5.55987 23.1515 6.36356 23.1515H6.62113C7.10869 23.1534 7.58503 23.2979 7.99153 23.5671C8.39803 23.8363 8.71694 24.2185 8.90901 24.6666C9.1107 25.1236 9.17086 25.6306 9.08174 26.1221C8.99262 26.6136 8.75831 27.0671 8.40901 27.4242L8.3181 27.5151C8.03635 27.7966 7.81284 28.1308 7.66034 28.4986C7.50785 28.8665 7.42935 29.2608 7.42935 29.6591C7.42935 30.0573 7.50785 30.4516 7.66034 30.8195C7.81284 31.1874 8.03635 31.5216 8.3181 31.803C8.59953 32.0848 8.93374 32.3083 9.30162 32.4608C9.66949 32.6133 10.0638 32.6918 10.462 32.6918C10.8603 32.6918 11.2546 32.6133 11.6225 32.4608C11.9903 32.3083 12.3245 32.0848 12.606 31.803L12.6969 31.7121C13.054 31.3628 13.5075 31.1285 13.999 31.0394C14.4905 30.9503 14.9975 31.0104 15.4545 31.2121C15.9253 31.3853 16.3331 31.6961 16.6249 32.1041C16.9168 32.5121 17.0791 32.9985 17.0908 33.5V33.6363C17.0908 34.44 17.4101 35.2108 17.9784 35.7791C18.5467 36.3474 19.3174 36.6666 20.1211 36.6666C20.9248 36.6666 21.6956 36.3474 22.2639 35.7791C22.8322 35.2108 23.1514 34.44 23.1514 33.6363V33.3788C23.1534 32.8912 23.2978 32.4149 23.5671 32.0084C23.8363 31.6019 24.2185 31.283 24.6666 31.0909C25.1236 30.8892 25.6305 30.829 26.122 30.9182C26.6135 31.0073 27.0671 31.2416 27.4242 31.5909L27.5151 31.6818C27.7965 31.9635 28.1307 32.1871 28.4986 32.3396C28.8665 32.4921 29.2608 32.5705 29.659 32.5705C30.0572 32.5705 30.4516 32.4921 30.8194 32.3396C31.1873 32.1871 31.5215 31.9635 31.803 31.6818C32.0847 31.4004 32.3082 31.0662 32.4607 30.6983C32.6132 30.3304 32.6917 29.9361 32.6917 29.5379C32.6917 29.1396 32.6132 28.7453 32.4607 28.3774C32.3082 28.0096 32.0847 27.6754 31.803 27.3939L31.712 27.303C31.3627 26.9459 31.1284 26.4924 31.0393 26.0009ZM24.9999 20C24.9999 22.7614 22.7613 25 19.9999 25C17.2385 25 14.9999 22.7614 14.9999 20C14.9999 17.2386 17.2385 15 19.9999 15C22.7613 15 24.9999 17.2386 24.9999 20Z" fill="#6941C6"/>
<path d="M19.9999 25C22.7613 25 24.9999 22.7614 24.9999 20C24.9999 17.2386 22.7613 15 19.9999 15C17.2385 15 14.9999 17.2386 14.9999 20C14.9999 22.7614 17.2385 25 19.9999 25Z" stroke="#6941C6" stroke-width="3.33333" stroke-linecap="round" stroke-linejoin="round"/>
<path d="M31.212 24.5454C31.0104 25.0024 30.9502 25.5094 31.0393 26.0009C31.1284 26.4924 31.3627 26.9459 31.712 27.303L31.803 27.3939C32.0847 27.6754 32.3082 28.0096 32.4607 28.3774C32.6132 28.7453 32.6917 29.1396 32.6917 29.5379C32.6917 29.9361 32.6132 30.3304 32.4607 30.6983C32.3082 31.0662 32.0847 31.4004 31.803 31.6818C31.5215 31.9635 31.1873 32.1871 30.8194 32.3396C30.4516 32.4921 30.0572 32.5705 29.659 32.5705C29.2608 32.5705 28.8665 32.4921 28.4986 32.3396C28.1307 32.1871 27.7965 31.9635 27.5151 31.6818L27.4242 31.5909C27.0671 31.2416 26.6135 31.0073 26.122 30.9182C25.6305 30.829 25.1236 30.8892 24.6666 31.0909C24.2185 31.283 23.8363 31.6019 23.5671 32.0084C23.2978 32.4149 23.1534 32.8912 23.1514 33.3788V33.6363C23.1514 34.44 22.8322 35.2108 22.2639 35.7791C21.6956 36.3474 20.9248 36.6666 20.1211 36.6666C19.3174 36.6666 18.5467 36.3474 17.9784 35.7791C17.4101 35.2108 17.0908 34.44 17.0908 33.6363V33.5C17.0791 32.9985 16.9168 32.5121 16.6249 32.1041C16.3331 31.6961 15.9253 31.3853 15.4545 31.2121C14.9975 31.0104 14.4905 30.9502 13.999 31.0394C13.5075 31.1285 13.054 31.3628 12.6969 31.7121L12.606 31.803C12.3245 32.0848 11.9903 32.3083 11.6225 32.4608C11.2546 32.6133 10.8603 32.6918 10.462 32.6918C10.0638 32.6918 9.66949 32.6133 9.30162 32.4608C8.93374 32.3083 8.59953 32.0848 8.3181 31.803C8.03635 31.5216 7.81284 31.1874 7.66034 30.8195C7.50785 30.4516 7.42935 30.0573 7.42935 29.6591C7.42935 29.2608 7.50785 28.8665 7.66034 28.4986C7.81284 28.1308 8.03635 27.7966 8.3181 27.5151L8.40901 27.4242C8.75831 27.0671 8.99262 26.6136 9.08174 26.1221C9.17086 25.6306 9.1107 25.1236 8.90901 24.6666C8.71694 24.2185 8.39803 23.8363 7.99153 23.5671C7.58503 23.2979 7.10869 23.1534 6.62113 23.1515H6.36356C5.55987 23.1515 4.7891 22.8322 4.22081 22.2639C3.65252 21.6956 3.33325 20.9249 3.33325 20.1212C3.33325 19.3175 3.65252 18.5467 4.22081 17.9784C4.7891 17.4102 5.55987 17.0909 6.36356 17.0909H6.49992C7.00143 17.0792 7.4878 16.9168 7.89583 16.625C8.30385 16.3332 8.61464 15.9253 8.7878 15.4545C8.98949 14.9975 9.04965 14.4906 8.96053 13.9991C8.87141 13.5076 8.6371 13.054 8.2878 12.6969L8.19689 12.606C7.91514 12.3246 7.69163 11.9904 7.53913 11.6225C7.38663 11.2547 7.30814 10.8603 7.30814 10.4621C7.30814 10.0639 7.38663 9.66955 7.53913 9.30168C7.69163 8.9338 7.91514 8.5996 8.19689 8.31816C8.47832 8.03641 8.81253 7.8129 9.1804 7.6604C9.54828 7.50791 9.9426 7.42941 10.3408 7.42941C10.7391 7.42941 11.1334 7.50791 11.5013 7.6604C11.8691 7.8129 12.2033 8.03641 12.4848 8.31816L12.5757 8.40907C12.9328 8.75837 13.3863 8.99269 13.8778 9.0818C14.3693 9.17092 14.8763 9.11076 15.3333 8.90907H15.4545C15.9026 8.71701 16.2848 8.39809 16.554 7.99159C16.8232 7.58509 16.9677 7.10875 16.9696 6.62119V6.36362C16.9696 5.55993 17.2889 4.78916 17.8572 4.22087C18.4255 3.65258 19.1962 3.33331 19.9999 3.33331C20.8036 3.33331 21.5744 3.65258 22.1427 4.22087C22.711 4.78916 23.0302 5.55993 23.0302 6.36362V6.49998C23.0322 6.98754 23.1766 7.46388 23.4458 7.87038C23.715 8.27688 24.0972 8.59579 24.5454 8.78786C25.0024 8.98955 25.5093 9.04971 26.0008 8.96059C26.4923 8.87147 26.9459 8.63716 27.303 8.28786L27.3939 8.19695C27.6753 7.9152 28.0095 7.69169 28.3774 7.53919C28.7452 7.3867 29.1396 7.3082 29.5378 7.3082C29.936 7.3082 30.3304 7.3867 30.6982 7.53919C31.0661 7.69169 31.4003 7.9152 31.6817 8.19695C31.9635 8.47838 32.187 8.81259 32.3395 9.18046C32.492 9.54834 32.5705 9.94266 32.5705 10.3409C32.5705 10.7391 32.492 11.1334 32.3395 11.5013C32.187 11.8692 31.9635 12.2034 31.6817 12.4848L31.5908 12.5757C31.2415 12.9328 31.0072 13.3864 30.9181 13.8779C30.829 14.3694 30.8891 14.8763 31.0908 15.3333V15.4545C31.2829 15.9027 31.6018 16.2849 32.0083 16.5541C32.4148 16.8233 32.8912 16.9677 33.3787 16.9697H33.6363C34.44 16.9697 35.2107 17.2889 35.779 17.8572C36.3473 18.4255 36.6666 19.1963 36.6666 20C36.6666 20.8037 36.3473 21.5744 35.779 22.1427C35.2107 22.711 34.44 23.0303 33.6363 23.0303H33.4999C33.0124 23.0322 32.536 23.1767 32.1295 23.4459C31.723 23.7151 31.4041 24.0973 31.212 24.5454Z" stroke="#6941C6" stroke-width="3.33333" stroke-linecap="round" stroke-linejoin="round"/>
</svg>
