<svg width="40" height="40" viewBox="0 0 40 40" fill="none" xmlns="http://www.w3.org/2000/svg">
<path opacity="0.12" d="M13 35H27C29.8003 35 31.2004 35 32.27 34.455C33.2108 33.9757 33.9757 33.2108 34.455 32.27C35 31.2004 35 29.8003 35 27V23.3333L16.6667 5H13C10.1997 5 8.79961 5 7.73005 5.54497C6.78924 6.02433 6.02433 6.78924 5.54497 7.73005C5 8.79961 5 10.1997 5 13V27C5 29.8003 5 31.2004 5.54497 32.27C6.02433 33.2108 6.78924 33.9757 7.73005 34.455C8.79961 35 10.1997 35 13 35Z" fill="#6941C6"/>
<path d="M35 10H29.6667C26.8664 10 25.4663 10 24.3967 10.545C23.4559 11.0243 22.691 11.7892 22.2116 12.73C21.6667 13.7996 21.6667 15.1997 21.6667 18V20M35 10L30 5M35 10L30 15M16.6667 5H13C10.1997 5 8.79961 5 7.73005 5.54497C6.78924 6.02433 6.02433 6.78924 5.54497 7.73005C5 8.79961 5 10.1997 5 13V27C5 29.8003 5 31.2004 5.54497 32.27C6.02433 33.2108 6.78924 33.9757 7.73005 34.455C8.79961 35 10.1997 35 13 35H27C29.8003 35 31.2004 35 32.27 34.455C33.2108 33.9757 33.9757 33.2108 34.455 32.27C35 31.2004 35 29.8003 35 27V23.3333" stroke="#6941C6" stroke-width="3.33333" stroke-linecap="round" stroke-linejoin="round"/>
</svg>
