<svg width="40" height="40" viewBox="0 0 40 40" fill="none" xmlns="http://www.w3.org/2000/svg">
<path opacity="0.12" d="M10.1272 7.03578L19.0635 3.68466C19.41 3.55472 19.5832 3.48976 19.7615 3.464C19.8405 3.45258 19.9202 3.44687 19.9998 3.44687V36.4362C19.8756 36.4362 19.7514 36.4254 19.6504 36.4037C19.39 36.3479 19.2055 36.2403 18.8365 36.025C15.5898 34.1309 6.6665 28.1809 6.6665 20.0002V12.0295C6.6665 10.697 6.6665 10.0308 6.88444 9.45804C7.07696 8.9521 7.38981 8.50066 7.79593 8.14275C8.25566 7.7376 8.87951 7.50366 10.1272 7.03578Z" fill="#6941C6"/>
<path d="M19.9998 4.16665V35.8333M33.3332 20C33.3332 28.1807 24.4099 34.1307 21.1632 36.0248C20.7942 36.24 20.6097 36.3477 20.3493 36.4035C20.1472 36.4468 19.8524 36.4468 19.6504 36.4035C19.39 36.3477 19.2055 36.24 18.8365 36.0248C15.5898 34.1307 6.6665 28.1807 6.6665 20V12.0293C6.6665 10.6968 6.6665 10.0305 6.88444 9.45783C7.07696 8.95189 7.38981 8.50045 7.79593 8.14254C8.25566 7.73739 8.8795 7.50345 10.1272 7.03557L19.0635 3.68444C19.41 3.55451 19.5832 3.48954 19.7615 3.46379C19.9196 3.44094 20.0801 3.44094 20.2382 3.46379C20.4164 3.48954 20.5897 3.55451 20.9362 3.68444L29.8725 7.03557C31.1202 7.50345 31.744 7.73739 32.2037 8.14254C32.6099 8.50045 32.9227 8.95189 33.1152 9.45783C33.3332 10.0305 33.3332 10.6968 33.3332 12.0293V20Z" stroke="#6941C6" stroke-width="3.33333" stroke-linecap="round" stroke-linejoin="round"/>
</svg>
