<svg width="40" height="40" viewBox="0 0 40 40" fill="none" xmlns="http://www.w3.org/2000/svg">
<path opacity="0.12" d="M20.0001 28.3333C24.6025 28.3333 28.3334 24.6024 28.3334 20C28.3334 15.3976 24.6025 11.6667 20.0001 11.6667C15.3977 11.6667 11.6667 15.3976 11.6667 20C11.6667 24.6024 15.3977 28.3333 20.0001 28.3333Z" fill="#6941C6"/>
<path d="M19.9999 20H20.0166M29.9999 10H30.0166M9.99992 10H10.0166M29.9999 30H30.0166M9.99992 30H10.0166M11.3333 36.6667H28.6666C31.4668 36.6667 32.867 36.6667 33.9365 36.1217C34.8773 35.6423 35.6423 34.8774 36.1216 33.9366C36.6666 32.8671 36.6666 31.4669 36.6666 28.6667V11.3333C36.6666 8.53308 36.6666 7.13295 36.1216 6.06339C35.6423 5.12258 34.8773 4.35768 33.9365 3.87831C32.867 3.33334 31.4668 3.33334 28.6666 3.33334H11.3333C8.53299 3.33334 7.13286 3.33334 6.0633 3.87831C5.12249 4.35768 4.35759 5.12258 3.87822 6.06339C3.33325 7.13295 3.33325 8.53308 3.33325 11.3333V28.6667C3.33325 31.4669 3.33325 32.8671 3.87822 33.9366C4.35759 34.8774 5.12249 35.6423 6.0633 36.1217C7.13286 36.6667 8.53299 36.6667 11.3333 36.6667ZM20.8333 20C20.8333 20.4602 20.4602 20.8333 19.9999 20.8333C19.5397 20.8333 19.1666 20.4602 19.1666 20C19.1666 19.5398 19.5397 19.1667 19.9999 19.1667C20.4602 19.1667 20.8333 19.5398 20.8333 20ZM28.3333 20C28.3333 24.6024 24.6023 28.3333 19.9999 28.3333C15.3975 28.3333 11.6666 24.6024 11.6666 20C11.6666 15.3976 15.3975 11.6667 19.9999 11.6667C24.6023 11.6667 28.3333 15.3976 28.3333 20Z" stroke="#6941C6" stroke-width="3.33333" stroke-linecap="round" stroke-linejoin="round"/>
</svg>
