<svg width="40" height="40" viewBox="0 0 40 40" fill="none" xmlns="http://www.w3.org/2000/svg">
<path opacity="0.12" d="M31.785 31.7851C28.7689 34.8012 24.6023 36.6666 19.9999 36.6666C15.3976 36.6666 11.2309 34.8012 8.21484 31.7851L8.5424 31.4576C9.6954 30.3046 10.2719 29.7281 10.9447 29.3158C11.5412 28.9503 12.1915 28.6809 12.8717 28.5176C13.6389 28.3334 14.4542 28.3334 16.0848 28.3334L23.9149 28.3333C25.5455 28.3333 26.3609 28.3333 27.1281 28.5175C27.8084 28.6808 28.4587 28.9502 29.0551 29.3157C29.7279 29.728 30.3044 30.3045 31.4575 31.4575L31.785 31.7851Z" fill="#6941C6"/>
<path d="M36.6666 20C36.6666 29.2047 29.2047 36.6667 19.9999 36.6667C10.7952 36.6667 3.33325 29.2047 3.33325 20M36.6666 20C36.6666 10.7953 29.2047 3.33333 19.9999 3.33333M36.6666 20H32.4999M3.33325 20C3.33325 10.7953 10.7952 3.33333 19.9999 3.33333M3.33325 20H7.49992M19.9999 3.33333V7.5M31.7973 8.33333L22.4998 17.5M31.7973 31.7974L31.4575 31.4576C30.3045 30.3045 29.7279 29.728 29.0552 29.3157C28.4587 28.9502 27.8084 28.6809 27.1281 28.5175C26.3609 28.3333 25.5456 28.3333 23.9149 28.3334L16.0848 28.3334C14.4542 28.3334 13.6389 28.3334 12.8717 28.5176C12.1915 28.6809 11.5412 28.9503 10.9447 29.3158C10.2719 29.7281 9.69541 30.3046 8.54241 31.4576L8.20264 31.7974M8.20264 8.33333L11.0967 11.2274M23.3333 20C23.3333 21.8409 21.8409 23.3333 19.9999 23.3333C18.159 23.3333 16.6666 21.8409 16.6666 20C16.6666 18.1591 18.159 16.6667 19.9999 16.6667C21.8409 16.6667 23.3333 18.1591 23.3333 20Z" stroke="#6941C6" stroke-width="3.33333" stroke-linecap="round" stroke-linejoin="round"/>
</svg>
