<svg width="40" height="40" viewBox="0 0 40 40" fill="none" xmlns="http://www.w3.org/2000/svg">
<path opacity="0.12" d="M5.7441 16.2234C6.14494 16.1949 6.54965 16.1804 6.95775 16.1804C16.2703 16.1804 23.8196 23.7297 23.8196 33.0423C23.8196 33.4504 23.8051 33.8551 23.7766 34.256C23.7268 34.9563 23.7019 35.3064 23.4978 35.5227C23.332 35.6984 23.0491 35.8039 22.8087 35.7799C22.5128 35.7502 22.2437 35.4811 21.7055 34.9429L5.05717 18.2946C4.51895 17.7564 4.24984 17.4872 4.2202 17.1913C4.19612 16.951 4.30171 16.6681 4.47736 16.5023C4.69362 16.2981 5.04378 16.2732 5.7441 16.2234Z" fill="#6941C6"/>
<path d="M36.6669 20.1952C36.6669 10.8827 29.1176 3.33334 19.805 3.33334C12.2466 3.33334 5.84978 8.30643 3.70804 15.159C3.57085 15.598 3.50225 15.8175 3.50872 16.0919C3.51398 16.3151 3.58182 16.5908 3.6807 16.7909C3.80231 17.037 3.99008 17.2248 4.36561 17.6003L22.4006 35.6345C22.7761 36.01 22.9639 36.1978 23.21 36.3194C23.4102 36.4183 23.6859 36.4861 23.9091 36.4913C24.1835 36.4978 24.403 36.4292 24.842 36.292C31.6942 34.15 36.6669 27.7533 36.6669 20.1952Z" stroke="#6941C6" stroke-width="3.33333" stroke-linecap="round" stroke-linejoin="round"/>
<path d="M5.74385 16.2235C6.14469 16.195 6.5494 16.1805 6.9575 16.1805C16.2701 16.1805 23.8194 23.7298 23.8194 33.0424C23.8194 33.4505 23.8049 33.8552 23.7764 34.256C23.7266 34.9564 23.7017 35.3065 23.4975 35.5228C23.3317 35.6984 23.0488 35.804 22.8085 35.7799C22.5126 35.7503 22.2435 35.4812 21.7052 34.943L5.05692 18.2947C4.5187 17.7564 4.24959 17.4873 4.21995 17.1914C4.19587 16.9511 4.30146 16.6682 4.47711 16.5024C4.69337 16.2982 5.04353 16.2733 5.74385 16.2235Z" stroke="#6941C6" stroke-width="3.33333" stroke-linecap="round" stroke-linejoin="round"/>
</svg>
