<svg width="40" height="40" viewBox="0 0 40 40" fill="none" xmlns="http://www.w3.org/2000/svg">
<path opacity="0.12" d="M23.9429 7.27622C23.2289 6.56226 22.8719 6.20528 22.5655 6.18116C22.2995 6.16023 22.0397 6.26788 21.8664 6.47072C21.6667 6.70449 21.6667 7.20934 21.6667 8.21903V10.3334C21.6667 13.1337 21.6667 14.5338 22.2117 15.6034C22.6911 16.5442 23.456 17.3091 24.3968 17.7884C25.4664 18.3334 26.8665 18.3334 29.6667 18.3334H31.7811" fill="#6941C6"/>
<path d="M21.6667 5.83333V10.3333C21.6667 13.1336 21.6667 14.5337 22.2116 15.6033C22.691 16.5441 23.4559 17.309 24.3967 17.7884C25.4663 18.3333 26.8664 18.3333 29.6667 18.3333H34.1667M35 21.647V27C35 29.8003 35 31.2004 34.455 32.27C33.9757 33.2108 33.2108 33.9757 32.27 34.455C31.2004 35 29.8003 35 27 35H13C10.1997 35 8.79961 35 7.73005 34.455C6.78924 33.9757 6.02433 33.2108 5.54497 32.27C5 31.2004 5 29.8003 5 27V13C5 10.1997 5 8.79961 5.54497 7.73005C6.02433 6.78924 6.78924 6.02433 7.73005 5.54497C8.79961 5 10.1997 5 13 5H18.353C19.5759 5 20.1874 5 20.7628 5.13815C21.273 5.26063 21.7607 5.46266 22.2081 5.7368C22.7127 6.04601 23.1451 6.47839 24.0098 7.34315L32.6569 15.9902C33.5216 16.8549 33.954 17.2873 34.2632 17.7919C34.5373 18.2393 34.7394 18.727 34.8619 19.2372C35 19.8126 35 20.4241 35 21.647Z" stroke="#6941C6" stroke-width="3.33333" stroke-linecap="round" stroke-linejoin="round"/>
</svg>
