<svg width="40" height="40" viewBox="0 0 40 40" fill="none" xmlns="http://www.w3.org/2000/svg">
<path opacity="0.12" d="M31.3333 11.6667H28.3333V28.3333H31.3333C33.2001 28.3333 34.1335 28.3333 34.8466 27.97C35.4738 27.6504 35.9837 27.1405 36.3033 26.5133C36.6666 25.8003 36.6666 24.8668 36.6666 23V17C36.6666 15.1331 36.6666 14.1997 36.3033 13.4867C35.9837 12.8595 35.4738 12.3495 34.8466 12.03C34.1335 11.6667 33.2001 11.6667 31.3333 11.6667Z" fill="#6941C6"/>
<path d="M21.6666 11.6667H8.66659C6.79974 11.6667 5.86632 11.6667 5.15328 12.03C4.52608 12.3496 4.01614 12.8595 3.69656 13.4867C3.33325 14.1997 3.33325 15.1332 3.33325 17V23C3.33325 24.8668 3.33325 25.8003 3.69656 26.5133C4.01614 27.1405 4.52608 27.6504 5.15328 27.97C5.86632 28.3333 6.79974 28.3333 8.66658 28.3333H21.6666M28.3333 11.6667H31.3333C33.2001 11.6667 34.1335 11.6667 34.8466 12.03C35.4738 12.3496 35.9837 12.8595 36.3033 13.4867C36.6666 14.1997 36.6666 15.1332 36.6666 17V23C36.6666 24.8668 36.6666 25.8003 36.3033 26.5133C35.9837 27.1405 35.4738 27.6504 34.8466 27.97C34.1335 28.3333 33.2001 28.3333 31.3333 28.3333H28.3333M28.3333 35L28.3333 5M32.4999 5.00001L24.1666 5M32.4999 35L24.1666 35" stroke="#6941C6" stroke-width="3.33333" stroke-linecap="round" stroke-linejoin="round"/>
</svg>
