<svg width="40" height="40" viewBox="0 0 40 40" fill="none" xmlns="http://www.w3.org/2000/svg">
<path opacity="0.12" fill-rule="evenodd" clip-rule="evenodd" d="M11.6666 11.6667C7.06421 11.6667 3.33325 15.3976 3.33325 20C3.33325 24.6024 7.06421 28.3333 11.6666 28.3333H28.3333C23.7309 28.3333 19.9999 24.6024 19.9999 20C19.9999 15.3976 23.7309 11.6667 28.3333 11.6667H11.6666Z" fill="#6941C6"/>
<path d="M28.3333 28.3333H11.6666C7.06421 28.3333 3.33325 24.6024 3.33325 20C3.33325 15.3976 7.06421 11.6667 11.6666 11.6667H28.3333M28.3333 28.3333C32.9356 28.3333 36.6666 24.6024 36.6666 20C36.6666 15.3976 32.9356 11.6667 28.3333 11.6667M28.3333 28.3333C23.7309 28.3333 19.9999 24.6024 19.9999 20C19.9999 15.3976 23.7309 11.6667 28.3333 11.6667" stroke="#6941C6" stroke-width="3.33333" stroke-linecap="round" stroke-linejoin="round"/>
</svg>
