<svg width="40" height="40" viewBox="0 0 40 40" fill="none" xmlns="http://www.w3.org/2000/svg">
<path opacity="0.12" d="M26.0523 12.7189C25.3923 12.0589 25.0623 11.7289 24.9386 11.3483C24.8299 11.0136 24.8299 10.653 24.9386 10.3183C25.0623 9.93774 25.3923 9.60772 26.0523 8.94769L30.783 4.21707C29.5276 3.64935 28.1341 3.33331 26.6667 3.33331C21.1439 3.33331 16.6667 7.81047 16.6667 13.3333C16.6667 14.1517 16.765 14.9472 16.9505 15.7085C17.1491 16.5237 17.2484 16.9313 17.2308 17.1889C17.2123 17.4585 17.1721 17.6019 17.0478 17.8418C16.929 18.071 16.7015 18.2986 16.2464 18.7536L5.83338 29.1666C4.45267 30.5474 4.45267 32.7859 5.83339 34.1666C7.2141 35.5474 9.45267 35.5474 10.8334 34.1666L21.2464 23.7536C21.7015 23.2986 21.929 23.071 22.1582 22.9523C22.3981 22.8279 22.5416 22.7877 22.8112 22.7693C23.0687 22.7516 23.4763 22.8509 24.2916 23.0495C25.0529 23.235 25.8483 23.3333 26.6667 23.3333C32.1896 23.3333 36.6667 18.8562 36.6667 13.3333C36.6667 11.866 36.3507 10.4724 35.783 9.21708L31.0523 13.9477C30.3923 14.6077 30.0623 14.9377 29.6817 15.0614C29.347 15.1701 28.9864 15.1701 28.6517 15.0614C28.2711 14.9377 27.9411 14.6077 27.2811 13.9477L26.0523 12.7189Z" fill="#6941C6"/>
<path d="M26.0523 12.7189C25.3923 12.0589 25.0623 11.7289 24.9386 11.3483C24.8299 11.0136 24.8299 10.653 24.9386 10.3183C25.0623 9.93774 25.3923 9.60772 26.0523 8.94769L30.783 4.21707C29.5276 3.64935 28.1341 3.33331 26.6667 3.33331C21.1439 3.33331 16.6667 7.81047 16.6667 13.3333C16.6667 14.1517 16.765 14.9471 16.9505 15.7085C17.1491 16.5237 17.2484 16.9313 17.2308 17.1889C17.2123 17.4585 17.1721 17.6019 17.0478 17.8418C16.929 18.071 16.7015 18.2986 16.2464 18.7536L5.83338 29.1666C4.45267 30.5474 4.45267 32.7859 5.83339 34.1666C7.2141 35.5474 9.45267 35.5474 10.8334 34.1666L21.2464 23.7536C21.7015 23.2986 21.929 23.071 22.1582 22.9523C22.3981 22.8279 22.5416 22.7877 22.8112 22.7693C23.0687 22.7516 23.4763 22.8509 24.2916 23.0495C25.0529 23.235 25.8483 23.3333 26.6667 23.3333C32.1896 23.3333 36.6667 18.8562 36.6667 13.3333C36.6667 11.866 36.3507 10.4724 35.783 9.21708L31.0523 13.9477C30.3923 14.6077 30.0623 14.9377 29.6817 15.0614C29.347 15.1701 28.9864 15.1701 28.6517 15.0614C28.2711 14.9377 27.9411 14.6077 27.2811 13.9477L26.0523 12.7189Z" stroke="#6941C6" stroke-width="3.33333" stroke-linecap="round" stroke-linejoin="round"/>
</svg>
