<svg width="40" height="40" viewBox="0 0 40 40" fill="none" xmlns="http://www.w3.org/2000/svg">
<path opacity="0.12" d="M31.6666 28.6667V10H8.33325V28.6667C8.33325 31.4669 8.33325 32.8671 8.87822 33.9366C9.35759 34.8774 10.1225 35.6423 11.0633 36.1217C12.1329 36.6667 13.533 36.6667 16.3333 36.6667H23.6666C26.4668 36.6667 27.867 36.6667 28.9365 36.1217C29.8773 35.6423 30.6423 34.8774 31.1216 33.9366C31.6666 32.8671 31.6666 31.4669 31.6666 28.6667Z" fill="#6941C6"/>
<path d="M26.6667 10V8.66667C26.6667 6.79982 26.6667 5.8664 26.3034 5.15336C25.9838 4.52616 25.4738 4.01622 24.8466 3.69664C24.1336 3.33333 23.2002 3.33333 21.3333 3.33333H18.6667C16.7998 3.33333 15.8664 3.33333 15.1534 3.69664C14.5262 4.01622 14.0162 4.52616 13.6966 5.15336C13.3333 5.8664 13.3333 6.79982 13.3333 8.66667V10M16.6667 19.1667V27.5M23.3333 19.1667V27.5M5 10H35M31.6667 10V28.6667C31.6667 31.4669 31.6667 32.8671 31.1217 33.9366C30.6423 34.8774 29.8774 35.6423 28.9366 36.1217C27.8671 36.6667 26.4669 36.6667 23.6667 36.6667H16.3333C13.5331 36.6667 12.1329 36.6667 11.0634 36.1217C10.1226 35.6423 9.35767 34.8774 8.8783 33.9366C8.33333 32.8671 8.33333 31.4669 8.33333 28.6667V10" stroke="#6941C6" stroke-width="3.33333" stroke-linecap="round" stroke-linejoin="round"/>
</svg>
