<svg width="40" height="40" viewBox="0 0 40 40" fill="none" xmlns="http://www.w3.org/2000/svg">
<path opacity="0.12" d="M5 13C5 10.1997 5 8.79961 5.54497 7.73005C6.02433 6.78924 6.78924 6.02433 7.73005 5.54497C8.79961 5 10.1997 5 13 5H27C29.8003 5 31.2004 5 32.27 5.54497C33.2108 6.02433 33.9757 6.78924 34.455 7.73005C35 8.79961 35 10.1997 35 13V27C35 29.8003 35 31.2004 34.455 32.27C33.9757 33.2108 33.2108 33.9757 32.27 34.455C31.2004 35 29.8003 35 27 35H13C10.1997 35 8.79961 35 7.73005 34.455C6.78924 33.9757 6.02433 33.2108 5.54497 32.27C5 31.2004 5 29.8003 5 27V13Z" fill="#6941C6"/>
<path d="M25.8333 11.6667V17.5C25.8333 20.7217 23.2217 23.3333 20 23.3333C16.7783 23.3333 14.1667 20.7217 14.1667 17.5V11.6667M13.3333 28.3333H26.6667M13 35H27C29.8003 35 31.2004 35 32.27 34.455C33.2108 33.9757 33.9757 33.2108 34.455 32.27C35 31.2004 35 29.8003 35 27V13C35 10.1997 35 8.79961 34.455 7.73005C33.9757 6.78924 33.2108 6.02433 32.27 5.54497C31.2004 5 29.8003 5 27 5H13C10.1997 5 8.79961 5 7.73005 5.54497C6.78924 6.02433 6.02433 6.78924 5.54497 7.73005C5 8.79961 5 10.1997 5 13V27C5 29.8003 5 31.2004 5.54497 32.27C6.02433 33.2108 6.78924 33.9757 7.73005 34.455C8.79961 35 10.1997 35 13 35Z" stroke="#6941C6" stroke-width="3.33333" stroke-linecap="round" stroke-linejoin="round"/>
</svg>
