<svg width="40" height="40" viewBox="0 0 40 40" fill="none" xmlns="http://www.w3.org/2000/svg">
<path opacity="0.12" d="M19.9999 36.6667C29.2047 36.6667 36.6666 29.2047 36.6666 20C36.6666 10.7953 29.2047 3.33333 19.9999 3.33333C10.7952 3.33333 3.33325 10.7953 3.33325 20C3.33325 29.2047 10.7952 36.6667 19.9999 36.6667Z" fill="#6941C6"/>
<path d="M26.6666 20L19.9999 13.3333M19.9999 13.3333L13.3333 20M19.9999 13.3333V28.6667C19.9999 30.9845 19.9999 32.1434 20.9175 33.441C21.5271 34.3031 23.2823 35.3672 24.3286 35.509C25.9034 35.7223 26.5015 35.4104 27.6975 34.7864C33.0277 32.0059 36.6666 26.4279 36.6666 20C36.6666 10.7953 29.2047 3.33333 19.9999 3.33333C10.7952 3.33333 3.33325 10.7953 3.33325 20C3.33325 26.169 6.68491 31.5552 11.6666 34.437" stroke="#6941C6" stroke-width="3.33333" stroke-linecap="round" stroke-linejoin="round"/>
</svg>
