<svg width="40" height="40" viewBox="0 0 40 40" fill="none" xmlns="http://www.w3.org/2000/svg">
<path opacity="0.12" d="M16.6665 20C20.8086 20 24.1665 16.6421 24.1665 12.5C24.1665 8.35786 20.8086 5 16.6665 5C12.5244 5 9.1665 8.35786 9.1665 12.5C9.1665 16.6421 12.5244 20 16.6665 20Z" fill="#6941C6"/>
<path d="M20.0002 25.8333H12.5002C10.1742 25.8333 9.01125 25.8333 8.06493 26.1204C5.93425 26.7667 4.2669 28.4341 3.62056 30.5648C3.3335 31.5111 3.3335 32.6741 3.3335 35M31.6668 35V25M26.6668 30H36.6668M24.1668 12.5C24.1668 16.6421 20.809 20 16.6668 20C12.5247 20 9.16683 16.6421 9.16683 12.5C9.16683 8.35786 12.5247 5 16.6668 5C20.809 5 24.1668 8.35786 24.1668 12.5Z" stroke="#6941C6" stroke-width="3.33333" stroke-linecap="round" stroke-linejoin="round"/>
</svg>
