<svg width="40" height="40" viewBox="0 0 40 40" fill="none" xmlns="http://www.w3.org/2000/svg">
<g opacity="0.12">
<path d="M31.1399 32.3974C28.1878 35.0516 24.2827 36.6667 20.0003 36.6667C15.718 36.6667 11.8129 35.0516 8.86084 32.3974C9.87472 30.0087 12.2419 28.3334 15.0003 28.3334H25.0003C27.7588 28.3334 30.126 30.0087 31.1399 32.3974Z" fill="#6941C6"/>
<path d="M20.0002 22.5C23.6821 22.5 26.6668 19.5153 26.6668 15.8334C26.6668 12.1515 23.6821 9.16669 20.0002 9.16669C16.3183 9.16669 13.3335 12.1515 13.3335 15.8334C13.3335 19.5153 16.3183 22.5 20.0002 22.5Z" fill="#6941C6"/>
</g>
<path d="M8.86065 32.3973C9.87453 30.0086 12.2417 28.3333 15.0002 28.3333H25.0002C27.7586 28.3333 30.1258 30.0087 31.1397 32.3973M26.6668 15.8333C26.6668 19.5152 23.6821 22.5 20.0002 22.5C16.3183 22.5 13.3335 19.5152 13.3335 15.8333C13.3335 12.1514 16.3183 9.16665 20.0002 9.16665C23.6821 9.16665 26.6668 12.1514 26.6668 15.8333ZM36.6668 20C36.6668 29.2047 29.2049 36.6666 20.0002 36.6666C10.7954 36.6666 3.3335 29.2047 3.3335 20C3.3335 10.7952 10.7954 3.33331 20.0002 3.33331C29.2049 3.33331 36.6668 10.7952 36.6668 20Z" stroke="#6941C6" stroke-width="3.33333" stroke-linecap="round" stroke-linejoin="round"/>
</svg>
