<svg width="40" height="40" viewBox="0 0 40 40" fill="none" xmlns="http://www.w3.org/2000/svg">
<path opacity="0.12" d="M15.8335 20C19.9756 20 23.3335 16.6421 23.3335 12.5C23.3335 8.35786 19.9756 5 15.8335 5C11.6914 5 8.3335 8.35786 8.3335 12.5C8.3335 16.6421 11.6914 20 15.8335 20Z" fill="#6941C6"/>
<path d="M26.6668 5.7796C29.1364 7.00685 30.8335 9.55523 30.8335 12.5C30.8335 15.4448 29.1364 17.9931 26.6668 19.2204M30.0002 27.944C32.5193 29.0839 34.7877 30.9416 36.6668 33.3333M3.3335 33.3333C6.57765 29.2043 10.9821 26.6667 15.8335 26.6667C20.6849 26.6667 25.0893 29.2043 28.3335 33.3333M23.3335 12.5C23.3335 16.6421 19.9756 20 15.8335 20C11.6914 20 8.3335 16.6421 8.3335 12.5C8.3335 8.35786 11.6914 5 15.8335 5C19.9756 5 23.3335 8.35786 23.3335 12.5Z" stroke="#6941C6" stroke-width="3.33333" stroke-linecap="round" stroke-linejoin="round"/>
</svg>
