<svg width="40" height="40" viewBox="0 0 40 40" fill="none" xmlns="http://www.w3.org/2000/svg">
<path opacity="0.12" d="M20 22.8125C22.934 22.8125 25.3125 20.434 25.3125 17.5C25.3125 14.566 22.934 12.1875 20 12.1875C17.066 12.1875 14.6875 14.566 14.6875 17.5C14.6875 20.434 17.066 22.8125 20 22.8125Z" fill="#6941C6"/>
<path d="M13.3333 36.6667H26.6666M34.1666 17.5C34.1666 25.324 27.824 31.6667 19.9999 31.6667C12.1759 31.6667 5.83325 25.324 5.83325 17.5C5.83325 9.67598 12.1759 3.33334 19.9999 3.33334C27.824 3.33334 34.1666 9.67598 34.1666 17.5ZM25.3124 17.5C25.3124 20.434 22.9339 22.8125 19.9999 22.8125C17.0659 22.8125 14.6874 20.434 14.6874 17.5C14.6874 14.566 17.0659 12.1875 19.9999 12.1875C22.9339 12.1875 25.3124 14.566 25.3124 17.5Z" stroke="#6941C6" stroke-width="3.33333" stroke-linecap="round" stroke-linejoin="round"/>
</svg>
