<svg width="40" height="40" viewBox="0 0 40 40" fill="none" xmlns="http://www.w3.org/2000/svg">
<path opacity="0.12" d="M28.3331 5L17.3391 20.3917C16.8525 21.0729 16.6092 21.4136 16.6197 21.6975C16.6289 21.9448 16.7474 22.1752 16.9433 22.3264C17.1683 22.5 17.5869 22.5 18.4241 22.5H26.6665L24.9998 35L35.9939 19.6083C36.4805 18.9271 36.7238 18.5864 36.7133 18.3025C36.7041 18.0552 36.5855 17.8248 36.3897 17.6736C36.1647 17.5 35.7461 17.5 34.9089 17.5H26.6665L28.3331 5Z" fill="#6941C6"/>
<path d="M14.9999 29.1667H5.83325M10.8333 20H3.33325M14.9999 10.8333H6.66659M28.3333 5L17.3392 20.3917C16.8526 21.0729 16.6093 21.4136 16.6198 21.6975C16.629 21.9448 16.7475 22.1752 16.9434 22.3264C17.1684 22.5 17.587 22.5 18.4242 22.5H26.6666L24.9999 35L35.994 19.6083C36.4806 18.9271 36.7239 18.5864 36.7134 18.3025C36.7042 18.0552 36.5856 17.8248 36.3898 17.6736C36.1648 17.5 35.7462 17.5 34.909 17.5H26.6666L28.3333 5Z" stroke="#6941C6" stroke-width="3.33333" stroke-linecap="round" stroke-linejoin="round"/>
</svg>
