<svg width="40" height="40" viewBox="0 0 40 40" fill="none" xmlns="http://www.w3.org/2000/svg">
<path opacity="0.12" d="M20.0001 35C23.5363 35 26.9277 33.5952 29.4282 31.0947C31.9287 28.5943 33.3334 25.2029 33.3334 21.6666C33.3334 18.1304 31.9287 14.739 29.4282 12.2386C26.9277 9.73807 23.5363 8.33331 20.0001 8.33331C16.4639 8.33331 13.0725 9.73807 10.572 12.2386C8.07151 14.739 6.66675 18.1304 6.66675 21.6666C6.66675 25.2029 8.07151 28.5943 10.572 31.0947C13.0725 33.5952 16.4639 35 20.0001 35Z" fill="#6941C6"/>
<path d="M8.33325 5L3.33325 10M36.6666 10L31.6666 5M9.99992 31.6667L6.66659 35M29.9999 31.6667L33.3333 35M19.9999 15V21.6667L23.3333 25M19.9999 35C23.5361 35 26.9275 33.5952 29.428 31.0948C31.9285 28.5943 33.3333 25.2029 33.3333 21.6667C33.3333 18.1304 31.9285 14.7391 29.428 12.2386C26.9275 9.73809 23.5361 8.33333 19.9999 8.33333C16.4637 8.33333 13.0723 9.73809 10.5718 12.2386C8.07134 14.7391 6.66659 18.1304 6.66659 21.6667C6.66659 25.2029 8.07134 28.5943 10.5718 31.0948C13.0723 33.5952 16.4637 35 19.9999 35Z" stroke="#6941C6" stroke-width="3.33333" stroke-linecap="round" stroke-linejoin="round"/>
</svg>
