<svg width="40" height="40" viewBox="0 0 40 40" fill="none" xmlns="http://www.w3.org/2000/svg">
<path opacity="0.12" d="M30 33.3333C31.5531 33.3333 32.3297 33.3333 32.9423 33.0796C33.759 32.7413 34.408 32.0924 34.7463 31.2756C35 30.663 35 29.8865 35 28.3333C35 26.7802 35 26.0036 34.7463 25.3911C34.408 24.5743 33.759 23.9254 32.9423 23.5871C32.3297 23.3333 31.5531 23.3333 30 23.3333L10 23.3333C8.44686 23.3333 7.67029 23.3333 7.05772 23.5871C6.24096 23.9254 5.59205 24.5743 5.25373 25.3911C5 26.0036 5 26.7802 5 28.3333C5 29.8865 5 30.663 5.25373 31.2756C5.59205 32.0924 6.24096 32.7413 7.05772 33.0796C7.67029 33.3333 8.44686 33.3333 10 33.3333L30 33.3333Z" fill="#6941C6"/>
<path d="M26.6667 16.6667C28.2198 16.6667 28.9964 16.6667 29.6089 16.4129C30.4257 16.0746 31.0746 15.4257 31.4129 14.6089C31.6667 13.9964 31.6667 13.2198 31.6667 11.6667C31.6667 10.1135 31.6667 9.33696 31.4129 8.72439C31.0746 7.90763 30.4257 7.25872 29.6089 6.9204C28.9964 6.66667 28.2198 6.66667 26.6667 6.66667L13.3333 6.66667C11.7802 6.66667 11.0036 6.66667 10.3911 6.9204C9.5743 7.25872 8.92538 7.90763 8.58707 8.72439C8.33333 9.33696 8.33333 10.1135 8.33333 11.6667C8.33333 13.2198 8.33333 13.9964 8.58707 14.6089C8.92538 15.4257 9.5743 16.0746 10.3911 16.4129C11.0036 16.6667 11.7802 16.6667 13.3333 16.6667L26.6667 16.6667Z" stroke="#6941C6" stroke-width="3.33333" stroke-linecap="round" stroke-linejoin="round"/>
<path d="M30 33.3333C31.5531 33.3333 32.3297 33.3333 32.9423 33.0796C33.759 32.7413 34.408 32.0924 34.7463 31.2756C35 30.663 35 29.8865 35 28.3333C35 26.7802 35 26.0036 34.7463 25.3911C34.408 24.5743 33.759 23.9254 32.9423 23.5871C32.3297 23.3333 31.5531 23.3333 30 23.3333H10C8.44686 23.3333 7.67029 23.3333 7.05772 23.5871C6.24096 23.9254 5.59205 24.5743 5.25373 25.3911C5 26.0036 5 26.7802 5 28.3333C5 29.8865 5 30.663 5.25373 31.2756C5.59205 32.0924 6.24096 32.7413 7.05772 33.0796C7.67029 33.3333 8.44686 33.3333 10 33.3333L30 33.3333Z" stroke="#6941C6" stroke-width="3.33333" stroke-linecap="round" stroke-linejoin="round"/>
</svg>
