<svg width="40" height="40" viewBox="0 0 40 40" fill="none" xmlns="http://www.w3.org/2000/svg">
<g opacity="0.12">
<path d="M30.8332 22.5C34.0549 22.5 36.6666 19.8883 36.6666 16.6667C36.6666 13.445 34.0549 10.8333 30.8332 10.8333V22.5Z" fill="#6941C6"/>
<path d="M16.6666 9.16667H10.8333C6.69112 9.16667 3.33325 12.5245 3.33325 16.6667C3.33325 20.8088 6.69111 24.1667 10.8332 24.1667H16.6666L16.6666 9.16667Z" fill="#6941C6"/>
</g>
<path d="M6.66659 23.3334L9.291 33.831C9.36481 34.1262 9.40171 34.2739 9.44537 34.4028C9.87187 35.6619 11.0058 36.5473 12.3308 36.6556C12.4664 36.6667 12.6186 36.6667 12.9229 36.6667C13.304 36.6667 13.4945 36.6667 13.655 36.6511C15.2416 36.4973 16.4971 35.2417 16.651 33.6552C16.6666 33.4947 16.6666 33.3041 16.6666 32.923V9.16672M30.8333 22.5001C34.0549 22.5001 36.6666 19.8884 36.6666 16.6667C36.6666 13.4451 34.0549 10.8334 30.8333 10.8334M17.0832 9.16672H10.8333C6.69111 9.16672 3.33325 12.5246 3.33325 16.6667C3.33325 20.8089 6.69112 24.1667 10.8333 24.1667H17.0833C20.0273 24.1667 23.6287 25.7449 26.4071 27.2595C28.028 28.1431 28.8384 28.5848 29.3692 28.5198C29.8614 28.4595 30.2336 28.2385 30.5221 27.8352C30.8333 27.4003 30.8333 26.5301 30.8333 24.7896V8.54386C30.8333 6.80338 30.8333 5.93314 30.5221 5.4982C30.2336 5.09489 29.8614 4.87388 29.3692 4.8136C28.8384 4.74859 28.028 5.19038 26.4071 6.07397C23.6287 7.58857 20.0273 9.16672 17.0832 9.16672Z" stroke="#6941C6" stroke-width="3.33333" stroke-linecap="round" stroke-linejoin="round"/>
</svg>
