<svg width="40" height="40" viewBox="0 0 40 40" fill="none" xmlns="http://www.w3.org/2000/svg">
<path opacity="0.12" d="M19.9999 36.6667C29.2047 36.6667 36.6666 29.2047 36.6666 20C36.6666 10.7952 29.2047 3.33333 19.9999 3.33333C10.7952 3.33333 3.33325 10.7952 3.33325 20C3.33325 29.2047 10.7952 36.6667 19.9999 36.6667Z" fill="#6941C6"/>
<path d="M26.6666 20L19.9999 13.3333M19.9999 13.3333L13.3333 20M19.9999 13.3333V26.6667M36.6666 20C36.6666 29.2047 29.2047 36.6667 19.9999 36.6667C10.7952 36.6667 3.33325 29.2047 3.33325 20C3.33325 10.7952 10.7952 3.33333 19.9999 3.33333C29.2047 3.33333 36.6666 10.7952 36.6666 20Z" stroke="#6941C6" stroke-width="3.33333" stroke-linecap="round" stroke-linejoin="round"/>
</svg>
