<svg width="40" height="40" viewBox="0 0 40 40" fill="none" xmlns="http://www.w3.org/2000/svg">
<path opacity="0.12" d="M20.0004 30.8815C21.9664 29.4977 23.9652 27.8205 25.8933 25.8923C27.8212 23.9644 29.4983 21.9659 30.8819 20.0001C29.4983 18.0343 27.8211 16.0356 25.8931 14.1076C23.9651 12.1795 21.9663 10.5024 20.0004 9.11865C18.0346 10.5023 16.0361 12.1793 14.1082 14.1072C12.1801 16.0354 10.5029 18.0341 9.11914 20.0001C10.5028 21.966 12.18 23.9647 14.108 25.8927C16.036 27.8207 18.0346 29.4978 20.0004 30.8815Z" fill="#6941C6"/>
<path d="M20 20H20.0167M25.8926 25.8926C18.0821 33.7031 9.11224 37.3965 5.85787 34.1422C2.6035 30.8878 6.29696 21.918 14.1074 14.1075C21.9179 6.297 30.8878 2.60353 34.1421 5.8579C37.3965 9.11227 33.703 18.0821 25.8926 25.8926ZM25.8925 14.1072C33.703 21.9177 37.3964 30.8875 34.1421 34.1419C30.8877 37.3962 21.9179 33.7028 14.1074 25.8923C6.29689 18.0818 2.60343 9.11197 5.8578 5.8576C9.11217 2.60323 18.082 6.2967 25.8925 14.1072ZM20.8333 20C20.8333 20.4603 20.4602 20.8334 20 20.8334C19.5398 20.8334 19.1667 20.4603 19.1667 20C19.1667 19.5398 19.5398 19.1667 20 19.1667C20.4602 19.1667 20.8333 19.5398 20.8333 20Z" stroke="#6941C6" stroke-width="3.33333" stroke-linecap="round" stroke-linejoin="round"/>
</svg>
