<svg width="40" height="40" viewBox="0 0 40 40" fill="none" xmlns="http://www.w3.org/2000/svg">
<path opacity="0.12" d="M19.9999 24.1667C22.3011 24.1667 24.1666 22.3012 24.1666 20C24.1666 17.6988 22.3011 15.8333 19.9999 15.8333C17.6987 15.8333 15.8333 17.6988 15.8333 20C15.8333 22.3012 17.6987 24.1667 19.9999 24.1667Z" fill="#6941C6"/>
<path d="M9.99992 18.3333V25M29.9999 15V21.6667M28.3333 6.66667C32.4144 6.66667 34.6218 7.29127 35.7201 7.77574C35.8664 7.84026 35.9395 7.87252 36.1506 8.07396C36.2771 8.1947 36.5081 8.54899 36.5675 8.71349C36.6666 8.9879 36.6666 9.1379 36.6666 9.43791V27.3519C36.6666 28.8665 36.6666 29.6238 36.4395 30.0131C36.2084 30.4091 35.9856 30.5931 35.5532 30.7453C35.128 30.8949 34.2699 30.73 32.5535 30.4003C31.3522 30.1694 29.9275 30 28.3333 30C23.3333 30 18.3333 33.3333 11.6666 33.3333C7.58541 33.3333 5.37803 32.7087 4.27972 32.2243C4.13346 32.1597 4.06032 32.1275 3.84925 31.9261C3.72273 31.8053 3.49178 31.451 3.43237 31.2865C3.33325 31.0121 3.33325 30.8621 3.33325 30.5621L3.33325 12.6481C3.33325 11.1335 3.33325 10.3762 3.56038 9.98691C3.79142 9.59094 4.01424 9.40687 4.44668 9.25469C4.87181 9.10509 5.72998 9.26998 7.4463 9.59975C8.64762 9.83057 10.0724 10 11.6666 10C16.6666 10 21.6666 6.66667 28.3333 6.66667ZM24.1666 20C24.1666 22.3012 22.3011 24.1667 19.9999 24.1667C17.6987 24.1667 15.8333 22.3012 15.8333 20C15.8333 17.6988 17.6987 15.8333 19.9999 15.8333C22.3011 15.8333 24.1666 17.6988 24.1666 20Z" stroke="#6941C6" stroke-width="3.33333" stroke-linecap="round" stroke-linejoin="round"/>
</svg>
