<svg width="40" height="40" viewBox="0 0 40 40" fill="none" xmlns="http://www.w3.org/2000/svg">
<g opacity="0.12">
<path d="M35.1012 10.7322C36.0775 11.7085 36.0775 13.2915 35.1012 14.2678C34.1249 15.2441 32.542 15.2441 31.5657 14.2678C30.5893 13.2915 30.5893 11.7085 31.5657 10.7322C32.542 9.75592 34.1249 9.75592 35.1012 10.7322Z" fill="#6941C6"/>
<path d="M8.43452 15.7322C9.41083 16.7085 9.41083 18.2915 8.43452 19.2678C7.4582 20.2441 5.87529 20.2441 4.89898 19.2678C3.92267 18.2915 3.92267 16.7085 4.89898 15.7322C5.87529 14.7559 7.4582 14.7559 8.43452 15.7322Z" fill="#6941C6"/>
<path d="M21.7678 5.73223C22.7442 6.70854 22.7442 8.29146 21.7678 9.26777C20.7915 10.2441 19.2086 10.2441 18.2323 9.26777C17.256 8.29146 17.256 6.70854 18.2323 5.73223C19.2086 4.75592 20.7915 4.75592 21.7678 5.73223Z" fill="#6941C6"/>
</g>
<path d="M33.3334 33.3333V21.6667M20.0001 33.3333V16.6667M6.66675 33.3333L6.66675 26.6667M22.3445 8.37917L30.9586 11.6095M17.998 9.00154L8.66713 15.9997M35.1012 10.7322C36.0775 11.7085 36.0775 13.2915 35.1012 14.2678C34.1249 15.2441 32.542 15.2441 31.5657 14.2678C30.5893 13.2915 30.5893 11.7085 31.5657 10.7322C32.542 9.75592 34.1249 9.75592 35.1012 10.7322ZM8.43452 15.7322C9.41083 16.7085 9.41083 18.2915 8.43452 19.2678C7.45821 20.2441 5.87529 20.2441 4.89898 19.2678C3.92267 18.2915 3.92267 16.7085 4.89898 15.7322C5.87529 14.7559 7.45821 14.7559 8.43452 15.7322ZM21.7678 5.73223C22.7442 6.70854 22.7442 8.29146 21.7678 9.26777C20.7915 10.2441 19.2086 10.2441 18.2323 9.26777C17.256 8.29146 17.256 6.70854 18.2323 5.73223C19.2086 4.75592 20.7915 4.75592 21.7678 5.73223Z" stroke="#6941C6" stroke-width="3.33333" stroke-linecap="round" stroke-linejoin="round"/>
</svg>
