<svg width="40" height="40" viewBox="0 0 40 40" fill="none" xmlns="http://www.w3.org/2000/svg">
<path opacity="0.12" d="M3.33325 18C3.33325 15.1997 3.33325 13.7996 3.87822 12.73C4.35759 11.7892 5.12249 11.0243 6.0633 10.545C7.13286 10 8.53299 10 11.3333 10H23.6666C26.4669 10 27.867 10 28.9365 10.545C29.8773 11.0243 30.6423 11.7892 31.1216 12.73C31.6666 13.7996 31.6666 15.1997 31.6666 18V22C31.6666 24.8003 31.6666 26.2004 31.1216 27.27C30.6423 28.2108 29.8773 28.9757 28.9365 29.455C27.867 30 26.4668 30 23.6666 30H11.3333C8.53299 30 7.13286 30 6.0633 29.455C5.12249 28.9757 4.35759 28.2108 3.87822 27.27C3.33325 26.2004 3.33325 24.8003 3.33325 22V18Z" fill="#6941C6"/>
<path d="M10.8333 16.6667V23.3333M17.4999 16.6667V23.3333M36.6666 21.6667V18.3333M11.3333 30H23.6666C26.4668 30 27.867 30 28.9365 29.455C29.8773 28.9757 30.6423 28.2108 31.1216 27.27C31.6666 26.2004 31.6666 24.8003 31.6666 22V18C31.6666 15.1997 31.6666 13.7996 31.1216 12.73C30.6423 11.7892 29.8773 11.0243 28.9365 10.545C27.867 10 26.4668 10 23.6666 10H11.3333C8.53299 10 7.13286 10 6.0633 10.545C5.12249 11.0243 4.35759 11.7892 3.87822 12.73C3.33325 13.7996 3.33325 15.1997 3.33325 18V22C3.33325 24.8003 3.33325 26.2004 3.87822 27.27C4.35759 28.2108 5.12249 28.9757 6.0633 29.455C7.13286 30 8.53299 30 11.3333 30Z" stroke="#6941C6" stroke-width="3.33333" stroke-linecap="round" stroke-linejoin="round"/>
</svg>
