<svg width="40" height="40" viewBox="0 0 40 40" fill="none" xmlns="http://www.w3.org/2000/svg">
<path opacity="0.12" d="M3.3335 18C3.3335 15.1997 3.3335 13.7996 3.87846 12.73C4.35783 11.7892 5.12273 11.0243 6.06354 10.545C7.1331 10 8.53323 10 11.3335 10H23.6668C26.4671 10 27.8672 10 28.9368 10.545C29.8776 11.0243 30.6425 11.7892 31.1219 12.73C31.6668 13.7996 31.6668 15.1997 31.6668 18V22C31.6668 24.8003 31.6668 26.2004 31.1219 27.27C30.6425 28.2108 29.8776 28.9757 28.9368 29.455C27.8672 30 26.4671 30 23.6668 30H11.3335C8.53323 30 7.1331 30 6.06354 29.455C5.12273 28.9757 4.35783 28.2108 3.87846 27.27C3.3335 26.2004 3.3335 24.8003 3.3335 22V18Z" fill="#6941C6"/>
<path d="M15.8335 30L22.5002 20H12.5002L19.1668 10M36.6668 21.6667V18.3333M23.3335 30H23.6668C26.4671 30 27.8672 30 28.9368 29.455C29.8776 28.9757 30.6425 28.2108 31.1219 27.27C31.6668 26.2004 31.6668 24.8003 31.6668 22V16.6667C31.6668 15.1167 31.6668 14.3417 31.4965 13.7059C31.0341 11.9804 29.6864 10.6327 27.9609 10.1704C27.3251 10 26.5501 10 25.0002 10M11.6668 10H11.3335C8.53323 10 7.1331 10 6.06354 10.545C5.12273 11.0243 4.35783 11.7892 3.87846 12.73C3.3335 13.7996 3.3335 15.1997 3.3335 18V23.3333C3.3335 24.8833 3.3335 25.6583 3.50387 26.2941C3.9662 28.0196 5.31394 29.3673 7.0394 29.8296C7.67523 30 8.45021 30 10.0002 30" stroke="#6941C6" stroke-width="3.33333" stroke-linecap="round" stroke-linejoin="round"/>
</svg>
