<svg width="40" height="40" viewBox="0 0 40 40" fill="none" xmlns="http://www.w3.org/2000/svg">
<path d="M30.9513 33.3333C33.0546 33.3333 34.7613 31.6283 34.7613 29.5233V21.905L36.6663 20L34.7613 18.095V10.4767C34.7613 8.37166 33.0563 6.66666 30.9513 6.66666M9.04825 6.66666C6.94325 6.66666 5.23825 8.37166 5.23825 10.4767V18.095L3.33325 20L5.23825 21.905V29.5233C5.23825 31.6283 6.94325 33.3333 9.04825 33.3333M12.4999 20L16.5571 24.0572C16.8871 24.3872 17.0521 24.5522 17.2424 24.614C17.4098 24.6684 17.5901 24.6684 17.7574 24.614C17.9477 24.5522 18.1127 24.3872 18.4427 24.0572L27.4999 15" stroke="#6941C6" stroke-width="3.33333" stroke-linecap="round" stroke-linejoin="round"/>
</svg>
