<svg width="40" height="40" viewBox="0 0 40 40" fill="none" xmlns="http://www.w3.org/2000/svg">
<path opacity="0.12" d="M33.3334 16.6667H6.66675V17C6.66675 19.8003 6.66675 21.2004 7.21172 22.27C7.69108 23.2108 8.45599 23.9757 9.3968 24.4551C10.4664 25 11.8665 25 14.6667 25H15.8334V32.5C15.8334 34.8012 17.6989 36.6667 20.0001 36.6667C22.3013 36.6667 24.1667 34.8012 24.1667 32.5V25H25.3334C28.1337 25 29.5338 25 30.6034 24.4551C31.5442 23.9757 32.3091 23.2108 32.7884 22.27C33.3334 21.2004 33.3334 19.8003 33.3334 17V16.6667Z" fill="#6941C6"/>
<path d="M33.3334 16.6666V5.99998C33.3334 5.06656 33.3334 4.59985 33.1518 4.24333C32.992 3.92973 32.737 3.67476 32.4234 3.51497C32.0669 3.33331 31.6002 3.33331 30.6667 3.33331H9.33341C8.39999 3.33331 7.93328 3.33331 7.57676 3.51497C7.26316 3.67476 7.00819 3.92973 6.8484 4.24333C6.66675 4.59985 6.66675 5.06656 6.66675 5.99998V16.6666M33.3334 16.6666H6.66675M33.3334 16.6666V17C33.3334 19.8002 33.3334 21.2004 32.7884 22.2699C32.3091 23.2107 31.5442 23.9756 30.6034 24.455C29.5338 25 28.1337 25 25.3334 25H14.6667C11.8665 25 10.4664 25 9.3968 24.455C8.45599 23.9756 7.69108 23.2107 7.21172 22.2699C6.66675 21.2004 6.66675 19.8002 6.66675 17V16.6666M24.1667 25V32.5C24.1667 34.8012 22.3013 36.6666 20.0001 36.6666C17.6989 36.6666 15.8334 34.8012 15.8334 32.5V25" stroke="#6941C6" stroke-width="3.33333" stroke-linecap="round" stroke-linejoin="round"/>
</svg>
