<svg width="40" height="40" viewBox="0 0 40 40" fill="none" xmlns="http://www.w3.org/2000/svg">
<path opacity="0.12" d="M19.9999 27.5C23.6818 27.5 26.6666 24.5152 26.6666 20.8333C26.6666 17.1514 23.6818 14.1667 19.9999 14.1667C16.318 14.1667 13.3333 17.1514 13.3333 20.8333C13.3333 24.5152 16.318 27.5 19.9999 27.5Z" fill="#6941C6"/>
<path d="M3.33325 13.962C3.33325 13.3782 3.33325 13.0863 3.35761 12.8404C3.59259 10.4688 5.4687 8.59268 7.84027 8.35771C8.08616 8.33334 8.39385 8.33334 9.00922 8.33334C9.24634 8.33334 9.3649 8.33334 9.46556 8.32725C10.7509 8.2494 11.8765 7.43814 12.3568 6.24334C12.3944 6.14977 12.4296 6.0443 12.4999 5.83334C12.5702 5.62239 12.6054 5.51691 12.643 5.42335C13.1233 4.22855 14.2489 3.41729 15.5343 3.33944C15.6349 3.33334 15.7461 3.33334 15.9685 3.33334H24.0314C24.2537 3.33334 24.3649 3.33334 24.4656 3.33944C25.7509 3.41729 26.8765 4.22855 27.3568 5.42335C27.3944 5.51691 27.4296 5.62239 27.4999 5.83334C27.5702 6.0443 27.6054 6.14977 27.643 6.24334C28.1233 7.43814 29.2489 8.2494 30.5343 8.32725C30.6349 8.33334 30.7535 8.33334 30.9906 8.33334C31.606 8.33334 31.9137 8.33334 32.1596 8.35771C34.5311 8.59268 36.4073 10.4688 36.6422 12.8404C36.6666 13.0863 36.6666 13.3782 36.6666 13.962V27C36.6666 29.8003 36.6666 31.2004 36.1216 32.27C35.6423 33.2108 34.8773 33.9757 33.9365 34.455C32.867 35 31.4668 35 28.6666 35H11.3333C8.53299 35 7.13286 35 6.0633 34.455C5.12249 33.9757 4.35759 33.2108 3.87822 32.27C3.33325 31.2004 3.33325 29.8003 3.33325 27V13.962Z" stroke="#6941C6" stroke-width="3.33333" stroke-linecap="round" stroke-linejoin="round"/>
<path d="M19.9999 27.5C23.6818 27.5 26.6666 24.5152 26.6666 20.8333C26.6666 17.1514 23.6818 14.1667 19.9999 14.1667C16.318 14.1667 13.3333 17.1514 13.3333 20.8333C13.3333 24.5152 16.318 27.5 19.9999 27.5Z" stroke="#6941C6" stroke-width="3.33333" stroke-linecap="round" stroke-linejoin="round"/>
</svg>
