<svg width="40" height="40" viewBox="0 0 40 40" fill="none" xmlns="http://www.w3.org/2000/svg">
<path opacity="0.12" d="M19.9999 26.6666C23.6818 26.6666 26.6666 23.6819 26.6666 20C26.6666 16.3181 23.6818 13.3333 19.9999 13.3333C16.318 13.3333 13.3333 16.3181 13.3333 20C13.3333 23.6819 16.318 26.6666 19.9999 26.6666Z" fill="#6941C6"/>
<path d="M36.6666 19.1666V24.3333C36.6666 28.067 36.6666 29.9338 35.94 31.3599C35.3008 32.6143 34.2809 33.6342 33.0265 34.2734C31.6004 35 29.7336 35 25.9999 35H13.9999C10.2662 35 8.39939 35 6.97332 34.2734C5.7189 33.6342 4.69903 32.6143 4.05988 31.3599C3.33325 29.9338 3.33325 28.067 3.33325 24.3333V15.6666C3.33325 11.933 3.33325 10.0661 4.05988 8.64004C4.69903 7.38563 5.7189 6.36576 6.97332 5.7266C8.39939 4.99998 10.2662 4.99998 13.9999 4.99998H20.8333M31.6666 13.3333V3.33331M26.6666 8.33331H36.6666M26.6666 20C26.6666 23.6819 23.6818 26.6666 19.9999 26.6666C16.318 26.6666 13.3333 23.6819 13.3333 20C13.3333 16.3181 16.318 13.3333 19.9999 13.3333C23.6818 13.3333 26.6666 16.3181 26.6666 20Z" stroke="#6941C6" stroke-width="3.33333" stroke-linecap="round" stroke-linejoin="round"/>
</svg>
