<svg width="40" height="40" viewBox="0 0 40 40" fill="none" xmlns="http://www.w3.org/2000/svg">
<path opacity="0.12" d="M3.33325 19.9999C3.33325 29.2046 10.7952 36.6666 19.9999 36.6666C28.6422 36.6666 35.7481 30.0888 36.5843 21.6666L18.3333 3.41553C9.91105 4.25173 3.33325 11.3577 3.33325 19.9999Z" fill="#6941C6"/>
<path d="M25.8333 5.83334V3.33334M32.3988 7.60111L34.1666 5.83334M34.1837 14.1667H36.6837M36.5843 21.6667C35.7481 30.0889 28.6422 36.6667 19.9999 36.6667C10.7952 36.6667 3.33325 29.2048 3.33325 20C3.33325 11.3578 9.91105 4.25184 18.3333 3.41564M19.9999 13.3333H26.6666V20M26.0327 13.3333C22.1088 18.8793 15.6439 22.5 8.33325 22.5C6.66175 22.5 5.03445 22.3107 3.47162 21.9524" stroke="#6941C6" stroke-width="3.33333" stroke-linecap="round" stroke-linejoin="round"/>
</svg>
