<svg width="40" height="40" viewBox="0 0 40 40" fill="none" xmlns="http://www.w3.org/2000/svg">
<path opacity="0.12" d="M19.9999 36.6667C29.2047 36.6667 36.6666 29.2047 36.6666 20C36.6666 10.7953 29.2047 3.33333 19.9999 3.33333C10.7952 3.33333 3.33325 10.7953 3.33325 20C3.33325 29.2047 10.7952 36.6667 19.9999 36.6667Z" fill="#6941C6"/>
<path d="M36.6666 18.4762V20.0095C36.6645 23.6036 35.5008 27.1007 33.3488 29.9792C31.1969 32.8578 28.1721 34.9637 24.7255 35.9827C21.279 37.0017 17.5954 36.8794 14.224 35.6338C10.8527 34.3883 7.97434 32.0864 6.01819 29.0713C4.06203 26.0563 3.1329 22.4896 3.36938 18.9034C3.60586 15.3171 4.99526 11.9034 7.33039 9.17133C9.66551 6.43924 12.8212 4.53518 16.3269 3.74312C19.8326 2.95105 23.5004 3.31343 26.7833 4.77621M36.6666 6.66667L19.9999 23.35L14.9999 18.35" stroke="#6941C6" stroke-width="3.33333" stroke-linecap="round" stroke-linejoin="round"/>
</svg>
