<svg width="40" height="40" viewBox="0 0 40 40" fill="none" xmlns="http://www.w3.org/2000/svg">
<path opacity="0.12" d="M15.8333 31.6667C8.92969 31.6667 3.33325 26.0702 3.33325 19.1667C3.33325 12.2631 8.92969 6.66666 15.8333 6.66666C20.6377 6.66666 24.8091 9.37722 26.9016 13.3525C27.0994 13.3398 27.2989 13.3333 27.4999 13.3333C32.5625 13.3333 36.6666 17.4374 36.6666 22.5C36.6666 27.5626 32.5625 31.6667 27.4999 31.6667C23.2474 31.6667 20.2039 31.6667 15.8333 31.6667Z" fill="#6941C6"/>
<path d="M15.8333 31.6667C8.92969 31.6667 3.33325 26.0702 3.33325 19.1667C3.33325 12.2631 8.92969 6.66666 15.8333 6.66666C20.6377 6.66666 24.8091 9.37722 26.9016 13.3525C27.0994 13.3398 27.2989 13.3333 27.4999 13.3333C32.5625 13.3333 36.6666 17.4374 36.6666 22.5C36.6666 27.5626 32.5625 31.6667 27.4999 31.6667C23.2474 31.6667 20.2039 31.6667 15.8333 31.6667Z" stroke="#6941C6" stroke-width="3.33333" stroke-linecap="round" stroke-linejoin="round"/>
</svg>
