<svg width="40" height="40" viewBox="0 0 40 40" fill="none" xmlns="http://www.w3.org/2000/svg">
<path opacity="0.12" d="M13.3333 36.6667C18.8561 36.6667 23.3333 32.1895 23.3333 26.6667C23.3333 21.1438 18.8561 16.6667 13.3333 16.6667C7.8104 16.6667 3.33325 21.1438 3.33325 26.6667C3.33325 32.1895 7.8104 36.6667 13.3333 36.6667Z" fill="#6941C6"/>
<path d="M9.99992 10L13.3333 6.66666M13.3333 6.66666L9.99992 3.33333M13.3333 6.66666H9.99992C6.31802 6.66666 3.33325 9.65143 3.33325 13.3333M29.9999 30L26.6666 33.3333M26.6666 33.3333L29.9999 36.6667M26.6666 33.3333H29.9999C33.6818 33.3333 36.6666 30.3486 36.6666 26.6667M16.9816 10.8333C18.0917 6.52026 22.007 3.33333 26.6666 3.33333C32.1894 3.33333 36.6666 7.81048 36.6666 13.3333C36.6666 17.9929 33.4797 21.9081 29.1667 23.0183M23.3333 26.6667C23.3333 32.1895 18.8561 36.6667 13.3333 36.6667C7.8104 36.6667 3.33325 32.1895 3.33325 26.6667C3.33325 21.1438 7.8104 16.6667 13.3333 16.6667C18.8561 16.6667 23.3333 21.1438 23.3333 26.6667Z" stroke="#6941C6" stroke-width="3.33333" stroke-linecap="round" stroke-linejoin="round"/>
</svg>
