<svg width="40" height="40" viewBox="0 0 40 40" fill="none" xmlns="http://www.w3.org/2000/svg">
<path opacity="0.12" d="M3.3335 20C3.3335 29.2048 10.7954 36.6667 20.0002 36.6667V3.33334C10.7954 3.33334 3.3335 10.7953 3.3335 20Z" fill="#6941C6"/>
<path d="M20.0002 3.33334C20.9863 3.33334 21.9524 3.41899 22.8915 3.58324M20.0002 3.33334C10.7954 3.33334 3.3335 10.7953 3.3335 20C3.3335 29.2048 10.7954 36.6667 20.0002 36.6667M20.0002 3.33334V36.6667M29.5635 6.34835C31.1539 7.4645 32.5403 8.8515 33.6558 10.4424M36.4171 17.1094C36.5812 18.0483 36.6668 19.0141 36.6668 20C36.6668 20.9859 36.5812 21.9518 36.4171 22.8906M33.6488 29.5677C32.5341 31.1549 31.1495 32.5389 29.5617 33.6529M22.8882 36.4174C21.9501 36.5812 20.9851 36.6667 20.0002 36.6667" stroke="#6941C6" stroke-width="3.33333" stroke-linecap="round" stroke-linejoin="round"/>
</svg>
