<svg width="40" height="40" viewBox="0 0 40 40" fill="none" xmlns="http://www.w3.org/2000/svg">
<path opacity="0.12" d="M15 20.3333C15 18.4665 15 17.5331 15.3633 16.82C15.6829 16.1928 16.1928 15.6829 16.82 15.3633C17.5331 15 18.4665 15 20.3333 15H31.3333C33.2002 15 34.1336 15 34.8466 15.3633C35.4738 15.6829 35.9838 16.1928 36.3034 16.82C36.6667 17.5331 36.6667 18.4665 36.6667 20.3333V31.3333C36.6667 33.2002 36.6667 34.1336 36.3034 34.8466C35.9838 35.4738 35.4738 35.9838 34.8466 36.3034C34.1336 36.6667 33.2002 36.6667 31.3333 36.6667H20.3333C18.4665 36.6667 17.5331 36.6667 16.82 36.3034C16.1928 35.9838 15.6829 35.4738 15.3633 34.8466C15 34.1336 15 33.2002 15 31.3333V20.3333Z" fill="#6941C6"/>
<path d="M8.33325 25C6.78011 25 6.00354 25 5.39097 24.7463C4.57421 24.408 3.9253 23.759 3.58699 22.9423C3.33325 22.3297 3.33325 21.5531 3.33325 20V8.66667C3.33325 6.79982 3.33325 5.8664 3.69656 5.15336C4.01614 4.52616 4.52608 4.01622 5.15328 3.69664C5.86632 3.33333 6.79974 3.33333 8.66659 3.33333H19.9999C21.5531 3.33333 22.3296 3.33333 22.9422 3.58707C23.759 3.92538 24.4079 4.57429 24.7462 5.39105C24.9999 6.00362 24.9999 6.78019 24.9999 8.33333M20.3333 36.6667H31.3333C33.2001 36.6667 34.1335 36.6667 34.8466 36.3034C35.4738 35.9838 35.9837 35.4738 36.3033 34.8466C36.6666 34.1336 36.6666 33.2002 36.6666 31.3333V20.3333C36.6666 18.4665 36.6666 17.5331 36.3033 16.82C35.9837 16.1928 35.4738 15.6829 34.8466 15.3633C34.1335 15 33.2001 15 31.3333 15H20.3333C18.4664 15 17.533 15 16.82 15.3633C16.1927 15.6829 15.6828 16.1928 15.3632 16.82C14.9999 17.5331 14.9999 18.4665 14.9999 20.3333V31.3333C14.9999 33.2002 14.9999 34.1336 15.3632 34.8466C15.6828 35.4738 16.1927 35.9838 16.82 36.3034C17.533 36.6667 18.4664 36.6667 20.3333 36.6667Z" stroke="#6941C6" stroke-width="3.33333" stroke-linecap="round" stroke-linejoin="round"/>
</svg>
