<svg width="40" height="40" viewBox="0 0 40 40" fill="none" xmlns="http://www.w3.org/2000/svg">
<path opacity="0.12" d="M8.3335 16.3333C8.3335 13.5331 8.3335 12.1329 8.87846 11.0634C9.35783 10.1226 10.1227 9.35767 11.0635 8.8783C12.1331 8.33334 13.5332 8.33334 16.3335 8.33334H23.6668C26.4671 8.33334 27.8672 8.33334 28.9368 8.8783C29.8776 9.35767 30.6425 10.1226 31.1219 11.0634C31.6668 12.1329 31.6668 13.5331 31.6668 16.3333V23.6667C31.6668 26.4669 31.6668 27.8671 31.1219 28.9366C30.6425 29.8774 29.8776 30.6423 28.9368 31.1217C27.8672 31.6667 26.4671 31.6667 23.6668 31.6667H16.3335C13.5332 31.6667 12.1331 31.6667 11.0635 31.1217C10.1227 30.6423 9.35783 29.8774 8.87846 28.9366C8.3335 27.8671 8.3335 26.4669 8.3335 23.6667V16.3333Z" fill="#6941C6"/>
<path d="M15.0002 3.33333V8.33333M25.0002 3.33333V8.33333M15.0002 31.6667V36.6667M25.0002 31.6667V36.6667M31.6668 15H36.6668M31.6668 23.3333H36.6668M3.3335 15H8.3335M3.3335 23.3333H8.3335M16.3335 31.6667H23.6668C26.4671 31.6667 27.8672 31.6667 28.9368 31.1217C29.8776 30.6423 30.6425 29.8774 31.1219 28.9366C31.6668 27.8671 31.6668 26.4669 31.6668 23.6667V16.3333C31.6668 13.5331 31.6668 12.1329 31.1219 11.0634C30.6425 10.1226 29.8776 9.35767 28.9368 8.8783C27.8672 8.33333 26.4671 8.33333 23.6668 8.33333H16.3335C13.5332 8.33333 12.1331 8.33333 11.0635 8.8783C10.1227 9.35767 9.35783 10.1226 8.87846 11.0634C8.3335 12.1329 8.3335 13.5331 8.3335 16.3333V23.6667C8.3335 26.4669 8.3335 27.8671 8.87846 28.9366C9.35783 29.8774 10.1227 30.6423 11.0635 31.1217C12.1331 31.6667 13.5332 31.6667 16.3335 31.6667Z" stroke="#6941C6" stroke-width="3.33333" stroke-linecap="round" stroke-linejoin="round"/>
</svg>
