<svg width="40" height="40" viewBox="0 0 40 40" fill="none" xmlns="http://www.w3.org/2000/svg">
<path opacity="0.12" d="M3.3335 13.6667V16.6667H36.6668V13.6667C36.6668 11.7998 36.6668 10.8664 36.3035 10.1534C35.9839 9.52617 35.474 9.01624 34.8468 8.69666C34.1338 8.33334 33.2003 8.33334 31.3335 8.33334H8.66683C6.79999 8.33334 5.86657 8.33334 5.15353 8.69666C4.52632 9.01623 4.01639 9.52617 3.69681 10.1534C3.3335 10.8664 3.3335 11.7998 3.3335 13.6667Z" fill="#6941C6"/>
<path d="M36.6668 16.6667H3.3335M3.3335 13.6667L3.3335 26.3333C3.3335 28.2002 3.3335 29.1336 3.69681 29.8466C4.01639 30.4738 4.52632 30.9838 5.15353 31.3034C5.86657 31.6667 6.79999 31.6667 8.66683 31.6667L31.3335 31.6667C33.2003 31.6667 34.1338 31.6667 34.8468 31.3034C35.474 30.9838 35.9839 30.4739 36.3035 29.8466C36.6668 29.1336 36.6668 28.2002 36.6668 26.3333V13.6667C36.6668 11.7998 36.6668 10.8664 36.3035 10.1534C35.9839 9.52617 35.474 9.01624 34.8468 8.69666C34.1338 8.33335 33.2003 8.33335 31.3335 8.33335L8.66683 8.33334C6.79999 8.33334 5.86657 8.33334 5.15353 8.69665C4.52632 9.01623 4.01639 9.52617 3.69681 10.1534C3.3335 10.8664 3.3335 11.7998 3.3335 13.6667Z" stroke="#6941C6" stroke-width="3.33333" stroke-linecap="round" stroke-linejoin="round"/>
</svg>
