<svg width="40" height="40" viewBox="0 0 40 40" fill="none" xmlns="http://www.w3.org/2000/svg">
<path opacity="0.12" d="M15.3333 30L30 30V15.3333C30 13.4665 30 12.5331 29.6367 11.82C29.3171 11.1928 28.8072 10.6829 28.18 10.3633C27.4669 10 26.5335 10 24.6667 10H10V24.6667C10 26.5335 10 27.4669 10.3633 28.18C10.6829 28.8072 11.1928 29.3171 11.82 29.6367C12.5331 30 13.4665 30 15.3333 30Z" fill="#6941C6"/>
<path d="M16.6668 9.99998H24.6668C26.5337 9.99998 27.4671 9.99998 28.1801 10.3633C28.8073 10.6829 29.3173 11.1928 29.6369 11.82C30.0002 12.533 30.0002 13.4665 30.0002 15.3333V23.3333M3.3335 9.99998H10.0002M30.0002 30V36.6666M36.6668 30L15.3335 30C13.4667 30 12.5332 30 11.8202 29.6367C11.193 29.3171 10.6831 28.8072 10.3635 28.1799C10.0002 27.4669 10.0002 26.5335 10.0002 24.6666V3.33331" stroke="#6941C6" stroke-width="3.33333" stroke-linecap="round" stroke-linejoin="round"/>
</svg>
