<svg width="40" height="40" viewBox="0 0 40 40" fill="none" xmlns="http://www.w3.org/2000/svg">
<path opacity="0.12" d="M12.6094 19.0573L19.0571 12.6095C19.3871 12.2795 19.5521 12.1145 19.7424 12.0527C19.9097 11.9983 20.09 11.9983 20.2574 12.0527C20.4477 12.1145 20.6127 12.2795 20.9427 12.6095L27.3904 19.0573C27.7204 19.3873 27.8854 19.5523 27.9472 19.7426C28.0016 19.9099 28.0016 20.0902 27.9472 20.2576C27.8854 20.4479 27.7204 20.6129 27.3904 20.9429L20.9427 27.3906C20.6127 27.7206 20.4477 27.8856 20.2574 27.9474C20.09 28.0018 19.9097 28.0018 19.7424 27.9474C19.5521 27.8856 19.3871 27.7206 19.0571 27.3906L12.6093 20.9429C12.2793 20.6129 12.1143 20.4479 12.0525 20.2576C11.9981 20.0902 11.9981 19.9099 12.0525 19.7426C12.1143 19.5523 12.2793 19.3873 12.6094 19.0573Z" fill="#6941C6"/>
<path d="M3.33325 3.33333L6.66659 6.66666M36.6666 3.33333L33.3333 6.66666M36.6666 36.6667L33.3333 33.3333M3.33325 36.6667L6.66659 33.3333M3.33325 26.6667H5.83325M13.3333 3.33333V5.83333M36.6666 13.3333H34.1666M26.6666 36.6667V34.1667M29.9999 26.6667H35.8333M26.6666 3.33333V10M3.33325 13.3333H9.99992M13.3333 36.6667V30M19.0571 12.6095L12.6094 19.0572C12.2794 19.3872 12.1144 19.5522 12.0525 19.7425C11.9982 19.9099 11.9982 20.0901 12.0525 20.2575C12.1144 20.4478 12.2794 20.6128 12.6094 20.9428L19.0571 27.3905C19.3871 27.7205 19.5521 27.8855 19.7424 27.9474C19.9098 28.0017 20.0901 28.0017 20.2574 27.9474C20.4477 27.8855 20.6127 27.7205 20.9427 27.3905L27.3904 20.9428C27.7205 20.6128 27.8855 20.4478 27.9473 20.2575C28.0017 20.0901 28.0017 19.9099 27.9473 19.7425C27.8855 19.5522 27.7205 19.3872 27.3904 19.0572L20.9427 12.6095C20.6127 12.2795 20.4477 12.1144 20.2574 12.0526C20.0901 11.9982 19.9098 11.9982 19.7424 12.0526C19.5521 12.1144 19.3871 12.2795 19.0571 12.6095Z" stroke="#6941C6" stroke-width="3.33333" stroke-linecap="round" stroke-linejoin="round"/>
</svg>
