<svg width="40" height="40" viewBox="0 0 40 40" fill="none" xmlns="http://www.w3.org/2000/svg">
<path opacity="0.12" d="M20 20L35 11.6667V26.7643C35 27.3353 35 27.6209 34.9159 27.8755C34.8414 28.1008 34.7197 28.3076 34.5589 28.4821C34.3772 28.6793 34.1276 28.818 33.6284 29.0953L21.2951 35.9472C20.8224 36.2098 20.586 36.3411 20.3358 36.3926C20.1142 36.4381 19.8858 36.4381 19.6643 36.3926C19.414 36.3411 19.1776 36.2098 18.705 35.9472L6.37162 29.0953C5.87241 28.818 5.62281 28.6793 5.44106 28.4821C5.28026 28.3076 5.15858 28.1008 5.08414 27.8755C5 27.6209 5 27.3353 5 26.7643V11.6667L20 20Z" fill="#6941C6"/>
<path d="M20 4.1666V19.9999M20 19.9999L34.1667 12.1294M20 19.9999L5.83333 12.1294M20 19.9999V35.8333M34.1667 27.8703L21.2951 20.7194C20.8224 20.4568 20.586 20.3255 20.3358 20.274C20.1142 20.2285 19.8858 20.2285 19.6643 20.274C19.414 20.3255 19.1776 20.4568 18.705 20.7194L5.83333 27.8703M35 26.7642V13.2357C35 12.6646 35 12.3791 34.9159 12.1244C34.8414 11.8991 34.7197 11.6923 34.5589 11.5178C34.3772 11.3206 34.1276 11.1819 33.6284 10.9046L21.2951 4.05274C20.8224 3.79014 20.586 3.65884 20.3358 3.60737C20.1142 3.56181 19.8858 3.56181 19.6643 3.60737C19.414 3.65884 19.1776 3.79014 18.705 4.05274L6.37162 10.9046C5.87241 11.1819 5.62281 11.3206 5.44106 11.5178C5.28026 11.6923 5.15858 11.8991 5.08414 12.1244C5 12.3791 5 12.6646 5 13.2357V26.7642C5 27.3353 5 27.6208 5.08414 27.8755C5.15858 28.1008 5.28026 28.3076 5.44106 28.482C5.62281 28.6793 5.87241 28.8179 6.37162 29.0953L18.705 35.9471C19.1776 36.2097 19.414 36.341 19.6643 36.3925C19.8858 36.4381 20.1142 36.4381 20.3358 36.3925C20.586 36.341 20.8224 36.2097 21.2951 35.9471L33.6284 29.0953C34.1276 28.8179 34.3772 28.6793 34.5589 28.482C34.7197 28.3076 34.8414 28.1008 34.9159 27.8755C35 27.6208 35 27.3353 35 26.7642Z" stroke="#6941C6" stroke-width="3.33333" stroke-linecap="round" stroke-linejoin="round"/>
</svg>
