<svg width="40" height="40" viewBox="0 0 40 40" fill="none" xmlns="http://www.w3.org/2000/svg">
<path d="M16.25 34.5834L18.705 35.9472C19.1776 36.2098 19.414 36.3411 19.6643 36.3926C19.8858 36.4382 20.1142 36.4382 20.3358 36.3926C20.586 36.3411 20.8224 36.2098 21.2951 35.9472L23.75 34.5834M8.75 30.4167L6.37162 29.0954C5.87243 28.8181 5.62281 28.6794 5.44106 28.4821C5.28026 28.3077 5.15858 28.1009 5.08414 27.8756C5 27.6209 5 27.3354 5 26.7643V24.1667M5 15.8334V13.2358C5 12.6647 5 12.3792 5.08414 12.1245C5.15858 11.8992 5.28026 11.6924 5.44106 11.5179C5.62281 11.3207 5.87242 11.182 6.37162 10.9047L8.75 9.58337M16.25 5.41671L18.705 4.05284C19.1776 3.79025 19.414 3.65895 19.6643 3.60747C19.8858 3.56191 20.1142 3.56191 20.3358 3.60747C20.586 3.65895 20.8224 3.79025 21.2951 4.05284L23.75 5.41671M31.25 9.58337L33.6284 10.9047C34.1276 11.182 34.3772 11.3207 34.5589 11.5179C34.7197 11.6924 34.8414 11.8992 34.9159 12.1245C35 12.3792 35 12.6647 35 13.2358V15.8334M35 24.1667V26.7643C35 27.3354 35 27.6209 34.9159 27.8756C34.8414 28.1009 34.7197 28.3077 34.5589 28.4821C34.3772 28.6794 34.1276 28.818 33.6284 29.0954L31.25 30.4167M16.25 17.9167L20 20M20 20L23.75 17.9167M20 20V24.1667M5 11.6667L8.75 13.75M31.25 13.75L35 11.6667M20 32.5V36.6667" stroke="#6941C6" stroke-width="3.33333" stroke-linecap="round" stroke-linejoin="round"/>
</svg>
