<svg width="40" height="40" viewBox="0 0 40 40" fill="none" xmlns="http://www.w3.org/2000/svg">
<path d="M35 20L15 20M35 9.99998L15 9.99998M35 30L15 30M8.33333 20C8.33333 20.9205 7.58714 21.6666 6.66667 21.6666C5.74619 21.6666 5 20.9205 5 20C5 19.0795 5.74619 18.3333 6.66667 18.3333C7.58714 18.3333 8.33333 19.0795 8.33333 20ZM8.33333 9.99998C8.33333 10.9205 7.58714 11.6666 6.66667 11.6666C5.74619 11.6666 5 10.9205 5 9.99998C5 9.07951 5.74619 8.33331 6.66667 8.33331C7.58714 8.33331 8.33333 9.07951 8.33333 9.99998ZM8.33333 30C8.33333 30.9205 7.58714 31.6666 6.66667 31.6666C5.74619 31.6666 5 30.9205 5 30C5 29.0795 5.74619 28.3333 6.66667 28.3333C7.58714 28.3333 8.33333 29.0795 8.33333 30Z" stroke="#6941C6" stroke-width="3.33333" stroke-linecap="round" stroke-linejoin="round"/>
</svg>
