<svg width="40" height="40" viewBox="0 0 40 40" fill="none" xmlns="http://www.w3.org/2000/svg">
<path opacity="0.12" d="M13.3333 23.8758C13.3333 23.0605 13.3333 22.6528 13.4254 22.2692C13.507 21.9291 13.6417 21.6039 13.8245 21.3057C14.0306 20.9693 14.3188 20.681 14.8954 20.1045L30.8333 4.16663C32.214 2.78592 34.4526 2.78593 35.8333 4.16664C37.214 5.54735 37.214 7.78593 35.8333 9.16664L19.8954 25.1045C19.3189 25.681 19.0306 25.9693 18.6942 26.1754C18.396 26.3582 18.0709 26.4929 17.7307 26.5745C17.3471 26.6666 16.9395 26.6666 16.1242 26.6666H13.3333V23.8758Z" fill="#6941C6"/>
<path d="M18.3333 6.66664H11.3333C8.53299 6.66664 7.13286 6.66664 6.0633 7.21161C5.12249 7.69097 4.35759 8.45588 3.87822 9.39669C3.33325 10.4662 3.33325 11.8664 3.33325 14.6666V28.6666C3.33325 31.4669 3.33325 32.867 3.87822 33.9366C4.35759 34.8774 5.12249 35.6423 6.0633 36.1217C7.13286 36.6666 8.53299 36.6666 11.3333 36.6666H25.3333C28.1335 36.6666 29.5336 36.6666 30.6032 36.1217C31.544 35.6423 32.3089 34.8774 32.7883 33.9366C33.3333 32.867 33.3333 31.4669 33.3333 28.6666V21.6666M13.3332 26.6666H16.1241C16.9394 26.6666 17.3471 26.6666 17.7307 26.5745C18.0708 26.4929 18.396 26.3582 18.6942 26.1754C19.0306 25.9693 19.3188 25.6811 19.8954 25.1045L35.8333 9.16664C37.214 7.78593 37.214 5.54735 35.8333 4.16664C34.4525 2.78593 32.214 2.78592 30.8333 4.16663L14.8953 20.1045C14.3188 20.681 14.0305 20.9693 13.8244 21.3057C13.6416 21.6039 13.507 21.9291 13.4253 22.2692C13.3332 22.6528 13.3332 23.0605 13.3332 23.8758V26.6666Z" stroke="#6941C6" stroke-width="3.33333" stroke-linecap="round" stroke-linejoin="round"/>
</svg>
