<svg width="40" height="40" viewBox="0 0 40 40" fill="none" xmlns="http://www.w3.org/2000/svg">
<path opacity="0.12" d="M20 25C22.7614 25 25 22.7614 25 20C25 17.2386 22.7614 15 20 15C17.2386 15 15 17.2386 15 20C15 22.7614 17.2386 25 20 25Z" fill="#6941C6"/>
<path d="M4.03281 21.1886C3.80583 20.8292 3.69234 20.6495 3.62881 20.3723C3.58109 20.1641 3.58109 19.8358 3.62881 19.6276C3.69234 19.3504 3.80583 19.1707 4.0328 18.8113C5.90848 15.8414 11.4916 8.33331 19.9999 8.33331C28.5083 8.33331 34.0914 15.8414 35.9671 18.8113C36.1941 19.1707 36.3075 19.3504 36.3711 19.6276C36.4188 19.8358 36.4188 20.1641 36.3711 20.3723C36.3075 20.6495 36.1941 20.8292 35.9671 21.1886C34.0914 24.1586 28.5083 31.6666 19.9999 31.6666C11.4916 31.6666 5.90848 24.1586 4.03281 21.1886Z" stroke="#6941C6" stroke-width="3.33333" stroke-linecap="round" stroke-linejoin="round"/>
<path d="M19.9999 25C22.7614 25 24.9999 22.7614 24.9999 20C24.9999 17.2386 22.7614 15 19.9999 15C17.2385 15 14.9999 17.2386 14.9999 20C14.9999 22.7614 17.2385 25 19.9999 25Z" stroke="#6941C6" stroke-width="3.33333" stroke-linecap="round" stroke-linejoin="round"/>
</svg>
