<svg width="40" height="40" viewBox="0 0 40 40" fill="none" xmlns="http://www.w3.org/2000/svg">
<path opacity="0.12" d="M19.9999 36.6666C29.2047 36.6666 36.6666 29.2047 36.6666 20C36.6666 10.7952 29.2047 3.33331 19.9999 3.33331C10.7952 3.33331 3.33325 10.7952 3.33325 20C3.33325 29.2047 10.7952 36.6666 19.9999 36.6666Z" fill="#6941C6"/>
<path d="M13.3333 23.3333C13.3333 23.3333 15.8333 26.6666 19.9999 26.6666C24.1666 26.6666 26.6666 23.3333 26.6666 23.3333M28.3333 15.4C27.6749 16.2083 26.7749 16.6666 25.8333 16.6666C24.8916 16.6666 24.0166 16.2083 23.3333 15.4M16.6666 15.4C16.0083 16.2083 15.1083 16.6666 14.1666 16.6666C13.2249 16.6666 12.3499 16.2083 11.6666 15.4M36.6666 20C36.6666 29.2047 29.2047 36.6666 19.9999 36.6666C10.7952 36.6666 3.33325 29.2047 3.33325 20C3.33325 10.7952 10.7952 3.33331 19.9999 3.33331C29.2047 3.33331 36.6666 10.7952 36.6666 20Z" stroke="#6941C6" stroke-width="3.33333" stroke-linecap="round" stroke-linejoin="round"/>
</svg>
