<svg width="40" height="40" viewBox="0 0 40 40" fill="none" xmlns="http://www.w3.org/2000/svg">
<g opacity="0.12">
<path d="M8.3335 8.33333C8.3335 5.11167 10.9452 2.5 14.1668 2.5H20.0002V14.1667H14.1668C10.9452 14.1667 8.3335 11.555 8.3335 8.33333Z" fill="#6941C6"/>
<path d="M8.3335 31.6667C8.3335 28.445 10.9452 25.8333 14.1668 25.8333H20.0002V31.6667C20.0002 34.8883 17.3885 37.5 14.1668 37.5C10.9452 37.5 8.3335 34.8883 8.3335 31.6667Z" fill="#6941C6"/>
<path d="M20.0002 20C20.0002 16.7783 22.6118 14.1667 25.8335 14.1667C29.0552 14.1667 31.6668 16.7783 31.6668 20C31.6668 23.2217 29.0552 25.8333 25.8335 25.8333C22.6118 25.8333 20.0002 23.2217 20.0002 20Z" fill="#6941C6"/>
</g>
<path d="M20.0002 2.5H14.1668C10.9452 2.5 8.3335 5.11167 8.3335 8.33333C8.3335 11.555 10.9452 14.1667 14.1668 14.1667M20.0002 2.5V14.1667M20.0002 2.5H25.8335C29.0552 2.5 31.6668 5.11167 31.6668 8.33333C31.6668 11.555 29.0552 14.1667 25.8335 14.1667M20.0002 14.1667H14.1668M20.0002 14.1667V25.8333M20.0002 14.1667H25.8335M14.1668 14.1667C10.9452 14.1667 8.3335 16.7783 8.3335 20C8.3335 23.2217 10.9452 25.8333 14.1668 25.8333M20.0002 25.8333H14.1668M20.0002 25.8333V31.6667C20.0002 34.8883 17.3885 37.5 14.1668 37.5C10.9452 37.5 8.3335 34.8883 8.3335 31.6667C8.3335 28.445 10.9452 25.8333 14.1668 25.8333M25.8335 14.1667C29.0552 14.1667 31.6668 16.7783 31.6668 20C31.6668 23.2217 29.0552 25.8333 25.8335 25.8333C22.6118 25.8333 20.0002 23.2217 20.0002 20C20.0002 16.7783 22.6118 14.1667 25.8335 14.1667Z" stroke="#6941C6" stroke-width="3.33333" stroke-linecap="round" stroke-linejoin="round"/>
</svg>
