<svg width="40" height="40" viewBox="0 0 40 40" fill="none" xmlns="http://www.w3.org/2000/svg">
<path opacity="0.12" d="M30 35C30 35 35 32.6168 35 29.042V24.8715L31.354 23.5687C30.478 23.2549 29.52 23.2549 28.644 23.5687L25 24.8715V29.042C25 32.6168 30 35 30 35Z" fill="#6941C6"/>
<path d="M23.3332 18.3333H13.3332M16.6665 25H13.3332M26.6665 11.6667H13.3332M33.3332 16.6667V11.3333C33.3332 8.53307 33.3332 7.13293 32.7882 6.06338C32.3088 5.12257 31.5439 4.35766 30.6031 3.8783C29.5336 3.33333 28.1334 3.33333 25.3332 3.33333H14.6665C11.8662 3.33333 10.4661 3.33333 9.39655 3.8783C8.45574 4.35766 7.69084 5.12257 7.21147 6.06338C6.6665 7.13293 6.6665 8.53307 6.6665 11.3333V28.6667C6.6665 31.4669 6.6665 32.8671 7.21147 33.9366C7.69084 34.8774 8.45574 35.6423 9.39655 36.1217C10.4661 36.6667 11.8662 36.6667 14.6665 36.6667H20.8332M29.9998 35C29.9998 35 34.9998 32.6168 34.9998 29.042V24.8715L31.3538 23.5687C30.4778 23.2549 29.5198 23.2549 28.6438 23.5687L24.9998 24.8715V29.042C24.9998 32.6168 29.9998 35 29.9998 35Z" stroke="#6941C6" stroke-width="3.33333" stroke-linecap="round" stroke-linejoin="round"/>
</svg>
