<svg width="40" height="40" viewBox="0 0 40 40" fill="none" xmlns="http://www.w3.org/2000/svg">
<path opacity="0.12" d="M31.8688 11.869L24.7977 4.79793C24.3702 4.37039 23.8732 4.02827 23.3333 3.78256V10.6668C23.3333 11.6002 23.3333 12.0669 23.5149 12.4234C23.6747 12.7371 23.9297 12.992 24.2433 13.1518C24.5998 13.3335 25.0665 13.3335 25.9999 13.3335H32.8842C32.6384 12.7935 32.2963 12.2965 31.8688 11.869Z" fill="#6941C6"/>
<path d="M23.3334 3.78256V10.6668C23.3334 11.6002 23.3334 12.0669 23.5151 12.4234C23.6749 12.7371 23.9298 12.992 24.2434 13.1518C24.6 13.3335 25.0667 13.3335 26.0001 13.3335H32.8843M26.6667 21.6667H13.3334M26.6667 28.3333H13.3334M16.6667 15H13.3334M23.3334 3.33334H14.6667C11.8665 3.33334 10.4664 3.33334 9.3968 3.87831C8.45599 4.35768 7.69108 5.12258 7.21172 6.06339C6.66675 7.13295 6.66675 8.53308 6.66675 11.3333V28.6667C6.66675 31.4669 6.66675 32.8671 7.21172 33.9366C7.69108 34.8774 8.45599 35.6423 9.3968 36.1217C10.4664 36.6667 11.8665 36.6667 14.6667 36.6667H25.3334C28.1337 36.6667 29.5338 36.6667 30.6034 36.1217C31.5442 35.6423 32.3091 34.8774 32.7884 33.9366C33.3334 32.8671 33.3334 31.4669 33.3334 28.6667V13.3333L23.3334 3.33334Z" stroke="#6941C6" stroke-width="3.33333" stroke-linecap="round" stroke-linejoin="round"/>
</svg>
