<svg width="40" height="40" viewBox="0 0 40 40" fill="none" xmlns="http://www.w3.org/2000/svg">
<path opacity="0.12" d="M25.3332 3.33334H14.6665C11.8662 3.33334 10.4661 3.33334 9.39655 3.87831C8.45574 4.35768 7.69084 5.12258 7.21147 6.06339C6.6665 7.13295 6.6665 8.53308 6.6665 11.3333V28.6667C6.6665 31.4669 6.6665 32.8671 7.21147 33.9366C7.69084 34.8774 8.45574 35.6423 9.39655 36.1217C10.4661 36.6667 11.8662 36.6667 14.6664 36.6667H19.9998L33.3332 17.5V11.3333C33.3332 8.53308 33.3332 7.13295 32.7882 6.06339C32.3088 5.12258 31.5439 4.35768 30.6031 3.87831C29.5336 3.33334 28.1334 3.33334 25.3332 3.33334Z" fill="#6941C6"/>
<path d="M33.3332 17.5V11.3333C33.3332 8.53308 33.3332 7.13295 32.7882 6.06339C32.3088 5.12258 31.5439 4.35768 30.6031 3.87831C29.5336 3.33334 28.1334 3.33334 25.3332 3.33334H14.6665C11.8662 3.33334 10.4661 3.33334 9.39655 3.87831C8.45574 4.35768 7.69084 5.12258 7.21147 6.06339C6.6665 7.13295 6.6665 8.53308 6.6665 11.3333V28.6667C6.6665 31.4669 6.6665 32.8671 7.21147 33.9366C7.69084 34.8774 8.45574 35.6423 9.39655 36.1217C10.4661 36.6667 11.8662 36.6667 14.6665 36.6667H19.9998M29.9998 35V25M24.9998 30H34.9998" stroke="#6941C6" stroke-width="3.33333" stroke-linecap="round" stroke-linejoin="round"/>
</svg>
