<svg width="40" height="40" viewBox="0 0 40 40" fill="none" xmlns="http://www.w3.org/2000/svg">
<path opacity="0.12" d="M20.9074 25.2777H33.5673C34.3128 25.2777 34.6855 25.2777 34.9035 25.121C35.0937 24.9842 35.2176 24.7737 35.2448 24.541C35.2759 24.2744 35.0949 23.9485 34.7328 23.2968L32.2836 18.8882C32.1523 18.6518 32.0866 18.5337 32.0609 18.4085C32.0381 18.2978 32.0381 18.1835 32.0609 18.0728C32.0866 17.9476 32.1523 17.8295 32.2836 17.5931L34.7328 13.1845C35.0949 12.5328 35.2759 12.2069 35.2448 11.9403C35.2176 11.7076 35.0937 11.4971 34.9035 11.3603C34.6855 11.2036 34.3128 11.2036 33.5673 11.2036H23.5185V15.574C23.5185 16.5074 23.5185 16.9741 23.3368 17.3306C23.1771 17.6442 22.9221 17.8992 22.6085 18.059C22.252 18.2407 21.7853 18.2407 20.8518 18.2407H18.2407V22.611C18.2407 23.5444 18.2407 24.0112 18.4224 24.3677C18.5822 24.6813 18.8371 24.9362 19.1507 25.096C19.5073 25.2777 19.974 25.2777 20.9074 25.2777Z" fill="#6941C6"/>
<path d="M23.5185 11.2036H33.5673C34.3128 11.2036 34.6855 11.2036 34.9035 11.3604C35.0937 11.4971 35.2176 11.7076 35.2448 11.9403C35.2759 12.207 35.0949 12.5328 34.7328 13.1845L32.2836 17.5931C32.1523 17.8295 32.0866 17.9476 32.0609 18.0728C32.0381 18.1835 32.0381 18.2978 32.0609 18.4085C32.0866 18.5337 32.1523 18.6518 32.2836 18.8882L34.7328 23.2968C35.0949 23.9485 35.2759 24.2744 35.2448 24.541C35.2176 24.7737 35.0937 24.9842 34.9035 25.121C34.6855 25.2777 34.3128 25.2777 33.5673 25.2777H20.9074C19.974 25.2777 19.5073 25.2777 19.1507 25.096C18.8371 24.9362 18.5822 24.6813 18.4224 24.3677C18.2407 24.0112 18.2407 23.5444 18.2407 22.611V18.2407M12.0833 35.8337L5.04629 7.68555M7.68526 18.2407H20.8518C21.7853 18.2407 22.252 18.2407 22.6085 18.0591C22.9221 17.8993 23.1771 17.6443 23.3369 17.3307C23.5185 16.9742 23.5185 16.5075 23.5185 15.5741V6.83334C23.5185 5.89992 23.5185 5.43321 23.3369 5.07669C23.1771 4.76308 22.9221 4.50812 22.6085 4.34833C22.252 4.16667 21.7853 4.16667 20.8518 4.16667H7.58204C6.41783 4.16667 5.83573 4.16667 5.43759 4.4079C5.08865 4.61932 4.82937 4.9514 4.7089 5.34121C4.57144 5.78596 4.71262 6.35068 4.995 7.48012L7.68526 18.2407Z" stroke="#6941C6" stroke-width="3.33333" stroke-linecap="round" stroke-linejoin="round"/>
</svg>
