<svg width="40" height="40" viewBox="0 0 40 40" fill="none" xmlns="http://www.w3.org/2000/svg">
<path opacity="0.12" d="M21.6667 8.33331H32.3334C33.2668 8.33331 33.7335 8.33331 34.0901 8.51497C34.4037 8.67476 34.6586 8.92973 34.8184 9.24333C35.0001 9.59985 35.0001 10.0666 35.0001 11V22.3333C35.0001 23.2667 35.0001 23.7334 34.8184 24.09C34.6586 24.4036 34.4037 24.6585 34.0901 24.8183C33.7335 25 33.2668 25 32.3334 25H24.3334C23.4 25 22.9333 25 22.5768 24.8183C22.2632 24.6585 22.0082 24.4036 21.8484 24.09C21.6667 23.7334 21.6667 23.2667 21.6667 22.3333V8.33331Z" fill="#6941C6"/>
<path d="M6.66675 35L6.66675 6.66667M6.66675 21.6667H19.0001C19.9335 21.6667 20.4002 21.6667 20.7567 21.485C21.0703 21.3252 21.3253 21.0703 21.4851 20.7567C21.6667 20.4001 21.6667 19.9334 21.6667 19V7.66667C21.6667 6.73325 21.6667 6.26654 21.4851 5.91002C21.3253 5.59641 21.0703 5.34144 20.7567 5.18166C20.4002 5 19.9335 5 19.0001 5H9.33341C8.39999 5 7.93328 5 7.57676 5.18166C7.26316 5.34144 7.00819 5.59641 6.8484 5.91002C6.66675 6.26654 6.66675 6.73325 6.66675 7.66667V21.6667ZM21.6667 8.33333H32.3334C33.2668 8.33333 33.7335 8.33333 34.0901 8.51499C34.4037 8.67478 34.6586 8.92975 34.8184 9.24335C35.0001 9.59987 35.0001 10.0666 35.0001 11V22.3333C35.0001 23.2668 35.0001 23.7335 34.8184 24.09C34.6586 24.4036 34.4037 24.6586 34.0901 24.8183C33.7335 25 33.2668 25 32.3334 25H24.3334C23.4 25 22.9333 25 22.5768 24.8183C22.2632 24.6586 22.0082 24.4036 21.8484 24.09C21.6667 23.7335 21.6667 23.2668 21.6667 22.3333V8.33333Z" stroke="#6941C6" stroke-width="3.33333" stroke-linecap="round" stroke-linejoin="round"/>
</svg>
