<svg width="40" height="40" viewBox="0 0 40 40" fill="none" xmlns="http://www.w3.org/2000/svg">
<path opacity="0.12" d="M21.6665 8.33331H32.3332C33.2666 8.33331 33.7333 8.33331 34.0898 8.51497C34.4034 8.67476 34.6584 8.92973 34.8182 9.24333C34.9998 9.59985 34.9998 10.0666 34.9998 11V22.3333C34.9998 23.2667 34.9998 23.7334 34.8182 24.09C34.6584 24.4036 34.4034 24.6585 34.0898 24.8183C33.7333 25 33.2666 25 32.3332 25H24.3332C23.3997 25 22.933 25 22.5765 24.8183C22.2629 24.6585 22.0079 24.4036 21.8482 24.09C21.6665 23.7334 21.6665 23.2667 21.6665 22.3333V8.33331Z" fill="#6941C6"/>
<path d="M6.66651 35L6.6665 6.66667M6.6665 21.6667H18.9998C19.9333 21.6667 20.4 21.6667 20.7565 21.485C21.0701 21.3252 21.3251 21.0703 21.4848 20.7567C21.6665 20.4001 21.6665 19.9334 21.6665 19V7.66667C21.6665 6.73325 21.6665 6.26654 21.4848 5.91002C21.3251 5.59641 21.0701 5.34144 20.7565 5.18166C20.4 5 19.9333 5 18.9998 5H9.33317C8.39975 5 7.93304 5 7.57652 5.18166C7.26292 5.34144 7.00795 5.59641 6.84816 5.91002C6.6665 6.26654 6.6665 6.73325 6.6665 7.66667V21.6667ZM21.6665 8.33333H32.3332C33.2666 8.33333 33.7333 8.33333 34.0898 8.51499C34.4034 8.67478 34.6584 8.92975 34.8182 9.24335C34.9998 9.59987 34.9998 10.0666 34.9998 11V22.3333C34.9998 23.2668 34.9998 23.7335 34.8182 24.09C34.6584 24.4036 34.4034 24.6586 34.0898 24.8183C33.7333 25 33.2666 25 32.3332 25H24.3332C23.3998 25 22.933 25 22.5765 24.8183C22.2629 24.6586 22.0079 24.4036 21.8482 24.09C21.6665 23.7335 21.6665 23.2668 21.6665 22.3333V8.33333Z" stroke="#6941C6" stroke-width="3.33333" stroke-linecap="round" stroke-linejoin="round"/>
</svg>
