<svg width="40" height="40" viewBox="0 0 40 40" fill="none" xmlns="http://www.w3.org/2000/svg">
<path opacity="0.12" d="M3.33325 10.3333C3.33325 8.46649 3.33325 7.53307 3.69656 6.82003C4.01614 6.19282 4.52608 5.68289 5.15328 5.36331C5.86632 5 6.79974 5 8.66659 5H15.0371C16.2336 5 16.8319 5 17.36 5.18218C17.8271 5.34329 18.2526 5.60622 18.6055 5.95194C19.0047 6.34289 19.2722 6.87799 19.8074 7.94819L21.6666 11.6667H3.33325V10.3333Z" fill="#6941C6"/>
<path d="M21.6666 11.6667L19.8074 7.94819C19.2723 6.87801 19.0047 6.34288 18.6055 5.95194C18.2526 5.60622 17.8271 5.34329 17.36 5.18218C16.8319 5 16.2336 5 15.0371 5H8.66659C6.79974 5 5.86632 5 5.15328 5.36331C4.52608 5.68289 4.01614 6.19282 3.69656 6.82003C3.33325 7.53307 3.33325 8.46649 3.33325 10.3333V11.6667M3.33325 11.6667H28.6666C31.4668 11.6667 32.867 11.6667 33.9365 12.2116C34.8773 12.691 35.6423 13.4559 36.1216 14.3967C36.6666 15.4663 36.6666 16.8664 36.6666 19.6667V27C36.6666 29.8003 36.6666 31.2004 36.1216 32.27C35.6423 33.2108 34.8773 33.9757 33.9365 34.455C32.867 35 31.4668 35 28.6666 35H11.3333C8.53299 35 7.13286 35 6.0633 34.455C5.12249 33.9757 4.35759 33.2108 3.87822 32.27C3.33325 31.2004 3.33325 29.8003 3.33325 27V11.6667ZM25.8333 29.1667L23.3333 26.6667M24.9999 22.5C24.9999 25.7217 22.3882 28.3333 19.1666 28.3333C15.9449 28.3333 13.3333 25.7217 13.3333 22.5C13.3333 19.2783 15.9449 16.6667 19.1666 16.6667C22.3882 16.6667 24.9999 19.2783 24.9999 22.5Z" stroke="#6941C6" stroke-width="3.33333" stroke-linecap="round" stroke-linejoin="round"/>
</svg>
