<svg width="40" height="40" viewBox="0 0 40 40" fill="none" xmlns="http://www.w3.org/2000/svg">
<g opacity="0.12">
<path d="M3.69656 13.4867C3.33325 14.1997 3.33325 15.1332 3.33325 17V23.3333H19.9999V11.6667H8.66659C6.79974 11.6667 5.86632 11.6667 5.15328 12.03C4.52608 12.3496 4.01614 12.8595 3.69656 13.4867Z" fill="#6941C6"/>
<path d="M36.3033 34.8466C36.6666 34.1336 36.6666 33.2002 36.6666 31.3333V23.3333H19.9999L19.9999 36.6667H31.3333C33.2001 36.6667 34.1335 36.6667 34.8466 36.3034C35.4738 35.9838 35.9837 35.4738 36.3033 34.8466Z" fill="#6941C6"/>
</g>
<path d="M19.9999 11.6667H12.4999C11.3949 11.6667 10.335 11.2277 9.55364 10.4463C8.77224 9.66487 8.33325 8.60506 8.33325 7.5C8.33325 6.39493 8.77224 5.33512 9.55364 4.55372C10.335 3.77232 11.3949 3.33333 12.4999 3.33333C18.3333 3.33333 19.9999 11.6667 19.9999 11.6667ZM19.9999 11.6667H27.4999C28.605 11.6667 29.6648 11.2277 30.4462 10.4463C31.2276 9.66487 31.6666 8.60506 31.6666 7.5C31.6666 6.39493 31.2276 5.33512 30.4462 4.55372C29.6648 3.77232 28.605 3.33333 27.4999 3.33333C21.6666 3.33333 19.9999 11.6667 19.9999 11.6667ZM19.9999 11.6667L19.9999 36.6667M3.33325 23.3333H36.6666M3.33325 17L3.33325 31.3333C3.33325 33.2002 3.33325 34.1336 3.69656 34.8466C4.01614 35.4738 4.52608 35.9838 5.15328 36.3033C5.86632 36.6667 6.79974 36.6667 8.66658 36.6667L31.3333 36.6667C33.2001 36.6667 34.1335 36.6667 34.8466 36.3034C35.4738 35.9838 35.9837 35.4738 36.3033 34.8466C36.6666 34.1336 36.6666 33.2002 36.6666 31.3333V17C36.6666 15.1332 36.6666 14.1997 36.3033 13.4867C35.9837 12.8595 35.4738 12.3496 34.8466 12.03C34.1335 11.6667 33.2001 11.6667 31.3333 11.6667L8.66659 11.6667C6.79974 11.6667 5.86632 11.6667 5.15328 12.03C4.52608 12.3496 4.01614 12.8595 3.69656 13.4867C3.33325 14.1997 3.33325 15.1332 3.33325 17Z" stroke="#6941C6" stroke-width="3.33333" stroke-linecap="round" stroke-linejoin="round"/>
</svg>
