<svg width="40" height="40" viewBox="0 0 40 40" fill="none" xmlns="http://www.w3.org/2000/svg">
<path opacity="0.12" d="M19.9999 3.33331C24.9999 6.66665 26.5378 13.82 26.6666 20C26.5378 26.1799 24.9999 33.3333 19.9999 36.6666C14.9999 33.3333 13.462 26.1799 13.3333 20C13.462 13.82 14.9999 6.66665 19.9999 3.33331Z" fill="#6941C6"/>
<path d="M19.9999 3.33331C24.9999 6.66665 26.5378 13.82 26.6666 20C26.5378 26.1799 24.9999 33.3333 19.9999 36.6666M19.9999 3.33331C14.9999 6.66665 13.462 13.82 13.3333 20C13.462 26.1799 14.9999 33.3333 19.9999 36.6666M19.9999 3.33331C10.7952 3.33331 3.33325 10.7952 3.33325 20M19.9999 3.33331C29.2047 3.33331 36.6666 10.7952 36.6666 20M19.9999 36.6666C29.2047 36.6666 36.6666 29.2047 36.6666 20M19.9999 36.6666C10.7952 36.6666 3.33325 29.2047 3.33325 20M36.6666 20C33.3333 25 26.1799 26.5379 19.9999 26.6666C13.82 26.5379 6.66659 25 3.33325 20M36.6666 20C33.3333 15 26.1799 13.4621 19.9999 13.3333C13.82 13.4621 6.66659 15 3.33325 20" stroke="#6941C6" stroke-width="3.33333" stroke-linecap="round" stroke-linejoin="round"/>
</svg>
