<svg width="40" height="40" viewBox="0 0 40 40" fill="none" xmlns="http://www.w3.org/2000/svg">
<g opacity="0.12">
<path d="M14 5H7.66667C6.73325 5 6.26654 5 5.91002 5.18166C5.59641 5.34144 5.34144 5.59641 5.18166 5.91002C5 6.26654 5 6.73325 5 7.66667V14C5 14.9334 5 15.4001 5.18166 15.7567C5.34144 16.0703 5.59641 16.3252 5.91002 16.485C6.26654 16.6667 6.73325 16.6667 7.66667 16.6667H14C14.9334 16.6667 15.4001 16.6667 15.7567 16.485C16.0703 16.3252 16.3252 16.0703 16.485 15.7567C16.6667 15.4001 16.6667 14.9334 16.6667 14V7.66667C16.6667 6.73325 16.6667 6.26654 16.485 5.91002C16.3252 5.59641 16.0703 5.34144 15.7567 5.18166C15.4001 5 14.9334 5 14 5Z" fill="#6941C6"/>
<path d="M32.3333 5H26C25.0666 5 24.5999 5 24.2433 5.18166C23.9297 5.34144 23.6748 5.59641 23.515 5.91002C23.3333 6.26654 23.3333 6.73325 23.3333 7.66667V14C23.3333 14.9334 23.3333 15.4001 23.515 15.7567C23.6748 16.0703 23.9297 16.3252 24.2433 16.485C24.5999 16.6667 25.0666 16.6667 26 16.6667H32.3333C33.2668 16.6667 33.7335 16.6667 34.09 16.485C34.4036 16.3252 34.6586 16.0703 34.8183 15.7567C35 15.4001 35 14.9334 35 14V7.66667C35 6.73325 35 6.26654 34.8183 5.91002C34.6586 5.59641 34.4036 5.34144 34.09 5.18166C33.7335 5 33.2668 5 32.3333 5Z" fill="#6941C6"/>
<path d="M32.3333 23.3333H26C25.0666 23.3333 24.5999 23.3333 24.2433 23.515C23.9297 23.6748 23.6748 23.9297 23.515 24.2433C23.3333 24.5999 23.3333 25.0666 23.3333 26V32.3333C23.3333 33.2668 23.3333 33.7335 23.515 34.09C23.6748 34.4036 23.9297 34.6586 24.2433 34.8183C24.5999 35 25.0666 35 26 35H32.3333C33.2668 35 33.7335 35 34.09 34.8183C34.4036 34.6586 34.6586 34.4036 34.8183 34.09C35 33.7335 35 33.2668 35 32.3333V26C35 25.0666 35 24.5999 34.8183 24.2433C34.6586 23.9297 34.4036 23.6748 34.09 23.515C33.7335 23.3333 33.2668 23.3333 32.3333 23.3333Z" fill="#6941C6"/>
<path d="M14 23.3333H7.66667C6.73325 23.3333 6.26654 23.3333 5.91002 23.515C5.59641 23.6748 5.34144 23.9297 5.18166 24.2433C5 24.5999 5 25.0666 5 26V32.3333C5 33.2668 5 33.7335 5.18166 34.09C5.34144 34.4036 5.59641 34.6586 5.91002 34.8183C6.26654 35 6.73325 35 7.66667 35H14C14.9334 35 15.4001 35 15.7567 34.8183C16.0703 34.6586 16.3252 34.4036 16.485 34.09C16.6667 33.7335 16.6667 33.2668 16.6667 32.3333V26C16.6667 25.0666 16.6667 24.5999 16.485 24.2433C16.3252 23.9297 16.0703 23.6748 15.7567 23.515C15.4001 23.3333 14.9334 23.3333 14 23.3333Z" fill="#6941C6"/>
</g>
<path d="M14 5H7.66667C6.73325 5 6.26654 5 5.91002 5.18166C5.59641 5.34144 5.34144 5.59641 5.18166 5.91002C5 6.26654 5 6.73325 5 7.66667V14C5 14.9334 5 15.4001 5.18166 15.7567C5.34144 16.0703 5.59641 16.3252 5.91002 16.485C6.26654 16.6667 6.73325 16.6667 7.66667 16.6667H14C14.9334 16.6667 15.4001 16.6667 15.7567 16.485C16.0703 16.3252 16.3252 16.0703 16.485 15.7567C16.6667 15.4001 16.6667 14.9334 16.6667 14V7.66667C16.6667 6.73325 16.6667 6.26654 16.485 5.91002C16.3252 5.59641 16.0703 5.34144 15.7567 5.18166C15.4001 5 14.9334 5 14 5Z" stroke="#6941C6" stroke-width="3.33333" stroke-linecap="round" stroke-linejoin="round"/>
<path d="M32.3333 5H26C25.0666 5 24.5999 5 24.2433 5.18166C23.9297 5.34144 23.6748 5.59641 23.515 5.91002C23.3333 6.26654 23.3333 6.73325 23.3333 7.66667V14C23.3333 14.9334 23.3333 15.4001 23.515 15.7567C23.6748 16.0703 23.9297 16.3252 24.2433 16.485C24.5999 16.6667 25.0666 16.6667 26 16.6667H32.3333C33.2668 16.6667 33.7335 16.6667 34.09 16.485C34.4036 16.3252 34.6586 16.0703 34.8183 15.7567C35 15.4001 35 14.9334 35 14V7.66667C35 6.73325 35 6.26654 34.8183 5.91002C34.6586 5.59641 34.4036 5.34144 34.09 5.18166C33.7335 5 33.2668 5 32.3333 5Z" stroke="#6941C6" stroke-width="3.33333" stroke-linecap="round" stroke-linejoin="round"/>
<path d="M32.3333 23.3333H26C25.0666 23.3333 24.5999 23.3333 24.2433 23.515C23.9297 23.6748 23.6748 23.9297 23.515 24.2433C23.3333 24.5999 23.3333 25.0666 23.3333 26V32.3333C23.3333 33.2668 23.3333 33.7335 23.515 34.09C23.6748 34.4036 23.9297 34.6586 24.2433 34.8183C24.5999 35 25.0666 35 26 35H32.3333C33.2668 35 33.7335 35 34.09 34.8183C34.4036 34.6586 34.6586 34.4036 34.8183 34.09C35 33.7335 35 33.2668 35 32.3333V26C35 25.0666 35 24.5999 34.8183 24.2433C34.6586 23.9297 34.4036 23.6748 34.09 23.515C33.7335 23.3333 33.2668 23.3333 32.3333 23.3333Z" stroke="#6941C6" stroke-width="3.33333" stroke-linecap="round" stroke-linejoin="round"/>
<path d="M14 23.3333H7.66667C6.73325 23.3333 6.26654 23.3333 5.91002 23.515C5.59641 23.6748 5.34144 23.9297 5.18166 24.2433C5 24.5999 5 25.0666 5 26V32.3333C5 33.2668 5 33.7335 5.18166 34.09C5.34144 34.4036 5.59641 34.6586 5.91002 34.8183C6.26654 35 6.73325 35 7.66667 35H14C14.9334 35 15.4001 35 15.7567 34.8183C16.0703 34.6586 16.3252 34.4036 16.485 34.09C16.6667 33.7335 16.6667 33.2668 16.6667 32.3333V26C16.6667 25.0666 16.6667 24.5999 16.485 24.2433C16.3252 23.9297 16.0703 23.6748 15.7567 23.515C15.4001 23.3333 14.9334 23.3333 14 23.3333Z" stroke="#6941C6" stroke-width="3.33333" stroke-linecap="round" stroke-linejoin="round"/>
</svg>
