<svg width="40" height="40" viewBox="0 0 40 40" fill="none" xmlns="http://www.w3.org/2000/svg">
<path opacity="0.12" fill-rule="evenodd" clip-rule="evenodd" d="M19.9888 8.55969C16.6565 4.664 11.0997 3.61607 6.92465 7.18336C2.74957 10.7506 2.16178 16.715 5.44049 20.934C8.16652 24.4418 16.4165 31.8402 19.1203 34.2347C19.4228 34.5026 19.5741 34.6366 19.7505 34.6892C19.9045 34.7351 20.073 34.7351 20.227 34.6892C20.4034 34.6366 20.5547 34.5026 20.8572 34.2347C23.561 31.8402 31.811 24.4418 34.537 20.934C37.8157 16.715 37.2997 10.7131 33.0528 7.18336C28.806 3.6536 23.321 4.664 19.9888 8.55969Z" fill="#6941C6"/>
<path fill-rule="evenodd" clip-rule="evenodd" d="M19.9887 8.55969C16.6565 4.664 11.0997 3.61607 6.92465 7.18336C2.74957 10.7506 2.16178 16.715 5.44049 20.934C8.16652 24.4418 16.4165 31.8402 19.1203 34.2347C19.4228 34.5026 19.5741 34.6366 19.7505 34.6892C19.9045 34.7351 20.073 34.7351 20.227 34.6892C20.4034 34.6366 20.5547 34.5026 20.8572 34.2347C23.561 31.8402 31.811 24.4418 34.537 20.934C37.8157 16.715 37.2997 10.7131 33.0528 7.18336C28.806 3.6536 23.321 4.664 19.9887 8.55969Z" stroke="#6941C6" stroke-width="3.33333" stroke-linecap="round" stroke-linejoin="round"/>
</svg>
