<svg width="40" height="40" viewBox="0 0 40 40" fill="none" xmlns="http://www.w3.org/2000/svg">
<path opacity="0.12" d="M5 17.6084C5 16.6512 5 16.1725 5.12338 15.7318C5.23267 15.3413 5.41228 14.9741 5.65338 14.6481C5.92556 14.2801 6.30337 13.9862 7.05898 13.3985L18.3628 4.60666C18.9484 4.15124 19.2411 3.92353 19.5644 3.836C19.8497 3.75877 20.1503 3.75877 20.4356 3.836C20.7589 3.92353 21.0516 4.15124 21.6372 4.60667L32.941 13.3985C33.6966 13.9862 34.0744 14.2801 34.3466 14.6481C34.5877 14.9741 34.7673 15.3413 34.8766 15.7318C35 16.1725 35 16.6512 35 17.6084V29.6666C35 31.5335 35 32.4669 34.6367 33.1799C34.3171 33.8071 33.8072 34.3171 33.18 34.6367C32.4669 35 31.5335 35 29.6667 35H10.3333C8.46649 35 7.53307 35 6.82003 34.6367C6.19282 34.3171 5.68289 33.8071 5.36331 33.1799C5 32.4669 5 31.5335 5 29.6666V17.6084Z" fill="#6941C6"/>
<path d="M13.5434 23.3333C14.2834 26.2087 16.8936 28.3333 20 28.3333C23.1064 28.3333 25.7166 26.2087 26.4566 23.3333M18.3628 4.60666L7.05898 13.3985C6.30337 13.9862 5.92556 14.2801 5.65338 14.6481C5.41228 14.9741 5.23267 15.3413 5.12338 15.7318C5 16.1725 5 16.6512 5 17.6084V29.6666C5 31.5335 5 32.4669 5.36331 33.1799C5.68289 33.8071 6.19282 34.3171 6.82003 34.6367C7.53307 35 8.46649 35 10.3333 35H29.6667C31.5335 35 32.4669 35 33.18 34.6367C33.8072 34.3171 34.3171 33.8071 34.6367 33.1799C35 32.4669 35 31.5335 35 29.6666V17.6084C35 16.6512 35 16.1725 34.8766 15.7318C34.7673 15.3413 34.5877 14.9741 34.3466 14.6481C34.0744 14.2801 33.6966 13.9862 32.941 13.3985L21.6372 4.60667C21.0516 4.15124 20.7589 3.92353 20.4356 3.836C20.1503 3.75877 19.8497 3.75877 19.5644 3.836C19.2411 3.92353 18.9484 4.15124 18.3628 4.60666Z" stroke="#6941C6" stroke-width="3.33333" stroke-linecap="round" stroke-linejoin="round"/>
</svg>
