<svg width="40" height="40" viewBox="0 0 40 40" fill="none" xmlns="http://www.w3.org/2000/svg">
<g opacity="0.12">
<path d="M16.6667 22.5C20.3486 22.5 23.3334 19.5152 23.3334 15.8333C23.3334 12.1514 20.3486 9.16666 16.6667 9.16666C12.9848 9.16666 10.0001 12.1514 10.0001 15.8333C10.0001 19.5152 12.9848 22.5 16.6667 22.5Z" fill="#6941C6"/>
<path d="M29.9997 36.6667C29.9997 35.1178 29.9997 34.3434 29.8716 33.6994C29.3456 31.0548 27.2782 28.9875 24.6336 28.4614C23.9896 28.3333 23.2152 28.3333 21.6664 28.3333H9.99969C6.93769 28.3333 4.35783 30.3977 3.57593 33.2105C4.22645 35.2164 6.11037 36.6667 8.33303 36.6667H29.9997Z" fill="#6941C6"/>
</g>
<path d="M31.6666 13.3333V3.33334M26.6666 8.33334H36.6666M36.6666 20V28.6667C36.6666 31.4669 36.6666 32.8671 36.1216 33.9366C35.6423 34.8774 34.8774 35.6423 33.9365 36.1217C32.867 36.6667 31.4668 36.6667 28.6666 36.6667H11.3333C8.53299 36.6667 7.13286 36.6667 6.0633 36.1217C5.12249 35.6423 4.35759 34.8774 3.87822 33.9366C3.33325 32.8671 3.33325 31.4669 3.33325 28.6667V11.3333C3.33325 8.53308 3.33325 7.13295 3.87822 6.06339C4.35759 5.12258 5.12249 4.35768 6.0633 3.87831C7.13286 3.33334 8.53299 3.33334 11.3333 3.33334H19.9999M3.57615 33.2105C4.35806 30.3977 6.93791 28.3333 9.99992 28.3333H21.6666C23.2154 28.3333 23.9899 28.3333 24.6339 28.4614C27.2785 28.9875 29.3458 31.0548 29.8718 33.6994C29.9999 34.3434 29.9999 35.1178 29.9999 36.6667M23.3333 15.8333C23.3333 19.5152 20.3485 22.5 16.6666 22.5C12.9847 22.5 9.99992 19.5152 9.99992 15.8333C9.99992 12.1514 12.9847 9.16668 16.6666 9.16668C20.3485 9.16668 23.3333 12.1514 23.3333 15.8333Z" stroke="#6941C6" stroke-width="3.33333" stroke-linecap="round" stroke-linejoin="round"/>
</svg>
