<svg width="40" height="40" viewBox="0 0 40 40" fill="none" xmlns="http://www.w3.org/2000/svg">
<path opacity="0.12" d="M21.6665 16C21.6665 15.0666 21.6665 14.5999 21.8482 14.2434C22.0079 13.9298 22.2629 13.6748 22.5765 13.515C22.933 13.3333 23.3997 13.3333 24.3332 13.3333H32.3332C33.2666 13.3333 33.7333 13.3333 34.0898 13.515C34.4034 13.6748 34.6584 13.9298 34.8182 14.2434C34.9998 14.5999 34.9998 15.0666 34.9998 16V24C34.9998 24.9334 34.9998 25.4001 34.8182 25.7567C34.6584 26.0703 34.4034 26.3252 34.0898 26.485C33.7333 26.6667 33.2666 26.6667 32.3332 26.6667H24.3332C23.3997 26.6667 22.933 26.6667 22.5765 26.485C22.2629 26.3252 22.0079 26.0703 21.8482 25.7567C21.6665 25.4001 21.6665 24.9334 21.6665 24V16Z" fill="#6941C6"/>
<path d="M35 6.66666H5M35 33.3333H5M15 15.4167H5M15 24.5833H5M24.3333 26.6667H32.3333C33.2668 26.6667 33.7335 26.6667 34.09 26.485C34.4036 26.3252 34.6586 26.0702 34.8183 25.7566C35 25.4001 35 24.9334 35 24V16C35 15.0666 35 14.5999 34.8183 14.2433C34.6586 13.9297 34.4036 13.6748 34.09 13.515C33.7335 13.3333 33.2668 13.3333 32.3333 13.3333H24.3333C23.3999 13.3333 22.9332 13.3333 22.5767 13.515C22.2631 13.6748 22.0081 13.9297 21.8483 14.2433C21.6667 14.5999 21.6667 15.0666 21.6667 16V24C21.6667 24.9334 21.6667 25.4001 21.8483 25.7566C22.0081 26.0702 22.2631 26.3252 22.5767 26.485C22.9332 26.6667 23.3999 26.6667 24.3333 26.6667Z" stroke="#6941C6" stroke-width="3.33333" stroke-linecap="round" stroke-linejoin="round"/>
</svg>
