<svg width="40" height="40" viewBox="0 0 40 40" fill="none" xmlns="http://www.w3.org/2000/svg">
<path opacity="0.12" d="M26.6666 15C26.6666 21.4433 21.4432 26.6667 14.9999 26.6667C14.47 26.6667 13.9483 26.6313 13.437 26.5629C13.3686 26.0517 13.3333 25.53 13.3333 25C13.3333 18.5567 18.5566 13.3333 24.9999 13.3333C25.5299 13.3333 26.0516 13.3687 26.5628 13.4371C26.6313 13.9483 26.6666 14.47 26.6666 15Z" fill="#6941C6"/>
<path d="M14.9999 26.6667C21.4432 26.6667 26.6666 21.4433 26.6666 15C26.6666 8.55667 21.4432 3.33333 14.9999 3.33333C8.5566 3.33333 3.33325 8.55667 3.33325 15C3.33325 21.4433 8.5566 26.6667 14.9999 26.6667Z" stroke="#6941C6" stroke-width="3.33333" stroke-linecap="round" stroke-linejoin="round"/>
<path d="M24.9999 36.6667C31.4432 36.6667 36.6666 31.4433 36.6666 25C36.6666 18.5567 31.4432 13.3333 24.9999 13.3333C18.5566 13.3333 13.3333 18.5567 13.3333 25C13.3333 31.4433 18.5566 36.6667 24.9999 36.6667Z" stroke="#6941C6" stroke-width="3.33333" stroke-linecap="round" stroke-linejoin="round"/>
</svg>
