<svg width="40" height="40" viewBox="0 0 40 40" fill="none" xmlns="http://www.w3.org/2000/svg">
<path opacity="0.12" d="M23.0584 21.1924C21.9564 21.9638 21.4055 22.3494 20.8061 22.4988C20.2768 22.6308 19.7231 22.6308 19.1937 22.4988C18.5944 22.3494 18.0434 21.9638 16.9415 21.1924L3.33325 11.6667C3.33325 8.90523 5.57183 6.66666 8.33325 6.66666H31.6666C34.428 6.66666 36.6666 8.90523 36.6666 11.6667L23.0584 21.1924Z" fill="#6941C6"/>
<path d="M35.8332 30L24.7618 20M15.238 20L4.16664 30M3.33325 11.6667L16.9415 21.1924C18.0434 21.9638 18.5944 22.3494 19.1937 22.4988C19.7231 22.6308 20.2768 22.6308 20.8061 22.4988C21.4055 22.3494 21.9564 21.9638 23.0584 21.1924L36.6666 11.6667M11.3333 33.3333H28.6666C31.4668 33.3333 32.867 33.3333 33.9365 32.7884C34.8773 32.309 35.6423 31.5441 36.1216 30.6033C36.6666 29.5337 36.6666 28.1336 36.6666 25.3333V14.6667C36.6666 11.8664 36.6666 10.4663 36.1216 9.3967C35.6423 8.45589 34.8773 7.69099 33.9365 7.21162C32.867 6.66666 31.4668 6.66666 28.6666 6.66666H11.3333C8.53299 6.66666 7.13286 6.66666 6.0633 7.21162C5.12249 7.69099 4.35759 8.45589 3.87822 9.3967C3.33325 10.4663 3.33325 11.8664 3.33325 14.6667V25.3333C3.33325 28.1336 3.33325 29.5337 3.87822 30.6033C4.35759 31.5441 5.12249 32.309 6.0633 32.7884C7.13286 33.3333 8.53299 33.3333 11.3333 33.3333Z" stroke="#6941C6" stroke-width="3.33333" stroke-linecap="round" stroke-linejoin="round"/>
</svg>
