<svg width="40" height="40" viewBox="0 0 40 40" fill="none" xmlns="http://www.w3.org/2000/svg">
<path opacity="0.12" d="M20 21.6667C22.7614 21.6667 25 19.4281 25 16.6667C25 13.9052 22.7614 11.6667 20 11.6667C17.2386 11.6667 15 13.9052 15 16.6667C15 19.4281 17.2386 21.6667 20 21.6667Z" fill="#6941C6"/>
<path d="M19.9998 21.6667C22.7613 21.6667 24.9998 19.4281 24.9998 16.6667C24.9998 13.9052 22.7613 11.6667 19.9998 11.6667C17.2384 11.6667 14.9998 13.9052 14.9998 16.6667C14.9998 19.4281 17.2384 21.6667 19.9998 21.6667Z" stroke="#6941C6" stroke-width="3.33333" stroke-linecap="round" stroke-linejoin="round"/>
<path d="M19.9998 36.6667C26.6665 30 33.3332 24.0305 33.3332 16.6667C33.3332 9.30286 27.3636 3.33333 19.9998 3.33333C12.636 3.33333 6.6665 9.30286 6.6665 16.6667C6.6665 24.0305 13.3332 30 19.9998 36.6667Z" stroke="#6941C6" stroke-width="3.33333" stroke-linecap="round" stroke-linejoin="round"/>
</svg>
