<svg width="40" height="40" viewBox="0 0 40 40" fill="none" xmlns="http://www.w3.org/2000/svg">
<path opacity="0.12" d="M20 28.3333C22.5 23.3333 30 20.1062 30 13.3333C30 7.81047 25.5228 3.33331 20 3.33331C14.4772 3.33331 10 7.81047 10 13.3333C10 20.1062 17.5 23.3333 20 28.3333Z" fill="#6941C6"/>
<path d="M8.33325 23.8106C5.24765 25.1718 3.33325 27.0686 3.33325 29.1666C3.33325 33.3088 10.7952 36.6666 19.9999 36.6666C29.2047 36.6666 36.6666 33.3088 36.6666 29.1666C36.6666 27.0686 34.7522 25.1718 31.6666 23.8106M29.9999 13.3333C29.9999 20.1062 22.4999 23.3333 19.9999 28.3333C17.4999 23.3333 9.99992 20.1062 9.99992 13.3333C9.99992 7.81047 14.4771 3.33331 19.9999 3.33331C25.5228 3.33331 29.9999 7.81047 29.9999 13.3333ZM21.6666 13.3333C21.6666 14.2538 20.9204 15 19.9999 15C19.0794 15 18.3333 14.2538 18.3333 13.3333C18.3333 12.4128 19.0794 11.6666 19.9999 11.6666C20.9204 11.6666 21.6666 12.4128 21.6666 13.3333Z" stroke="#6941C6" stroke-width="3.33333" stroke-linecap="round" stroke-linejoin="round"/>
</svg>
