<svg width="40" height="40" viewBox="0 0 40 40" fill="none" xmlns="http://www.w3.org/2000/svg">
<path opacity="0.12" d="M35.0002 19.1667C35.0002 26.9907 28.6576 33.3333 20.8335 33.3333C19.0389 33.3333 17.3222 32.9996 15.7421 32.3909C15.4532 32.2796 15.3088 32.2239 15.1939 32.1975C15.0809 32.1714 14.9991 32.1605 14.8833 32.1561C14.7655 32.1516 14.6363 32.165 14.3778 32.1917L5.84276 33.074C5.02902 33.1581 4.62215 33.2001 4.38215 33.0537C4.1731 32.9262 4.03072 32.7132 3.99282 32.4713C3.9493 32.1935 4.14373 31.8337 4.53258 31.1139L7.25868 26.068C7.48318 25.6525 7.59543 25.4447 7.64628 25.2449C7.69649 25.0476 7.70863 24.9053 7.69257 24.7024C7.6763 24.4969 7.58614 24.2294 7.40581 23.6944C6.9266 22.2727 6.66686 20.75 6.66686 19.1667C6.66686 11.3426 13.0095 5 20.8335 5C28.6576 5 35.0002 11.3426 35.0002 19.1667Z" fill="#6941C6"/>
<path d="M15.0002 23.3333C15.0002 23.3333 17.1877 25.8333 20.8335 25.8333C24.4794 25.8333 26.6669 23.3333 26.6669 23.3333M25.4169 15H25.4335M16.2502 15H16.2669M20.8335 33.3333C28.6576 33.3333 35.0002 26.9907 35.0002 19.1667C35.0002 11.3426 28.6576 5 20.8335 5C13.0095 5 6.66686 11.3426 6.66686 19.1667C6.66686 20.75 6.9266 22.2727 7.40581 23.6944C7.58614 24.2294 7.6763 24.4969 7.69257 24.7024C7.70863 24.9053 7.69649 25.0476 7.64628 25.2449C7.59543 25.4447 7.48318 25.6525 7.25868 26.068L4.53258 31.1139C4.14373 31.8337 3.9493 32.1935 3.99282 32.4713C4.03072 32.7132 4.1731 32.9262 4.38215 33.0537C4.62215 33.2001 5.02902 33.1581 5.84276 33.074L14.3778 32.1917C14.6363 32.165 14.7655 32.1516 14.8833 32.1561C14.9991 32.1605 15.0809 32.1714 15.1939 32.1975C15.3088 32.224 15.4532 32.2796 15.7421 32.3909C17.3222 32.9996 19.0389 33.3333 20.8335 33.3333ZM26.2502 15C26.2502 15.4602 25.8771 15.8333 25.4169 15.8333C24.9566 15.8333 24.5835 15.4602 24.5835 15C24.5835 14.5398 24.9566 14.1667 25.4169 14.1667C25.8771 14.1667 26.2502 14.5398 26.2502 15ZM17.0835 15C17.0835 15.4602 16.7104 15.8333 16.2502 15.8333C15.79 15.8333 15.4169 15.4602 15.4169 15C15.4169 14.5398 15.79 14.1667 16.2502 14.1667C16.7104 14.1667 17.0835 14.5398 17.0835 15Z" stroke="#6941C6" stroke-width="3.33333" stroke-linecap="round" stroke-linejoin="round"/>
</svg>
