<svg width="40" height="40" viewBox="0 0 40 40" fill="none" xmlns="http://www.w3.org/2000/svg">
<path opacity="0.12" d="M33.5355 6.46447C35.4882 8.41709 35.4882 11.5829 33.5355 13.5355C31.5829 15.4882 28.4171 15.4882 26.4645 13.5355C24.5118 11.5829 24.5118 8.41709 26.4645 6.46447C28.4171 4.51184 31.5829 4.51184 33.5355 6.46447Z" fill="#6941C6"/>
<path d="M21.6667 28.3333H11.6667M25 21.6667H11.6667M18.3333 6.66667H13C10.1997 6.66667 8.79961 6.66667 7.73005 7.21163C6.78924 7.691 6.02433 8.4559 5.54497 9.39671C5 10.4663 5 11.8664 5 14.6667V27C5 29.8003 5 31.2004 5.54497 32.27C6.02433 33.2108 6.78924 33.9757 7.73005 34.455C8.79961 35 10.1997 35 13 35H25.3333C28.1336 35 29.5337 35 30.6033 34.455C31.5441 33.9757 32.309 33.2108 32.7884 32.27C33.3333 31.2004 33.3333 29.8003 33.3333 27V21.6667M33.5355 6.46447C35.4882 8.41709 35.4882 11.5829 33.5355 13.5355C31.5829 15.4882 28.4171 15.4882 26.4645 13.5355C24.5118 11.5829 24.5118 8.41709 26.4645 6.46447C28.4171 4.51184 31.5829 4.51184 33.5355 6.46447Z" stroke="#6941C6" stroke-width="3.33333" stroke-linecap="round" stroke-linejoin="round"/>
</svg>
