<svg width="40" height="40" viewBox="0 0 40 40" fill="none" xmlns="http://www.w3.org/2000/svg">
<g opacity="0.12">
<path d="M16.6667 5.92612L26.6667 8.14834V20.0002L16.6667 20.0002V5.92612Z" fill="#6941C6"/>
<path d="M5 30.0182C5 32.2916 5 33.4283 5.4689 34.2161C5.88004 34.907 6.527 35.4259 7.29057 35.6774C8.16141 35.9642 9.27104 35.7177 11.4903 35.2245L16.6667 34.0742L16.6667 20.0002L5 20.0001V30.0182Z" fill="#6941C6"/>
<path d="M30.8236 30.9281L26.6667 31.8519V20.0002L35 20.0001V25.7675C35 27.2636 34.9973 28.018 34.7295 28.6415C34.4909 29.1971 34.1057 29.6773 33.6151 30.0307C33.0589 30.4314 32.3138 30.597 30.8236 30.9281Z" fill="#6941C6"/>
</g>
<path d="M26.6667 8.33325L26.6667 31.6666M16.6667 6.66659L16.6667 33.3333M5 19.9999H35M5 9.98187L5 30.018C5 32.2914 5 33.4281 5.4689 34.2159C5.88004 34.9068 6.527 35.4257 7.29057 35.6772C8.16141 35.964 9.27104 35.7175 11.4903 35.2243L30.8236 30.928C32.3138 30.5968 33.0589 30.4313 33.6151 30.0306C34.1057 29.6771 34.4909 29.1969 34.7295 28.6414C35 28.0115 35 27.2482 35 25.7217V14.2782C35 12.7516 35 11.9883 34.7295 11.3585C34.4909 10.8029 34.1057 10.3227 33.6151 9.96927C33.0589 9.56857 32.3138 9.403 30.8236 9.07184L11.4903 4.77554C9.27104 4.28237 8.16141 4.03579 7.29057 4.32261C6.527 4.5741 5.88004 5.09307 5.4689 5.7839C5 6.57178 5 7.70848 5 9.98187Z" stroke="#6941C6" stroke-width="3.33333" stroke-linecap="round" stroke-linejoin="round"/>
</svg>
