<svg width="40" height="40" viewBox="0 0 40 40" fill="none" xmlns="http://www.w3.org/2000/svg">
<path opacity="0.12" d="M20 3.33333C22.1887 3.33333 24.356 3.76442 26.3781 4.602C28.4002 5.43958 30.2375 6.66724 31.7851 8.21489C33.3328 9.76253 34.5604 11.5999 35.398 13.6219C36.2356 15.644 36.6667 17.8113 36.6667 20L20 20L20 3.33333Z" fill="#6941C6"/>
<path d="M19.9999 3.33333C22.1886 3.33333 24.3559 3.76442 26.378 4.602C28.4001 5.43958 30.2374 6.66724 31.785 8.21489C33.3327 9.76253 34.5603 11.5999 35.3979 13.6219C36.2355 15.644 36.6666 17.8113 36.6666 20M19.9999 3.33333V20M19.9999 3.33333C10.7952 3.33333 3.33325 10.7952 3.33325 20C3.33325 29.2047 10.7952 36.6667 19.9999 36.6667C29.2047 36.6667 36.6666 29.2048 36.6666 20M19.9999 3.33333C29.2047 3.33333 36.6666 10.7953 36.6666 20M36.6666 20L19.9999 20M36.6666 20C36.6666 22.6302 36.0441 25.223 34.85 27.5665C33.656 29.91 31.9242 31.9376 29.7963 33.4836L19.9999 20" stroke="#6941C6" stroke-width="3.33333" stroke-linecap="round" stroke-linejoin="round"/>
</svg>
