<svg width="40" height="40" viewBox="0 0 40 40" fill="none" xmlns="http://www.w3.org/2000/svg">
<path opacity="0.12" d="M3.3335 19.6667C3.3335 16.8664 3.3335 15.4663 3.87846 14.3967C4.35783 13.4559 5.12273 12.691 6.06354 12.2117C7.1331 11.6667 8.53323 11.6667 11.3335 11.6667H28.6668C31.4671 11.6667 32.8672 11.6667 33.9368 12.2117C34.8776 12.691 35.6425 13.4559 36.1219 14.3967C36.6668 15.4663 36.6668 16.8664 36.6668 19.6667V23.3334C36.6668 24.8833 36.6668 25.6583 36.4965 26.2941C36.0341 28.0196 34.6864 29.3673 32.9609 29.8297C32.3251 30 31.5501 30 30.0002 30V28.6667C30.0002 26.7998 30.0002 25.8664 29.6369 25.1534C29.3173 24.5262 28.8073 24.0162 28.1801 23.6967C27.4671 23.3334 26.5337 23.3334 24.6668 23.3334H15.3335C13.4667 23.3334 12.5332 23.3334 11.8202 23.6967C11.193 24.0162 10.6831 24.5262 10.3635 25.1534C10.0002 25.8664 10.0002 26.7998 10.0002 28.6667V30C8.45021 30 7.67523 30 7.0394 29.8297C5.31394 29.3673 3.9662 28.0196 3.50387 26.2941C3.3335 25.6583 3.3335 24.8833 3.3335 23.3334V19.6667Z" fill="#6941C6"/>
<path d="M30.0002 11.6666V8.66665C30.0002 6.7998 30.0002 5.86638 29.6369 5.15334C29.3173 4.52614 28.8073 4.0162 28.1801 3.69662C27.4671 3.33331 26.5337 3.33331 24.6668 3.33331H15.3335C13.4667 3.33331 12.5332 3.33331 11.8202 3.69662C11.193 4.0162 10.6831 4.52614 10.3635 5.15334C10.0002 5.86638 10.0002 6.7998 10.0002 8.66665V11.6666M10.0002 30C8.45021 30 7.67523 30 7.0394 29.8296C5.31394 29.3673 3.9662 28.0195 3.50387 26.2941C3.3335 25.6582 3.3335 24.8833 3.3335 23.3333V19.6666C3.3335 16.8664 3.3335 15.4663 3.87846 14.3967C4.35783 13.4559 5.12273 12.691 6.06354 12.2116C7.1331 11.6666 8.53323 11.6666 11.3335 11.6666H28.6668C31.4671 11.6666 32.8672 11.6666 33.9368 12.2116C34.8776 12.691 35.6425 13.4559 36.1219 14.3967C36.6668 15.4663 36.6668 16.8664 36.6668 19.6666V23.3333C36.6668 24.8833 36.6668 25.6582 36.4965 26.2941C36.0341 28.0195 34.6864 29.3673 32.9609 29.8296C32.3251 30 31.5501 30 30.0002 30M25.0002 17.5H30.0002M15.3335 36.6666H24.6668C26.5337 36.6666 27.4671 36.6666 28.1801 36.3033C28.8073 35.9838 29.3173 35.4738 29.6369 34.8466C30.0002 34.1336 30.0002 33.2002 30.0002 31.3333V28.6666C30.0002 26.7998 30.0002 25.8664 29.6369 25.1533C29.3173 24.5261 28.8073 24.0162 28.1801 23.6966C27.4671 23.3333 26.5337 23.3333 24.6668 23.3333H15.3335C13.4667 23.3333 12.5332 23.3333 11.8202 23.6966C11.193 24.0162 10.6831 24.5261 10.3635 25.1533C10.0002 25.8664 10.0002 26.7998 10.0002 28.6666V31.3333C10.0002 33.2002 10.0002 34.1336 10.3635 34.8466C10.6831 35.4738 11.193 35.9838 11.8202 36.3033C12.5332 36.6666 13.4667 36.6666 15.3335 36.6666Z" stroke="#6941C6" stroke-width="3.33333" stroke-linecap="round" stroke-linejoin="round"/>
</svg>
