<svg width="40" height="40" viewBox="0 0 40 40" fill="none" xmlns="http://www.w3.org/2000/svg">
<g opacity="0.12">
<path d="M26.6667 29.3333C26.6667 28.3999 26.6667 27.9332 26.8483 27.5767C27.0081 27.2631 27.2631 27.0081 27.5767 26.8483C27.9332 26.6667 28.3999 26.6667 29.3333 26.6667H32.3333C33.2668 26.6667 33.7335 26.6667 34.09 26.8483C34.4036 27.0081 34.6586 27.2631 34.8183 27.5767C35 27.9332 35 28.3999 35 29.3333V32.3333C35 33.2668 35 33.7335 34.8183 34.09C34.6586 34.4036 34.4036 34.6586 34.09 34.8183C33.7335 35 33.2668 35 32.3333 35H29.3333C28.3999 35 27.9332 35 27.5767 34.8183C27.2631 34.6586 27.0081 34.4036 26.8483 34.09C26.6667 33.7335 26.6667 33.2668 26.6667 32.3333V29.3333Z" fill="#6941C6"/>
<path d="M26.6667 7.66667C26.6667 6.73325 26.6667 6.26654 26.8483 5.91002C27.0081 5.59641 27.2631 5.34144 27.5767 5.18166C27.9332 5 28.3999 5 29.3333 5H32.3333C33.2668 5 33.7335 5 34.09 5.18166C34.4036 5.34144 34.6586 5.59641 34.8183 5.91002C35 6.26654 35 6.73325 35 7.66667V10.6667C35 11.6001 35 12.0668 34.8183 12.4233C34.6586 12.7369 34.4036 12.9919 34.09 13.1517C33.7335 13.3333 33.2668 13.3333 32.3333 13.3333H29.3333C28.3999 13.3333 27.9332 13.3333 27.5767 13.1517C27.2631 12.9919 27.0081 12.7369 26.8483 12.4233C26.6667 12.0668 26.6667 11.6001 26.6667 10.6667V7.66667Z" fill="#6941C6"/>
<path d="M5 7.66667C5 6.73325 5 6.26654 5.18166 5.91002C5.34144 5.59641 5.59641 5.34144 5.91002 5.18166C6.26654 5 6.73325 5 7.66667 5H10.6667C11.6001 5 12.0668 5 12.4233 5.18166C12.7369 5.34144 12.9919 5.59641 13.1517 5.91002C13.3333 6.26654 13.3333 6.73325 13.3333 7.66667V10.6667C13.3333 11.6001 13.3333 12.0668 13.1517 12.4233C12.9919 12.7369 12.7369 12.9919 12.4233 13.1517C12.0668 13.3333 11.6001 13.3333 10.6667 13.3333H7.66667C6.73325 13.3333 6.26654 13.3333 5.91002 13.1517C5.59641 12.9919 5.34144 12.7369 5.18166 12.4233C5 12.0668 5 11.6001 5 10.6667V7.66667Z" fill="#6941C6"/>
</g>
<path d="M11.6667 20H20V28.3333M5.01667 20H5M13.35 28.3333H13.3333M20.0167 35H20M35.0167 20H35M5 28.3333H7.5M25.8333 20H29.1667M5 35H13.3333M20 3.33333V13.3333M29.3333 35H32.3333C33.2668 35 33.7335 35 34.09 34.8183C34.4036 34.6586 34.6586 34.4036 34.8183 34.09C35 33.7335 35 33.2668 35 32.3333V29.3333C35 28.3999 35 27.9332 34.8183 27.5767C34.6586 27.2631 34.4036 27.0081 34.09 26.8483C33.7335 26.6667 33.2668 26.6667 32.3333 26.6667H29.3333C28.3999 26.6667 27.9332 26.6667 27.5767 26.8483C27.2631 27.0081 27.0081 27.2631 26.8483 27.5767C26.6667 27.9332 26.6667 28.3999 26.6667 29.3333V32.3333C26.6667 33.2668 26.6667 33.7335 26.8483 34.09C27.0081 34.4036 27.2631 34.6586 27.5767 34.8183C27.9332 35 28.3999 35 29.3333 35ZM29.3333 13.3333H32.3333C33.2668 13.3333 33.7335 13.3333 34.09 13.1517C34.4036 12.9919 34.6586 12.7369 34.8183 12.4233C35 12.0668 35 11.6001 35 10.6667V7.66667C35 6.73324 35 6.26653 34.8183 5.91001C34.6586 5.59641 34.4036 5.34144 34.09 5.18165C33.7335 5 33.2668 5 32.3333 5H29.3333C28.3999 5 27.9332 5 27.5767 5.18165C27.2631 5.34144 27.0081 5.59641 26.8483 5.91001C26.6667 6.26653 26.6667 6.73324 26.6667 7.66667V10.6667C26.6667 11.6001 26.6667 12.0668 26.8483 12.4233C27.0081 12.7369 27.2631 12.9919 27.5767 13.1517C27.9332 13.3333 28.3999 13.3333 29.3333 13.3333ZM7.66667 13.3333H10.6667C11.6001 13.3333 12.0668 13.3333 12.4233 13.1517C12.7369 12.9919 12.9919 12.7369 13.1517 12.4233C13.3333 12.0668 13.3333 11.6001 13.3333 10.6667V7.66667C13.3333 6.73324 13.3333 6.26653 13.1517 5.91001C12.9919 5.59641 12.7369 5.34144 12.4233 5.18165C12.0668 5 11.6001 5 10.6667 5H7.66667C6.73325 5 6.26654 5 5.91002 5.18165C5.59641 5.34144 5.34144 5.59641 5.18166 5.91001C5 6.26653 5 6.73324 5 7.66667V10.6667C5 11.6001 5 12.0668 5.18166 12.4233C5.34144 12.7369 5.59641 12.9919 5.91002 13.1517C6.26654 13.3333 6.73325 13.3333 7.66667 13.3333Z" stroke="#6941C6" stroke-width="3.33333" stroke-linecap="round" stroke-linejoin="round"/>
</svg>
