<svg width="40" height="40" viewBox="0 0 40 40" fill="none" xmlns="http://www.w3.org/2000/svg">
<path opacity="0.12" d="M32.1698 7.83017C33.4644 6.53557 34.1117 5.88826 34.4729 5.90022C34.7837 5.9105 35.0628 6.09289 35.197 6.37332C35.3531 6.69934 35.0203 7.55213 34.3547 9.2577L24.5776 34.3115C24.1906 35.3033 23.997 35.7992 23.7189 35.9437C23.4777 36.069 23.1906 36.0688 22.9496 35.9433C22.6716 35.7984 22.4787 35.3023 22.0928 34.3101L17.5 22.5L32.1698 7.83017Z" fill="#6941C6"/>
<path d="M17.5 22.5001L35 5.00007M17.7127 23.0468L22.0928 34.3102C22.4787 35.3024 22.6716 35.7986 22.9497 35.9434C23.1906 36.069 23.4777 36.0691 23.7189 35.9438C23.9971 35.7993 24.1906 35.3034 24.5776 34.3116L35.5615 6.1654C35.9109 5.2701 36.0856 4.82245 35.99 4.53641C35.907 4.28799 35.7121 4.09305 35.4637 4.01006C35.1776 3.9145 34.73 4.08919 33.8347 4.43858L5.68844 15.4225C4.69665 15.8095 4.20076 16.003 4.05624 16.2812C3.93096 16.5224 3.93113 16.8094 4.05669 17.0504C4.20154 17.3284 4.69766 17.5214 5.6899 17.9073L16.9532 22.2874C17.1547 22.3658 17.2554 22.4049 17.3402 22.4654C17.4153 22.519 17.4811 22.5848 17.5347 22.6599C17.5952 22.7447 17.6343 22.8454 17.7127 23.0468Z" stroke="#6941C6" stroke-width="3.33333" stroke-linecap="round" stroke-linejoin="round"/>
</svg>
