<svg width="40" height="40" viewBox="0 0 40 40" fill="none" xmlns="http://www.w3.org/2000/svg">
<path opacity="0.12" d="M10.1274 7.03577L19.0638 3.68464C19.4102 3.55471 19.5835 3.48974 19.7617 3.46399C19.8408 3.45256 19.9204 3.44685 20.0001 3.44685V36.4362C19.8759 36.4362 19.7516 36.4254 19.6506 36.4037C19.3902 36.3479 19.2058 36.2402 18.8368 36.025C15.59 34.1308 6.66675 28.1809 6.66675 20.0002V12.0295C6.66675 10.697 6.66675 10.0307 6.88468 9.45803C7.07721 8.95209 7.39005 8.50065 7.79618 8.14274C8.25591 7.73759 8.87975 7.50364 10.1274 7.03577Z" fill="#6941C6"/>
<path d="M20.0001 4.16665V35.8333M33.3334 20C33.3334 28.1807 24.4101 34.1307 21.1634 36.0248C20.7944 36.24 20.6099 36.3477 20.3495 36.4035C20.1475 36.4468 19.8527 36.4468 19.6506 36.4035C19.3902 36.3477 19.2058 36.24 18.8368 36.0248C15.59 34.1307 6.66675 28.1807 6.66675 20V12.0293C6.66675 10.6968 6.66675 10.0305 6.88468 9.45783C7.07721 8.95189 7.39005 8.50045 7.79618 8.14254C8.25591 7.73739 8.87975 7.50345 10.1274 7.03557L19.0638 3.68444C19.4102 3.55451 19.5835 3.48954 19.7617 3.46379C19.9198 3.44094 20.0804 3.44094 20.2384 3.46379C20.4167 3.48954 20.5899 3.55451 20.9364 3.68444L29.8727 7.03557C31.1204 7.50345 31.7443 7.73739 32.204 8.14254C32.6101 8.50045 32.923 8.95189 33.1155 9.45783C33.3334 10.0305 33.3334 10.6968 33.3334 12.0293V20Z" stroke="#6941C6" stroke-width="3.33333" stroke-linecap="round" stroke-linejoin="round"/>
</svg>
