<svg width="40" height="40" viewBox="0 0 40 40" fill="none" xmlns="http://www.w3.org/2000/svg">
<path opacity="0.12" d="M32.3334 9.99999C33.1917 9.99999 33.6209 9.99999 33.8472 9.82279C34.0441 9.66858 34.1614 9.43406 34.1666 9.18398C34.1725 8.89661 33.9151 8.55329 33.4001 7.86666L30.8001 4.39999C30.5068 4.00888 30.3601 3.81333 30.1742 3.67229C30.0096 3.54737 29.8232 3.45416 29.6244 3.3974C29.4001 3.33333 29.1556 3.33333 28.6668 3.33333H11.3334C10.8445 3.33333 10.6001 3.33333 10.3757 3.3974C10.177 3.45416 9.99059 3.54737 9.82596 3.67229C9.64008 3.81333 9.49342 4.00888 9.20008 4.39999L6.60008 7.86666C6.08511 8.55329 5.82762 8.89661 5.8336 9.18398C5.8388 9.43406 5.95606 9.66858 6.153 9.82279C6.37932 9.99999 6.80846 9.99999 7.66675 9.99999H32.3334Z" fill="#6941C6"/>
<path d="M9.2 4.39999L6.6 7.86666C6.08503 8.55329 5.82754 8.89661 5.83351 9.18398C5.83871 9.43406 5.95597 9.66858 6.15292 9.82279C6.37923 9.99999 6.80838 9.99999 7.66667 9.99999H32.3333C33.1916 9.99999 33.6208 9.99999 33.8471 9.82279C34.044 9.66858 34.1613 9.43406 34.1665 9.18398C34.1725 8.89661 33.915 8.55329 33.4 7.86666L30.8 4.39999M9.2 4.39999C9.49333 4.00888 9.64 3.81333 9.82588 3.67229C9.9905 3.54737 10.1769 3.45416 10.3756 3.3974C10.6 3.33333 10.8444 3.33333 11.3333 3.33333H28.6667C29.1556 3.33333 29.4 3.33333 29.6244 3.3974C29.8231 3.45416 30.0095 3.54737 30.1741 3.67229C30.36 3.81333 30.5067 4.00888 30.8 4.39999M9.2 4.39999L6.06667 8.57777C5.6709 9.10546 5.47301 9.36931 5.3325 9.65986C5.20781 9.91769 5.11687 10.1905 5.06192 10.4716C5 10.7883 5 11.1182 5 11.7778L5 31.3333C5 33.2002 5 34.1336 5.36331 34.8466C5.68289 35.4738 6.19282 35.9838 6.82003 36.3033C7.53307 36.6667 8.46649 36.6667 10.3333 36.6667L29.6667 36.6667C31.5335 36.6667 32.4669 36.6667 33.18 36.3033C33.8072 35.9838 34.3171 35.4738 34.6367 34.8466C35 34.1336 35 33.2002 35 31.3333V11.7778C35 11.1182 35 10.7884 34.9381 10.4716C34.8831 10.1905 34.7922 9.9177 34.6675 9.65987C34.527 9.36931 34.3291 9.10546 33.9333 8.57777L30.8 4.39999M26.6667 16.6667C26.6667 18.4348 25.9643 20.1305 24.714 21.3807C23.4638 22.6309 21.7681 23.3333 20 23.3333C18.2319 23.3333 16.5362 22.6309 15.286 21.3807C14.0357 20.1305 13.3333 18.4348 13.3333 16.6667" stroke="#6941C6" stroke-width="3.33333" stroke-linecap="round" stroke-linejoin="round"/>
</svg>
