<svg width="40" height="40" viewBox="0 0 40 40" fill="none" xmlns="http://www.w3.org/2000/svg">
<g opacity="0.12">
<path d="M6.66683 7.66667C6.66683 6.73325 6.66683 6.26654 6.84849 5.91002C7.00827 5.59641 7.26324 5.34144 7.57685 5.18166C7.93337 5 8.40008 5 9.3335 5H10.6668C11.6003 5 12.067 5 12.4235 5.18166C12.7371 5.34144 12.9921 5.59641 13.1518 5.91002C13.3335 6.26654 13.3335 6.73325 13.3335 7.66667V9C13.3335 9.93342 13.3335 10.4001 13.1518 10.7567C12.9921 11.0703 12.7371 11.3252 12.4235 11.485C12.067 11.6667 11.6003 11.6667 10.6668 11.6667H9.3335C8.40008 11.6667 7.93337 11.6667 7.57685 11.485C7.26324 11.3252 7.00827 11.0703 6.84849 10.7567C6.66683 10.4001 6.66683 9.93342 6.66683 9V7.66667Z" fill="#6941C6"/>
<path d="M3.3335 31C3.3335 30.0666 3.3335 29.5999 3.51515 29.2433C3.67494 28.9297 3.92991 28.6748 4.24351 28.515C4.60003 28.3333 5.06674 28.3333 6.00016 28.3333H7.3335C8.26692 28.3333 8.73363 28.3333 9.09015 28.515C9.40375 28.6748 9.65872 28.9297 9.81851 29.2433C10.0002 29.5999 10.0002 30.0666 10.0002 31V32.3333C10.0002 33.2668 10.0002 33.7335 9.81851 34.09C9.65872 34.4036 9.40375 34.6586 9.09015 34.8183C8.73363 35 8.26692 35 7.3335 35H6.00016C5.06674 35 4.60003 35 4.24351 34.8183C3.92991 34.6586 3.67494 34.4036 3.51515 34.09C3.3335 33.7335 3.3335 33.2668 3.3335 32.3333V31Z" fill="#6941C6"/>
<path d="M30.0002 7.66667C30.0002 6.73325 30.0002 6.26654 30.1818 5.91002C30.3416 5.59641 30.5966 5.34144 30.9102 5.18166C31.2667 5 31.7334 5 32.6668 5H34.0002C34.9336 5 35.4003 5 35.7568 5.18166C36.0704 5.34144 36.3254 5.59641 36.4852 5.91002C36.6668 6.26654 36.6668 6.73325 36.6668 7.66667V9C36.6668 9.93342 36.6668 10.4001 36.4852 10.7567C36.3254 11.0703 36.0704 11.3252 35.7568 11.485C35.4003 11.6667 34.9336 11.6667 34.0002 11.6667H32.6668C31.7334 11.6667 31.2667 11.6667 30.9102 11.485C30.5966 11.3252 30.3416 11.0703 30.1818 10.7567C30.0002 10.4001 30.0002 9.93342 30.0002 9V7.66667Z" fill="#6941C6"/>
<path d="M26.6668 31C26.6668 30.0666 26.6668 29.5999 26.8485 29.2433C27.0083 28.9297 27.2632 28.6748 27.5768 28.515C27.9334 28.3333 28.4001 28.3333 29.3335 28.3333H30.6668C31.6003 28.3333 32.067 28.3333 32.4235 28.515C32.7371 28.6748 32.9921 28.9297 33.1518 29.2433C33.3335 29.5999 33.3335 30.0666 33.3335 31V32.3333C33.3335 33.2668 33.3335 33.7335 33.1518 34.09C32.9921 34.4036 32.7371 34.6586 32.4235 34.8183C32.067 35 31.6003 35 30.6668 35H29.3335C28.4001 35 27.9334 35 27.5768 34.8183C27.2632 34.6586 27.0083 34.4036 26.8485 34.09C26.6668 33.7335 26.6668 33.2668 26.6668 32.3333V31Z" fill="#6941C6"/>
</g>
<path d="M32.8571 11.6665L30.4761 28.3332M10.2383 11.6667L7.26207 28.3333M30.0002 8.33333L13.3335 8.33333M26.6668 31.6667L10.0002 31.6667M9.3335 11.6667H10.6668C11.6003 11.6667 12.067 11.6667 12.4235 11.485C12.7371 11.3252 12.9921 11.0703 13.1518 10.7567C13.3335 10.4001 13.3335 9.93342 13.3335 9V7.66667C13.3335 6.73325 13.3335 6.26654 13.1518 5.91002C12.9921 5.59641 12.7371 5.34144 12.4235 5.18166C12.067 5 11.6003 5 10.6668 5H9.3335C8.40008 5 7.93337 5 7.57685 5.18166C7.26324 5.34144 7.00827 5.59641 6.84849 5.91002C6.66683 6.26654 6.66683 6.73325 6.66683 7.66667V9C6.66683 9.93342 6.66683 10.4001 6.84849 10.7567C7.00827 11.0703 7.26324 11.3252 7.57685 11.485C7.93337 11.6667 8.40008 11.6667 9.3335 11.6667ZM6.00016 35H7.3335C8.26692 35 8.73363 35 9.09015 34.8183C9.40375 34.6586 9.65872 34.4036 9.81851 34.09C10.0002 33.7335 10.0002 33.2668 10.0002 32.3333V31C10.0002 30.0666 10.0002 29.5999 9.81851 29.2433C9.65872 28.9297 9.40375 28.6748 9.09015 28.515C8.73363 28.3333 8.26692 28.3333 7.3335 28.3333H6.00016C5.06674 28.3333 4.60003 28.3333 4.24351 28.515C3.92991 28.6748 3.67494 28.9297 3.51515 29.2433C3.3335 29.5999 3.3335 30.0666 3.3335 31V32.3333C3.3335 33.2668 3.3335 33.7335 3.51515 34.09C3.67494 34.4036 3.92991 34.6586 4.24351 34.8183C4.60003 35 5.06674 35 6.00016 35ZM32.6668 11.6667H34.0002C34.9336 11.6667 35.4003 11.6667 35.7568 11.485C36.0704 11.3252 36.3254 11.0703 36.4852 10.7567C36.6668 10.4001 36.6668 9.93342 36.6668 9V7.66667C36.6668 6.73325 36.6668 6.26654 36.4852 5.91002C36.3254 5.59641 36.0704 5.34144 35.7568 5.18166C35.4003 5 34.9336 5 34.0002 5H32.6668C31.7334 5 31.2667 5 30.9102 5.18166C30.5966 5.34144 30.3416 5.59641 30.1818 5.91002C30.0002 6.26654 30.0002 6.73325 30.0002 7.66667V9C30.0002 9.93342 30.0002 10.4001 30.1818 10.7567C30.3416 11.0703 30.5966 11.3252 30.9102 11.485C31.2667 11.6667 31.7334 11.6667 32.6668 11.6667ZM29.3335 35H30.6668C31.6003 35 32.067 35 32.4235 34.8183C32.7371 34.6586 32.9921 34.4036 33.1518 34.09C33.3335 33.7335 33.3335 33.2668 33.3335 32.3333V31C33.3335 30.0666 33.3335 29.5999 33.1518 29.2433C32.9921 28.9297 32.7371 28.6748 32.4235 28.515C32.067 28.3333 31.6003 28.3333 30.6668 28.3333H29.3335C28.4001 28.3333 27.9334 28.3333 27.5768 28.515C27.2632 28.6748 27.0083 28.9297 26.8485 29.2433C26.6668 29.5999 26.6668 30.0666 26.6668 31V32.3333C26.6668 33.2668 26.6668 33.7335 26.8485 34.09C27.0083 34.4036 27.2632 34.6586 27.5768 34.8183C27.9334 35 28.4001 35 29.3335 35Z" stroke="#6941C6" stroke-width="3.33333" stroke-linecap="round" stroke-linejoin="round"/>
</svg>
