<svg width="40" height="40" viewBox="0 0 40 40" fill="none" xmlns="http://www.w3.org/2000/svg">
<path opacity="0.12" d="M8.33325 12.2149C8.33325 10.4387 8.33325 9.55063 8.69735 9.0945C9.01399 8.69782 9.49415 8.46704 10.0017 8.46759C10.5853 8.46822 11.2788 9.023 12.6658 10.1326L22.397 17.9176C23.2868 18.6294 23.7316 18.9853 23.8927 19.4152C24.0339 19.7922 24.0339 20.2076 23.8927 20.5845C23.7316 21.0145 23.2868 21.3704 22.397 22.0822L12.6658 29.8672C11.2788 30.9768 10.5853 31.5315 10.0017 31.5322C9.49415 31.5327 9.01399 31.3019 8.69735 30.9053C8.33325 30.4491 8.33325 29.561 8.33325 27.7849V12.2149Z" fill="#6941C6"/>
<path d="M31.6666 8.33331V31.6666M12.6658 29.8673L22.397 22.0823C23.2868 21.3705 23.7316 21.0146 23.8927 20.5846C24.0339 20.2077 24.0339 19.7923 23.8927 19.4153C23.7316 18.9854 23.2868 18.6295 22.397 17.9177L12.6658 10.1327C11.2788 9.0231 10.5853 8.46832 10.0017 8.46769C9.49415 8.46714 9.01399 8.69792 8.69735 9.0946C8.33325 9.55073 8.33325 10.4388 8.33325 12.215V27.785C8.33325 29.5611 8.33325 30.4492 8.69735 30.9054C9.01399 31.302 9.49415 31.5328 10.0017 31.5323C10.5853 31.5316 11.2788 30.9769 12.6658 29.8673Z" stroke="#6941C6" stroke-width="3.33333" stroke-linecap="round" stroke-linejoin="round"/>
</svg>
