<svg width="40" height="40" viewBox="0 0 40 40" fill="none" xmlns="http://www.w3.org/2000/svg">
<path opacity="0.12" d="M21.6665 5L24.5568 12.5148C25.0268 13.7368 25.2618 14.3478 25.6273 14.8618C25.9512 15.3173 26.3492 15.7153 26.8047 16.0392C27.3187 16.4047 27.9297 16.6397 29.1517 17.1097L36.6665 20L29.1517 22.8903C27.9297 23.3603 27.3187 23.5953 26.8047 23.9608C26.3492 24.2847 25.9512 24.6827 25.6273 25.1382C25.2618 25.6522 25.0268 26.2632 24.5568 27.4852L21.6665 35L18.7762 27.4852C18.3062 26.2632 18.0712 25.6522 17.7057 25.1382C17.3818 24.6827 16.9838 24.2847 16.5283 23.9608C16.0144 23.5953 15.4033 23.3603 14.1813 22.8903L6.6665 20L14.1813 17.1097C15.4033 16.6397 16.0143 16.4047 16.5283 16.0392C16.9838 15.7153 17.3818 15.3173 17.7057 14.8618C18.0712 14.3478 18.3062 13.7368 18.7762 12.5148L21.6665 5Z" fill="#6941C6"/>
<path d="M7.50016 36.6667V28.3333M7.50016 11.6667V3.33333M3.3335 7.5H11.6668M3.3335 32.5H11.6668M21.6668 4.99999L18.7765 12.5148C18.3065 13.7368 18.0715 14.3478 17.706 14.8618C17.3821 15.3173 16.9842 15.7153 16.5286 16.0392C16.0147 16.4047 15.4036 16.6397 14.1816 17.1097L6.66683 20L14.1816 22.8903C15.4037 23.3603 16.0147 23.5953 16.5286 23.9608C16.9842 24.2847 17.3821 24.6827 17.706 25.1382C18.0715 25.6522 18.3065 26.2632 18.7765 27.4852L21.6668 35L24.5571 27.4852C25.0271 26.2632 25.2622 25.6522 25.6276 25.1382C25.9515 24.6827 26.3495 24.2847 26.805 23.9608C27.319 23.5953 27.93 23.3603 29.1521 22.8903L36.6668 20L29.1521 17.1097C27.93 16.6397 27.319 16.4047 26.805 16.0392C26.3495 15.7153 25.9515 15.3173 25.6276 14.8618C25.2622 14.3478 25.0271 13.7368 24.5571 12.5148L21.6668 4.99999Z" stroke="#6941C6" stroke-width="3.33333" stroke-linecap="round" stroke-linejoin="round"/>
</svg>
