<svg width="40" height="40" viewBox="0 0 40 40" fill="none" xmlns="http://www.w3.org/2000/svg">
<path opacity="0.12" d="M19.9999 36.6666C29.2047 36.6666 36.6666 29.2047 36.6666 20C36.6666 10.7952 29.2047 3.33331 19.9999 3.33331C10.7952 3.33331 3.33325 10.7952 3.33325 20C3.33325 29.2047 10.7952 36.6666 19.9999 36.6666Z" fill="#6941C6"/>
<path d="M36.6666 20C36.6666 29.2047 29.2047 36.6666 19.9999 36.6666M36.6666 20C36.6666 10.7952 29.2047 3.33331 19.9999 3.33331M36.6666 20H29.9999M19.9999 36.6666C10.7952 36.6666 3.33325 29.2047 3.33325 20M19.9999 36.6666V30M3.33325 20C3.33325 10.7952 10.7952 3.33331 19.9999 3.33331M3.33325 20H9.99992M19.9999 3.33331V9.99998" stroke="#6941C6" stroke-width="3.33333" stroke-linecap="round" stroke-linejoin="round"/>
</svg>
