<svg width="40" height="40" viewBox="0 0 40 40" fill="none" xmlns="http://www.w3.org/2000/svg">
<path opacity="0.12" d="M26.6666 6.66665C26.6666 4.8257 28.159 3.33331 29.9999 3.33331C31.8409 3.33331 33.3333 4.8257 33.3333 6.66665V24.2252C35.3259 25.3779 36.6666 27.5324 36.6666 30C36.6666 33.6819 33.6818 36.6666 29.9999 36.6666C26.318 36.6666 23.3333 33.6819 23.3333 30C23.3333 27.5324 24.6739 25.3779 26.6666 24.2252V6.66665Z" fill="#6941C6"/>
<path d="M3.33325 20H19.9999M14.9999 6.66665V33.3333M4.99992 15L9.99992 20L4.99992 25M19.9999 9.99998L14.9999 15L9.99992 9.99998M9.99992 30L14.9999 25L17.4999 27.5M33.3333 24.2252V6.66665C33.3333 4.8257 31.8409 3.33331 29.9999 3.33331C28.159 3.33331 26.6666 4.8257 26.6666 6.66665V24.2252C24.6739 25.3779 23.3333 27.5324 23.3333 30C23.3333 33.6819 26.318 36.6666 29.9999 36.6666C33.6818 36.6666 36.6666 33.6819 36.6666 30C36.6666 27.5324 35.3259 25.3779 33.3333 24.2252Z" stroke="#6941C6" stroke-width="3.33333" stroke-linecap="round" stroke-linejoin="round"/>
</svg>
