<svg width="40" height="40" viewBox="0 0 40 40" fill="none" xmlns="http://www.w3.org/2000/svg">
<path opacity="0.12" d="M3.33325 21.6666V33.3333C3.33325 35.1743 4.82564 36.6666 6.66659 36.6666H11.6666V18.3333H6.66659C4.82564 18.3333 3.33325 19.8257 3.33325 21.6666Z" fill="#6941C6"/>
<path d="M11.6666 36.6666V18.3333M3.33325 21.6666V33.3333C3.33325 35.1743 4.82564 36.6666 6.66659 36.6666H29.0437C31.5115 36.6666 33.6103 34.8661 33.9855 32.4269L35.7804 20.7603C36.2464 17.7315 33.903 15 30.8385 15H24.9999C24.0794 15 23.3333 14.2538 23.3333 13.3333V7.44305C23.3333 5.1733 21.4933 3.33331 19.2235 3.33331C18.6821 3.33331 18.1916 3.65214 17.9717 4.14685L12.1065 17.3435C11.839 17.9454 11.2421 18.3333 10.5835 18.3333H6.66659C4.82564 18.3333 3.33325 19.8257 3.33325 21.6666Z" stroke="#6941C6" stroke-width="3.33333" stroke-linecap="round" stroke-linejoin="round"/>
</svg>
