<svg width="40" height="40" viewBox="0 0 40 40" fill="none" xmlns="http://www.w3.org/2000/svg">
<path d="M21.5217 28.3333H33.4782M21.5217 28.3333L18.3333 35M21.5217 28.3333L26.2971 18.3484C26.6819 17.5438 26.8743 17.1415 27.1375 17.0144C27.3665 16.9038 27.6334 16.9038 27.8623 17.0144C28.1256 17.1415 28.318 17.5438 28.7028 18.3484L33.4782 28.3333M33.4782 28.3333L36.6666 35M3.33325 8.33333H13.3333M13.3333 8.33333H19.1666M13.3333 8.33333V5M19.1666 8.33333H23.3333M19.1666 8.33333C18.3397 13.2621 16.4209 17.727 13.6092 21.474M16.6666 23.3333C15.6457 22.8747 14.6043 22.2368 13.6092 21.474M13.6092 21.474C11.355 19.7463 9.33786 17.3777 8.33325 15M13.6092 21.474C10.9347 25.0382 7.45231 27.953 3.33325 30" stroke="#6941C6" stroke-width="3.33333" stroke-linecap="round" stroke-linejoin="round"/>
</svg>
