<svg width="40" height="40" viewBox="0 0 40 40" fill="none" xmlns="http://www.w3.org/2000/svg">
<path opacity="0.12" d="M30.4978 27.5322L31.6666 10H8.33325L9.50206 27.5322C9.67742 30.1626 9.7651 31.4778 10.3332 32.475C10.8334 33.353 11.5878 34.0588 12.4971 34.4995C13.53 35 14.8481 35 17.4843 35H22.5155C25.1517 35 26.4699 35 27.5027 34.4995C28.412 34.0588 29.1664 33.353 29.6666 32.475C30.2347 31.4778 30.3224 30.1626 30.4978 27.5322Z" fill="#6941C6"/>
<path d="M15 5H25M5 10H35M31.6667 10L30.4979 27.5322C30.3225 30.1626 30.2348 31.4778 29.6667 32.475C29.1665 33.353 28.4121 34.0588 27.5028 34.4995C26.47 35 25.1518 35 22.5156 35H17.4844C14.8482 35 13.5301 35 12.4972 34.4995C11.5879 34.0588 10.8335 33.353 10.3333 32.475C9.76518 31.4778 9.6775 30.1626 9.50214 27.5322L8.33333 10" stroke="#6941C6" stroke-width="3.33333" stroke-linecap="round" stroke-linejoin="round"/>
</svg>
