<svg width="40" height="40" viewBox="0 0 40 40" fill="none" xmlns="http://www.w3.org/2000/svg">
<path opacity="0.12" d="M28.3339 5.56629C25.1453 3.72534 18.8294 8.69517 14.2271 16.6667L25.7741 23.3334C30.3764 15.3618 31.5225 7.40724 28.3339 5.56629Z" fill="#6941C6"/>
<path d="M10.4168 36.5988L20.0002 20M28.3335 5.5662C21.1449 1.41584 12.1496 3.22933 7.07683 9.47152C6.58171 10.0808 6.33415 10.3854 6.26213 10.8219C6.20483 11.1692 6.28972 11.6294 6.46714 11.9333C6.69013 12.3154 7.08535 12.5436 7.87581 13L32.1245 27C32.915 27.4563 33.3102 27.6845 33.7526 27.6866C34.1045 27.6883 34.5455 27.5317 34.8176 27.3084C35.1596 27.0278 35.2997 26.6611 35.5797 25.9277C38.4493 18.4135 35.5221 9.71656 28.3335 5.5662ZM28.3335 5.5662C25.1449 3.72525 18.829 8.69508 14.2267 16.6666M28.3335 5.5662C31.5221 7.40715 30.376 15.3617 25.7737 23.3333M36.6668 36.6666H3.3335" stroke="#6941C6" stroke-width="3.33333" stroke-linecap="round" stroke-linejoin="round"/>
</svg>
