<svg width="40" height="40" viewBox="0 0 40 40" fill="none" xmlns="http://www.w3.org/2000/svg">
<path opacity="0.12" d="M3.3335 20.8333H9.24462C10.1449 20.8333 10.5951 20.8333 11.0304 20.9109C11.4168 20.9798 11.7937 21.0939 12.1533 21.2509C12.5586 21.4278 12.9331 21.6775 13.6822 22.1769L14.6514 22.8231C15.4005 23.3225 15.7751 23.5722 16.1803 23.7491C16.54 23.9061 16.9169 24.0202 17.3033 24.0891C17.7386 24.1667 18.1887 24.1667 19.089 24.1667H20.9113C21.8116 24.1667 22.2618 24.1667 22.6971 24.0891C23.0834 24.0202 23.4603 23.9061 23.82 23.7491C24.2252 23.5722 24.5998 23.3225 25.3489 22.8231L26.3181 22.1769C27.0672 21.6775 27.4418 21.4278 27.847 21.2509C28.2067 21.0939 28.5836 20.9798 28.9699 20.9109C29.4052 20.8333 29.8554 20.8333 30.7557 20.8333H36.6668V28C36.6668 29.8669 36.6668 30.8003 36.3035 31.5133C35.9839 32.1405 35.474 32.6505 34.8468 32.97C34.1338 33.3333 33.2003 33.3333 31.3335 33.3333H8.66683C6.79999 33.3333 5.86657 33.3333 5.15353 32.97C4.52632 32.6505 4.01639 32.1405 3.69681 31.5133C3.3335 30.8003 3.3335 29.8669 3.3335 28V20.8333Z" fill="#6941C6"/>
<path d="M36.6668 14.1667H3.3335M3.3335 20.8333H9.24462C10.1449 20.8333 10.5951 20.8333 11.0304 20.9109C11.4168 20.9798 11.7937 21.0939 12.1533 21.2509C12.5586 21.4278 12.9331 21.6775 13.6822 22.1769L14.6514 22.8231C15.4005 23.3225 15.7751 23.5722 16.1803 23.7491C16.54 23.9061 16.9169 24.0202 17.3033 24.0891C17.7386 24.1667 18.1887 24.1667 19.089 24.1667H20.9113C21.8116 24.1667 22.2618 24.1667 22.6971 24.0891C23.0834 24.0202 23.4603 23.9061 23.82 23.7491C24.2252 23.5722 24.5998 23.3225 25.3489 22.8231L26.3181 22.1769C27.0672 21.6775 27.4418 21.4278 27.847 21.2509C28.2067 21.0939 28.5836 20.9798 28.9699 20.9109C29.4052 20.8333 29.8554 20.8333 30.7557 20.8333H36.6668M3.3335 12L3.3335 28C3.3335 29.8668 3.3335 30.8002 3.69681 31.5133C4.01639 32.1405 4.52632 32.6504 5.15353 32.97C5.86657 33.3333 6.79999 33.3333 8.66683 33.3333L31.3335 33.3333C33.2003 33.3333 34.1338 33.3333 34.8468 32.97C35.474 32.6504 35.9839 32.1405 36.3035 31.5133C36.6668 30.8003 36.6668 29.8668 36.6668 28V12C36.6668 10.1332 36.6668 9.19973 36.3035 8.48669C35.9839 7.85948 35.474 7.34955 34.8468 7.02997C34.1338 6.66666 33.2003 6.66666 31.3335 6.66666L8.66683 6.66666C6.79999 6.66666 5.86657 6.66666 5.15353 7.02997C4.52632 7.34955 4.01639 7.85948 3.69681 8.48669C3.3335 9.19973 3.3335 10.1331 3.3335 12Z" stroke="#6941C6" stroke-width="3.33333" stroke-linecap="round" stroke-linejoin="round"/>
</svg>
