<svg width="40" height="40" viewBox="0 0 40 40" fill="none" xmlns="http://www.w3.org/2000/svg">
<path d="M3.33325 10C4.33325 10.8333 5.33325 11.6667 7.49992 11.6667C11.6666 11.6667 11.6666 8.33334 15.8333 8.33334C17.9999 8.33334 18.9999 9.16668 19.9999 10C20.9999 10.8333 21.9999 11.6667 24.1666 11.6667C28.3333 11.6667 28.3333 8.33334 32.4999 8.33334C34.6666 8.33334 35.6666 9.16668 36.6666 10M3.33325 30C4.33325 30.8333 5.33325 31.6667 7.49992 31.6667C11.6666 31.6667 11.6666 28.3333 15.8333 28.3333C17.9999 28.3333 18.9999 29.1667 19.9999 30C20.9999 30.8333 21.9999 31.6667 24.1666 31.6667C28.3333 31.6667 28.3333 28.3333 32.4999 28.3333C34.6666 28.3333 35.6666 29.1667 36.6666 30M3.33325 20C4.33325 20.8333 5.33325 21.6667 7.49992 21.6667C11.6666 21.6667 11.6666 18.3333 15.8333 18.3333C17.9999 18.3333 18.9999 19.1667 19.9999 20C20.9999 20.8333 21.9999 21.6667 24.1666 21.6667C28.3333 21.6667 28.3333 18.3333 32.4999 18.3333C34.6666 18.3333 35.6666 19.1667 36.6666 20" stroke="#6941C6" stroke-width="3.33333" stroke-linecap="round" stroke-linejoin="round"/>
</svg>
