<svg width="40" height="40" viewBox="0 0 40 40" fill="none" xmlns="http://www.w3.org/2000/svg">
<path d="M25.52 16.6667C27.8005 17.3772 29.9374 18.5318 31.8001 20.0834M37.6333 14.1666C32.7626 9.87323 26.4928 7.50437 20 7.50437C18.9916 7.50437 17.9886 7.56151 16.9954 7.67411M14.2164 26.0167C15.9084 24.8146 17.9325 24.1688 20.0081 24.1688C22.0836 24.1688 24.1077 24.8146 25.7997 26.0167M20.0001 32.5H20.0167M1.98901 14.5013C4.21169 12.4645 6.78073 10.7996 9.59759 9.6051M7.88664 20.4049C10.2156 18.3533 13.0696 16.8836 16.2212 16.2232M26.164 26.2918C24.4654 24.9604 22.3254 24.1667 19.9999 24.1667C17.6392 24.1667 15.4696 24.9846 13.759 26.3526M5.00008 5L35.0001 35" stroke="#6941C6" stroke-width="3.33333" stroke-linecap="round" stroke-linejoin="round"/>
</svg>
