<svg width="40" height="40" viewBox="0 0 40 40" fill="none" xmlns="http://www.w3.org/2000/svg">
<path opacity="0.12" d="M20.0002 23.3333H7.8469C6.9388 23.3333 6.48476 23.3333 6.2556 23.1481C6.0564 22.9872 5.94228 22.7435 5.94614 22.4874C5.95058 22.1928 6.24126 21.844 6.8226 21.1464L13.3335 13.3333L26.6668 26.6666L18.3335 36.6666L20.0002 23.3333Z" fill="#6941C6"/>
<path d="M13.3333 13.3333L6.82243 21.1464C6.24108 21.844 5.9504 22.1928 5.94596 22.4874C5.9421 22.7435 6.05622 22.9872 6.25543 23.1481C6.48458 23.3333 6.93863 23.3333 7.84672 23.3333H20L18.3333 36.6666L26.6667 26.6666M26.0834 16.6666H32.1533C33.0614 16.6666 33.5154 16.6666 33.7446 16.8518C33.9438 17.0128 34.0579 17.2565 34.054 17.5125C34.0496 17.8071 33.7589 18.1559 33.1776 18.8536L30.9171 21.5662M17.6213 8.18773L21.6666 3.33331L20.6671 11.3295M35 35L5 4.99998" stroke="#6941C6" stroke-width="3.33333" stroke-linecap="round" stroke-linejoin="round"/>
</svg>
